<?xml version="1.0" encoding="utf-8"?>
<!-- Generator: Adobe Illustrator 25.3.1, SVG Export Plug-In . SVG Version: 6.00 Build 0)  -->
<svg version="1.1" id="Layer_1" xmlns="http://www.w3.org/2000/svg" xmlns:xlink="http://www.w3.org/1999/xlink" x="0px" y="0px"
	 viewBox="0 0 2340.2 1200" style="enable-background:new 0 0 2340.2 1200;" xml:space="preserve">
<style type="text/css">
	.st0{fill-rule:evenodd;clip-rule:evenodd;}
</style>
<desc>Created with Sketch.</desc>
<g id="Page-1">
	<polygon class="st0" points="290,0 261.2,355.3 256.7,410.7 252.9,364.9 223.3,0 0,0 0,662 0,1200 138.4,1200 138.4,693.3 
		180.4,1200 334,1200 374.9,693.3 374.9,1200 513.3,1200 513.3,59.1 513.3,0 	"/>
</g>
<g>
	<path d="M731.7,3.4l28.4,189.9h0.7L791.1,3.4h49.6l30.2,189.9h0.7L900,3.4h49.6l-46.7,256.7H845L816.3,73.9h-0.7l-28.8,186.3h-57.9
		L682.1,3.4H731.7z"/>
	<path d="M989.8,78c1.8-16.4,5.8-30.5,11.9-42.3c6.1-11.7,14.9-20.9,26.4-27.5c11.5-6.6,27-9.9,46.4-9.9s34.9,3.3,46.4,9.9
		c11.5,6.6,20.3,15.8,26.4,27.5c6.1,11.7,10.1,25.8,11.9,42.3c1.8,16.4,2.7,34.3,2.7,53.8c0,19.7-0.9,37.6-2.7,53.9
		c-1.8,16.3-5.8,30.3-11.9,42.1c-6.1,11.7-14.9,20.7-26.4,27c-11.5,6.2-27,9.3-46.4,9.3s-34.9-3.1-46.4-9.3
		c-11.5-6.2-20.3-15.2-26.4-27c-6.1-11.7-10.1-25.8-11.9-42.1c-1.8-16.3-2.7-34.3-2.7-53.9C987.1,112.4,988,94.5,989.8,78z
		 M1040.1,175.8c0.8,12.1,2.5,21.9,5,29.5c2.5,7.6,6.1,13.1,10.8,16.5c4.7,3.5,10.8,5.2,18.5,5.2c7.7,0,13.8-1.7,18.5-5.2
		c4.7-3.5,8.3-9,10.8-16.5c2.5-7.6,4.2-17.4,5-29.5c0.8-12.1,1.3-26.8,1.3-44s-0.4-31.9-1.3-43.9c-0.8-12-2.5-21.8-5-29.5
		c-2.5-7.7-6.1-13.2-10.8-16.7c-4.7-3.5-10.8-5.2-18.5-5.2c-7.7,0-13.8,1.7-18.5,5.2c-4.7,3.5-8.3,9.1-10.8,16.7
		c-2.5,7.7-4.2,17.5-5,29.5c-0.8,12-1.3,26.6-1.3,43.9S1039.3,163.7,1040.1,175.8z"/>
	<path d="M1310,3.4c21.6,0,38.4,5.5,50.3,16.4c12,10.9,18,27.5,18,49.8c0,17.3-3.5,31.3-10.4,42.3c-7,10.9-17.7,17.9-32.4,21v0.7
		c12.9,1.9,22.4,6.1,28.4,12.6c6,6.5,9.7,16.9,11.1,31.3c0.5,4.8,0.8,10,1.1,15.6c0.2,5.6,0.5,11.9,0.7,18.9
		c0.5,13.7,1.2,24.1,2.2,31.3c1.4,7.2,4.6,12.1,9.3,14.7v2.2h-56.1c-2.6-3.6-4.3-7.7-5-12.4c-0.7-4.7-1.2-9.5-1.4-14.6l-1.4-49.3
		c-0.5-10.1-3-18-7.6-23.7c-4.6-5.8-12.2-8.6-23-8.6h-27.7v108.6h-51.8V3.4H1310z M1287.7,115.6c12.5,0,22.1-2.9,28.8-8.8
		c6.7-5.9,10.1-15.8,10.1-29.7c0-23.7-12-35.6-36-35.6h-24.5v74.1H1287.7z"/>
	<path d="M1488,106.3h0.7l65.4-102.8h56.1l-69.8,110l77.7,146.7h-58.3L1507,154.8l-19.1,29.1v76.2h-51.8V3.4h51.8V106.3z"/>
	<path d="M738.9,498.5c0,6,0.5,11.5,1.4,16.4c1,4.9,2.8,9.1,5.4,12.4c2.6,3.4,6.2,6,10.6,7.9c4.4,1.9,10,2.9,16.7,2.9
		c7.9,0,15-2.6,21.4-7.7c6.3-5.2,9.5-13.1,9.5-23.9c0-5.8-0.8-10.7-2.3-14.9c-1.6-4.2-4.1-8-7.7-11.3c-3.6-3.4-8.3-6.4-14.2-9.2
		c-5.9-2.8-13.1-5.6-21.8-8.5c-11.5-3.8-21.5-8-29.8-12.6c-8.4-4.6-15.4-9.9-21-16c-5.6-6.1-9.8-13.2-12.4-21.2
		c-2.6-8-4-17.3-4-27.9c0-25.4,7.1-44.3,21.2-56.8c14.1-12.5,33.6-18.7,58.3-18.7c11.5,0,22.1,1.3,31.8,3.8s18.1,6.6,25.2,12.2
		c7.1,5.6,12.6,12.8,16.5,21.6c4,8.8,5.9,19.2,5.9,31.5v7.2h-49.6c0-12.2-2.2-21.6-6.5-28.2c-4.3-6.6-11.5-9.9-21.6-9.9
		c-5.8,0-10.6,0.8-14.4,2.5c-3.8,1.7-6.9,3.9-9.2,6.7c-2.3,2.8-3.8,5.9-4.7,9.5c-0.8,3.6-1.3,7.3-1.3,11.1c0,7.9,1.7,14.6,5,20
		c3.4,5.4,10.5,10.4,21.6,14.9l39.9,17.3c9.8,4.3,17.9,8.8,24.1,13.5c6.2,4.7,11.2,9.7,14.9,15.1c3.7,5.4,6.3,11.3,7.7,17.8
		c1.4,6.5,2.2,13.7,2.2,21.6c0,27.1-7.9,46.8-23.6,59.2c-15.7,12.3-37.6,18.5-65.6,18.5c-29.3,0-50.2-6.3-62.7-19.1
		c-12.6-12.7-18.9-30.9-18.9-54.7V491h51.8V498.5z"/>
	<path d="M1056.1,356.9H1000v214.3h-51.8V356.9h-56.1v-42.4h164V356.9z"/>
	<path d="M1148.9,493.5c0,6.5,0.4,12.4,1.3,17.8c0.8,5.4,2.4,10.1,4.7,14c2.3,4,5.4,7.1,9.3,9.3c4,2.3,8.9,3.4,14.9,3.4
		c6.2,0,11.3-1.1,15.1-3.4c3.8-2.3,6.9-5.4,9.2-9.3c2.3-4,3.8-8.6,4.7-14c0.8-5.4,1.3-11.3,1.3-17.8V314.4h51.8v179.1
		c0,16.3-2.3,29.8-6.8,40.5c-4.6,10.7-10.7,19.1-18.3,25.4c-7.7,6.2-16.4,10.4-26.2,12.6c-9.8,2.2-20,3.2-30.6,3.2
		c-10.6,0-20.7-1-30.6-2.9c-9.8-1.9-18.6-5.8-26.2-11.7c-7.7-5.9-13.8-14.2-18.3-25c-4.6-10.8-6.8-24.8-6.8-42.1V314.4h51.8V493.5z"
		/>
	<path d="M1403.1,314.4c18,0,32.5,2.9,43.5,8.8c11,5.9,19.6,14.3,25.7,25.2c6.1,10.9,10.2,24,12.4,39.4c2.2,15.3,3.2,32.5,3.2,51.4
		c0,22.5-1.4,42.1-4.1,58.8c-2.8,16.7-7.5,30.4-14.2,41.2c-6.7,10.8-15.7,18.8-27,24.1c-11.3,5.3-25.5,7.9-42.8,7.9h-81.6V314.4
		H1403.1z M1393,533c9.1,0,16.4-1.6,21.9-4.7c5.5-3.1,9.9-8.3,13.1-15.5s5.4-16.7,6.5-28.4c1.1-11.7,1.6-26.4,1.6-43.9
		c0-14.6-0.5-27.4-1.4-38.5c-1-11-2.9-20.2-5.9-27.5c-3-7.3-7.4-12.8-13.3-16.5c-5.9-3.7-13.7-5.6-23.6-5.6H1370V533H1393z"/>
	<path d="M1612,413.7h0.7l36-99.2h56.1l-66.5,155.7v101h-51.8v-101L1520,314.4h58.3L1612,413.7z"/>
	<path d="M738.9,809.5c0,6,0.5,11.5,1.4,16.4c1,4.9,2.8,9.1,5.4,12.4c2.6,3.4,6.2,6,10.6,7.9c4.4,1.9,10,2.9,16.7,2.9
		c7.9,0,15-2.6,21.4-7.7c6.3-5.2,9.5-13.1,9.5-23.9c0-5.8-0.8-10.7-2.3-14.9c-1.6-4.2-4.1-8-7.7-11.3c-3.6-3.4-8.3-6.4-14.2-9.2
		c-5.9-2.8-13.1-5.6-21.8-8.5c-11.5-3.8-21.5-8-29.8-12.6c-8.4-4.6-15.4-9.9-21-16c-5.6-6.1-9.8-13.2-12.4-21.2
		c-2.6-8-4-17.3-4-27.9c0-25.4,7.1-44.3,21.2-56.8c14.1-12.5,33.6-18.7,58.3-18.7c11.5,0,22.1,1.3,31.8,3.8
		c9.7,2.5,18.1,6.6,25.2,12.2c7.1,5.6,12.6,12.8,16.5,21.6c4,8.8,5.9,19.2,5.9,31.5v7.2h-49.6c0-12.2-2.2-21.6-6.5-28.2
		c-4.3-6.6-11.5-9.9-21.6-9.9c-5.8,0-10.6,0.8-14.4,2.5c-3.8,1.7-6.9,3.9-9.2,6.7c-2.3,2.8-3.8,5.9-4.7,9.5
		c-0.8,3.6-1.3,7.3-1.3,11.1c0,7.9,1.7,14.6,5,20c3.4,5.4,10.5,10.4,21.6,14.9l39.9,17.3c9.8,4.3,17.9,8.8,24.1,13.5
		c6.2,4.7,11.2,9.7,14.9,15.1c3.7,5.4,6.3,11.3,7.7,17.8c1.4,6.5,2.2,13.7,2.2,21.6c0,27.1-7.9,46.8-23.6,59.2
		c-15.7,12.3-37.6,18.5-65.6,18.5c-29.3,0-50.2-6.3-62.7-19.1c-12.6-12.7-18.9-30.9-18.9-54.7V802h51.8V809.5z"/>
	<path d="M954.3,804.5c0,6.5,0.4,12.4,1.3,17.8c0.8,5.4,2.4,10.1,4.7,14c2.3,4,5.4,7.1,9.3,9.3c4,2.3,8.9,3.4,14.9,3.4
		c6.2,0,11.3-1.1,15.1-3.4c3.8-2.3,6.9-5.4,9.2-9.3c2.3-4,3.8-8.6,4.7-14c0.8-5.4,1.3-11.3,1.3-17.8V625.4h51.8v179.1
		c0,16.3-2.3,29.8-6.8,40.5c-4.6,10.7-10.7,19.1-18.3,25.4c-7.7,6.2-16.4,10.4-26.2,12.6c-9.8,2.2-20,3.2-30.6,3.2
		c-10.6,0-20.7-1-30.6-2.9c-9.8-1.9-18.6-5.8-26.2-11.7c-7.7-5.9-13.8-14.2-18.3-25c-4.6-10.8-6.8-24.8-6.8-42.1V625.4h51.8V804.5z"
		/>
	<path d="M1211.8,625.4c13.2,0,24.3,2.2,33.3,6.7c9,4.4,16.2,10.2,21.8,17.4c5.5,7.2,9.5,15.4,11.9,24.6c2.4,9.2,3.6,18.6,3.6,28.2
		c0,13.2-2,24.7-5.9,34.5c-4,9.8-9.5,17.9-16.5,24.1c-7.1,6.2-15.6,10.9-25.7,14c-10.1,3.1-21.2,4.7-33.4,4.7H1173v102.5h-51.8
		V625.4H1211.8z M1196,741.6c10.3,0,18.6-3.1,25-9.3c6.3-6.2,9.5-15.9,9.5-29.1c0-12.9-2.8-22.8-8.3-29.5
		c-5.5-6.7-14.7-10.1-27.7-10.1H1173v78H1196z"/>
	<path d="M1420.4,625.4c13.2,0,24.3,2.2,33.3,6.7c9,4.4,16.2,10.2,21.8,17.4c5.5,7.2,9.5,15.4,11.9,24.6c2.4,9.2,3.6,18.6,3.6,28.2
		c0,13.2-2,24.7-5.9,34.5c-4,9.8-9.5,17.9-16.5,24.1c-7.1,6.2-15.6,10.9-25.7,14c-10.1,3.1-21.2,4.7-33.4,4.7h-27.7v102.5h-51.8
		V625.4H1420.4z M1404.5,741.6c10.3,0,18.6-3.1,25-9.3c6.3-6.2,9.5-15.9,9.5-29.1c0-12.9-2.8-22.8-8.3-29.5
		c-5.5-6.7-14.7-10.1-27.7-10.1h-21.6v78H1404.5z"/>
	<path d="M1535.6,700c1.8-16.4,5.8-30.5,11.9-42.3c6.1-11.7,14.9-20.9,26.4-27.5c11.5-6.6,27-9.9,46.4-9.9s34.9,3.3,46.4,9.9
		c11.5,6.6,20.3,15.8,26.4,27.5c6.1,11.7,10.1,25.8,11.9,42.3c1.8,16.4,2.7,34.3,2.7,53.8c0,19.7-0.9,37.6-2.7,53.9
		c-1.8,16.3-5.8,30.3-11.9,42.1c-6.1,11.7-14.9,20.7-26.4,27c-11.5,6.2-27,9.3-46.4,9.3s-34.9-3.1-46.4-9.3
		c-11.5-6.2-20.3-15.2-26.4-27c-6.1-11.7-10.1-25.8-11.9-42.1c-1.8-16.3-2.7-34.3-2.7-53.9C1532.9,734.4,1533.8,716.5,1535.6,700z
		 M1585.9,797.8c0.8,12.1,2.5,21.9,5,29.5c2.5,7.6,6.1,13.1,10.8,16.5c4.7,3.5,10.8,5.2,18.5,5.2c7.7,0,13.8-1.7,18.5-5.2
		c4.7-3.5,8.3-9,10.8-16.5c2.5-7.6,4.2-17.4,5-29.5c0.8-12.1,1.3-26.8,1.3-44c0-17.3-0.4-31.9-1.3-43.9c-0.8-12-2.5-21.8-5-29.5
		c-2.5-7.7-6.1-13.2-10.8-16.7c-4.7-3.5-10.8-5.2-18.5-5.2c-7.7,0-13.8,1.7-18.5,5.2c-4.7,3.5-8.3,9.1-10.8,16.7
		c-2.5,7.7-4.2,17.5-5,29.5c-0.8,12-1.3,26.6-1.3,43.9C1584.7,771.1,1585.1,785.7,1585.9,797.8z"/>
	<path d="M1855.8,625.4c21.6,0,38.4,5.5,50.3,16.4c12,10.9,18,27.5,18,49.8c0,17.3-3.5,31.3-10.4,42.3c-7,10.9-17.7,17.9-32.4,21
		v0.7c12.9,1.9,22.4,6.1,28.4,12.6c6,6.5,9.7,16.9,11.1,31.3c0.5,4.8,0.8,10,1.1,15.6c0.2,5.6,0.5,11.9,0.7,18.9
		c0.5,13.7,1.2,24.1,2.2,31.3c1.4,7.2,4.6,12.1,9.3,14.7v2.2h-56.1c-2.6-3.6-4.3-7.7-5-12.4c-0.7-4.7-1.2-9.5-1.4-14.6l-1.4-49.3
		c-0.5-10.1-3-18-7.6-23.7c-4.6-5.8-12.2-8.6-23-8.6h-27.7v108.6h-51.8V625.4H1855.8z M1833.5,737.6c12.5,0,22.1-2.9,28.8-8.8
		c6.7-5.9,10.1-15.8,10.1-29.7c0-23.7-12-35.6-36-35.6h-24.5v74.1H1833.5z"/>
	<path d="M2125.9,667.8h-56.1v214.3H2018V667.8h-56.1v-42.4h164V667.8z"/>
	<path d="M792.9,936.4c21.6,0,38.4,5.5,50.3,16.4c12,10.9,18,27.5,18,49.8c0,17.3-3.5,31.3-10.4,42.3c-7,10.9-17.7,17.9-32.4,21v0.7
		c12.9,1.9,22.4,6.1,28.4,12.6c6,6.5,9.7,16.9,11.1,31.3c0.5,4.8,0.8,10,1.1,15.6c0.2,5.6,0.5,11.9,0.7,18.9
		c0.5,13.7,1.2,24.1,2.2,31.3c1.4,7.2,4.6,12.1,9.3,14.7v2.2h-56.1c-2.6-3.6-4.3-7.7-5-12.4c-0.7-4.7-1.2-9.5-1.4-14.6l-1.4-49.3
		c-0.5-10.1-3-18-7.6-23.7c-4.6-5.8-12.2-8.6-23-8.6H749v108.6h-51.8V936.4H792.9z M770.6,1048.6c12.5,0,22.1-2.9,28.8-8.8
		c6.7-5.9,10.1-15.8,10.1-29.7c0-23.7-12-35.6-36-35.6H749v74.1H770.6z"/>
	<path d="M1062.6,978.8h-91.7v60.4h86.3v42.4h-86.3v69h95.3v42.4H919.1V936.4h143.5V978.8z"/>
	<path d="M1155.7,1120.5c0,6,0.5,11.5,1.4,16.4c1,4.9,2.8,9.1,5.4,12.4c2.6,3.4,6.2,6,10.6,7.9c4.4,1.9,10,2.9,16.7,2.9
		c7.9,0,15-2.6,21.4-7.7c6.3-5.2,9.5-13.1,9.5-23.9c0-5.8-0.8-10.7-2.3-14.9c-1.6-4.2-4.1-8-7.7-11.3c-3.6-3.4-8.3-6.4-14.2-9.2
		c-5.9-2.8-13.1-5.6-21.8-8.5c-11.5-3.8-21.5-8-29.8-12.6c-8.4-4.6-15.4-9.9-21-16c-5.6-6.1-9.8-13.2-12.4-21.2
		c-2.6-8-4-17.3-4-27.9c0-25.4,7.1-44.3,21.2-56.8c14.1-12.5,33.6-18.7,58.3-18.7c11.5,0,22.1,1.3,31.8,3.8
		c9.7,2.5,18.1,6.6,25.2,12.2c7.1,5.6,12.6,12.8,16.5,21.6c4,8.8,5.9,19.2,5.9,31.5v7.2h-49.6c0-12.2-2.2-21.6-6.5-28.2
		c-4.3-6.6-11.5-9.9-21.6-9.9c-5.8,0-10.6,0.8-14.4,2.5c-3.8,1.7-6.9,3.9-9.2,6.7c-2.3,2.8-3.8,5.9-4.7,9.5
		c-0.8,3.6-1.3,7.3-1.3,11.1c0,7.9,1.7,14.6,5,20c3.4,5.4,10.5,10.4,21.6,14.9l39.9,17.3c9.8,4.3,17.9,8.8,24.1,13.5
		c6.2,4.7,11.2,9.7,14.9,15.1c3.7,5.4,6.3,11.3,7.7,17.8c1.4,6.5,2.2,13.7,2.2,21.6c0,27.1-7.9,46.8-23.6,59.2
		c-15.7,12.3-37.6,18.5-65.6,18.5c-29.3,0-50.2-6.3-62.7-19.1c-12.6-12.7-18.9-30.9-18.9-54.7V1113h51.8V1120.5z"/>
	<path d="M1466,978.8h-91.7v60.4h86.3v42.4h-86.3v69h95.3v42.4h-147.1V936.4H1466V978.8z"/>
	<path d="M1631.4,936.4l68,256.7h-53.9l-11.9-54.3h-68.3l-11.9,54.3h-53.9l68-256.7H1631.4z M1624.6,1096.4L1599.8,981h-0.7
		l-24.8,115.4H1624.6z"/>
	<path d="M1835,936.4c21.6,0,38.4,5.5,50.3,16.4c12,10.9,18,27.5,18,49.8c0,17.3-3.5,31.3-10.4,42.3c-7,10.9-17.7,17.9-32.4,21v0.7
		c12.9,1.9,22.4,6.1,28.4,12.6c6,6.5,9.7,16.9,11.1,31.3c0.5,4.8,0.8,10,1.1,15.6c0.2,5.6,0.5,11.9,0.7,18.9
		c0.5,13.7,1.2,24.1,2.2,31.3c1.4,7.2,4.6,12.1,9.3,14.7v2.2h-56.1c-2.6-3.6-4.3-7.7-5-12.4c-0.7-4.7-1.2-9.5-1.4-14.6l-1.4-49.3
		c-0.5-10.1-3-18-7.6-23.7c-4.6-5.8-12.2-8.6-23-8.6h-27.7v108.6h-51.8V936.4H1835z M1812.7,1048.6c12.5,0,22.1-2.9,28.8-8.8
		c6.7-5.9,10.1-15.8,10.1-29.7c0-23.7-12-35.6-36-35.6h-24.5v74.1H1812.7z"/>
	<path d="M2064.2,982.3c-4.4-8.5-12.5-12.8-24.3-12.8c-6.5,0-11.8,1.7-16,5.2c-4.2,3.5-7.5,9.1-9.9,16.9c-2.4,7.8-4.1,18-5,30.6
		c-1,12.6-1.4,28-1.4,46.2c0,19.4,0.7,35.1,2,47.1c1.3,12,3.4,21.3,6.1,27.9c2.8,6.6,6.2,11,10.4,13.3c4.2,2.3,9,3.4,14.6,3.4
		c4.6,0,8.8-0.8,12.8-2.3c4-1.6,7.4-4.7,10.2-9.3c2.9-4.7,5.2-11.3,6.8-19.8c1.7-8.5,2.5-19.7,2.5-33.6h51.8
		c0,13.9-1.1,27.1-3.2,39.6c-2.2,12.5-6.2,23.4-12,32.7c-5.9,9.3-14.1,16.7-24.8,21.9c-10.7,5.3-24.5,7.9-41.5,7.9
		c-19.4,0-34.9-3.1-46.4-9.3c-11.5-6.2-20.3-15.2-26.4-27c-6.1-11.7-10.1-25.8-11.9-42.1c-1.8-16.3-2.7-34.3-2.7-53.9
		c0-19.4,0.9-37.3,2.7-53.8c1.8-16.4,5.8-30.5,11.9-42.3c6.1-11.7,14.9-20.9,26.4-27.5c11.5-6.6,27-9.9,46.4-9.9c18.5,0,33,3,43.7,9
		c10.7,6,18.6,13.6,23.9,22.8c5.3,9.2,8.6,19.2,9.9,29.8c1.3,10.7,2,20.7,2,30h-51.8C2070.8,1004.4,2068.6,990.8,2064.2,982.3z"/>
	<path d="M2228,936.4v98.2h60.4v-98.2h51.8v256.7h-51.8v-114H2228v114h-51.8V936.4H2228z"/>
</g>
</svg>
