<?xml version="1.0" encoding="utf-8"?>
<!-- Generator: Adobe Illustrator 25.3.1, SVG Export Plug-In . SVG Version: 6.00 Build 0)  -->
<svg version="1.1" id="Layer_1" xmlns="http://www.w3.org/2000/svg" xmlns:xlink="http://www.w3.org/1999/xlink" x="0px" y="0px"
	 viewBox="0 0 2340.2 1200" style="enable-background:new 0 0 2340.2 1200;" xml:space="preserve">
<style type="text/css">
	.st0{fill-rule:evenodd;clip-rule:evenodd;}
</style>
<desc>Created with Sketch.</desc>
<g id="Page-1">
	<polygon class="st0" points="290,0 261.2,355.3 256.7,410.7 252.9,364.9 223.3,0 0,0 0,662 0,1200 138.4,1200 138.4,693.3 
		180.4,1200 334,1200 374.9,693.3 374.9,1200 513.3,1200 513.3,59.1 513.3,0 	"/>
</g>
<g>
	<path d="M730.2,4.7l22.5,150.3h0.6L777.2,4.7h39.3l23.9,150.3h0.6L863.5,4.7h39.3l-37,203.3h-45.8L797.1,60.6h-0.6L773.8,208h-45.8
		l-37-203.3H730.2z"/>
	<path d="M934.5,63.8c1.4-13,4.6-24.2,9.4-33.5c4.8-9.3,11.8-16.6,20.9-21.8c9.1-5.2,21.4-7.8,36.7-7.8s27.6,2.6,36.7,7.8
		c9.1,5.2,16.1,12.5,20.9,21.8c4.8,9.3,8,20.5,9.4,33.5c1.4,13,2.1,27.2,2.1,42.6c0,15.6-0.7,29.8-2.1,42.7
		c-1.4,12.9-4.6,24-9.4,33.3c-4.8,9.3-11.8,16.4-20.9,21.4c-9.1,4.9-21.4,7.4-36.7,7.4s-27.6-2.5-36.7-7.4
		c-9.1-4.9-16.1-12.1-20.9-21.4c-4.8-9.3-8-20.4-9.4-33.3c-1.4-12.9-2.1-27.1-2.1-42.7C932.4,91,933.1,76.8,934.5,63.8z
		 M974.4,141.3c0.7,9.6,2,17.4,4,23.3c2,6,4.8,10.3,8.5,13.1c3.7,2.8,8.6,4.1,14.7,4.1c6.1,0,11-1.4,14.7-4.1
		c3.7-2.7,6.5-7.1,8.5-13.1c2-6,3.3-13.8,4-23.3c0.7-9.6,1-21.2,1-34.9c0-13.7-0.3-25.2-1-34.7c-0.7-9.5-2-17.3-4-23.3
		c-2-6.1-4.8-10.5-8.5-13.2c-3.7-2.7-8.6-4.1-14.7-4.1c-6.1,0-11,1.4-14.7,4.1c-3.7,2.8-6.5,7.2-8.5,13.2c-2,6.1-3.3,13.9-4,23.3
		c-0.7,9.5-1,21.1-1,34.7C973.4,120.1,973.7,131.7,974.4,141.3z"/>
	<path d="M1188.1,4.7c17.1,0,30.4,4.3,39.9,13c9.5,8.6,14.2,21.8,14.2,39.4c0,13.7-2.8,24.8-8.3,33.5c-5.5,8.6-14,14.2-25.6,16.7
		v0.6c10.2,1.5,17.7,4.8,22.5,10c4.7,5.1,7.7,13.4,8.8,24.8c0.4,3.8,0.7,7.9,0.9,12.4c0.2,4.5,0.4,9.4,0.6,14.9
		c0.4,10.8,0.9,19.1,1.7,24.8c1.1,5.7,3.6,9.6,7.4,11.7v1.7h-44.4c-2.1-2.8-3.4-6.1-4-9.8c-0.6-3.7-1-7.5-1.1-11.5l-1.1-39
		c-0.4-8-2.4-14.2-6-18.8c-3.6-4.6-9.7-6.8-18.2-6.8h-21.9v86h-41V4.7H1188.1z M1170.4,93.6c9.9,0,17.5-2.3,22.8-7
		c5.3-4.6,8-12.5,8-23.5c0-18.8-9.5-28.2-28.5-28.2h-19.4v58.7H1170.4z"/>
	<path d="M1329,86.2h0.6l51.8-81.4h44.4l-55.2,87.1l61.5,116.2h-46.1l-41.9-83.4l-15.1,23.1V208h-41V4.7h41V86.2z"/>
	<path d="M735.9,396.8c0,4.7,0.4,9.1,1.1,13c0.8,3.9,2.2,7.2,4.3,9.8c2.1,2.7,4.9,4.7,8.4,6.3c3.5,1.5,7.9,2.3,13.2,2.3
		c6.3,0,11.9-2,16.9-6.1c5-4.1,7.5-10.4,7.5-18.9c0-4.6-0.6-8.5-1.9-11.8c-1.2-3.3-3.3-6.3-6.1-9c-2.8-2.7-6.6-5.1-11.2-7.3
		c-4.7-2.2-10.4-4.4-17.2-6.7c-9.1-3-17-6.4-23.6-10c-6.6-3.6-12.2-7.8-16.7-12.7c-4.5-4.8-7.7-10.4-9.8-16.8
		c-2.1-6.4-3.1-13.7-3.1-22.1c0-20.1,5.6-35.1,16.8-45c11.2-9.9,26.6-14.8,46.1-14.8c9.1,0,17.5,1,25.2,3c7.7,2,14.3,5.2,19.9,9.7
		c5.6,4.5,10,10.2,13.1,17.1c3.1,6.9,4.7,15.2,4.7,24.9v5.7h-39.3c0-9.7-1.7-17.1-5.1-22.4c-3.4-5.2-9.1-7.8-17.1-7.8
		c-4.6,0-8.4,0.7-11.4,2c-3,1.3-5.5,3.1-7.3,5.3c-1.8,2.2-3,4.7-3.7,7.5c-0.7,2.8-1,5.8-1,8.8c0,6.3,1.3,11.5,4,15.8
		c2.7,4.3,8.4,8.2,17.1,11.8l31.6,13.7c7.8,3.4,14.1,7,19.1,10.7c4.9,3.7,8.9,7.7,11.8,12c2.9,4.3,5,9,6.1,14.1s1.7,10.8,1.7,17.1
		c0,21.5-6.2,37.1-18.6,46.8c-12.4,9.8-29.8,14.7-52,14.7c-23.2,0-39.7-5-49.7-15.1c-10-10.1-14.9-24.5-14.9-43.3v-8.3h41V396.8z"/>
	<path d="M987,284.6h-44.4v169.7h-41V284.6h-44.4V251H987V284.6z"/>
	<path d="M1060.5,392.8c0,5.1,0.3,9.8,1,14.1c0.7,4.3,1.9,8,3.7,11.1c1.8,3.1,4.3,5.6,7.4,7.4c3.1,1.8,7.1,2.7,11.8,2.7
		c4.9,0,8.9-0.9,12-2.7c3-1.8,5.5-4.3,7.3-7.4c1.8-3.1,3-6.8,3.7-11.1c0.7-4.3,1-9,1-14.1V251h41v141.8c0,12.9-1.8,23.6-5.4,32
		c-3.6,8.4-8.4,15.1-14.5,20.1c-6.1,4.9-13,8.3-20.8,10c-7.8,1.7-15.9,2.6-24.2,2.6c-8.4,0-16.4-0.8-24.2-2.3
		c-7.8-1.5-14.7-4.6-20.8-9.3c-6.1-4.6-10.9-11.2-14.5-19.8c-3.6-8.5-5.4-19.6-5.4-33.3V251h41V392.8z"/>
	<path d="M1261.8,251c14.2,0,25.7,2.3,34.5,7c8.7,4.7,15.5,11.3,20.4,19.9c4.8,8.6,8.1,19,9.8,31.2c1.7,12.1,2.6,25.7,2.6,40.7
		c0,17.8-1.1,33.4-3.3,46.6c-2.2,13.2-5.9,24.1-11.2,32.6c-5.3,8.5-12.4,14.9-21.4,19.1c-8.9,4.2-20.2,6.3-33.9,6.3h-64.6V251
		H1261.8z M1253.8,424.1c7.2,0,13-1.2,17.4-3.7c4.4-2.5,7.8-6.5,10.4-12.2c2.6-5.7,4.3-13.2,5.1-22.5c0.9-9.3,1.3-20.9,1.3-34.7
		c0-11.6-0.4-21.7-1.1-30.5c-0.8-8.7-2.3-16-4.7-21.8c-2.4-5.8-5.9-10.2-10.5-13.1c-4.7-2.9-10.9-4.4-18.6-4.4h-17.4v142.9H1253.8z"
		/>
	<path d="M1427.2,329.6h0.6l28.5-78.6h44.4L1448,374.3v80h-41v-80L1354.3,251h46.1L1427.2,329.6z"/>
	<path d="M735.9,643c0,4.7,0.4,9.1,1.1,13c0.8,3.9,2.2,7.2,4.3,9.8c2.1,2.7,4.9,4.7,8.4,6.3c3.5,1.5,7.9,2.3,13.2,2.3
		c6.3,0,11.9-2,16.9-6.1c5-4.1,7.5-10.4,7.5-18.9c0-4.6-0.6-8.5-1.9-11.8c-1.2-3.3-3.3-6.3-6.1-9c-2.8-2.7-6.6-5.1-11.2-7.3
		c-4.7-2.2-10.4-4.4-17.2-6.7c-9.1-3-17-6.4-23.6-10c-6.6-3.6-12.2-7.8-16.7-12.7c-4.5-4.8-7.7-10.4-9.8-16.8
		c-2.1-6.4-3.1-13.7-3.1-22.1c0-20.1,5.6-35.1,16.8-45c11.2-9.9,26.6-14.8,46.1-14.8c9.1,0,17.5,1,25.2,3c7.7,2,14.3,5.2,19.9,9.7
		c5.6,4.5,10,10.2,13.1,17.1c3.1,6.9,4.7,15.2,4.7,24.9v5.7h-39.3c0-9.7-1.7-17.1-5.1-22.4c-3.4-5.2-9.1-7.8-17.1-7.8
		c-4.6,0-8.4,0.7-11.4,2c-3,1.3-5.5,3.1-7.3,5.3c-1.8,2.2-3,4.7-3.7,7.5c-0.7,2.8-1,5.8-1,8.8c0,6.3,1.3,11.5,4,15.8
		c2.7,4.3,8.4,8.2,17.1,11.8l31.6,13.7c7.8,3.4,14.1,7,19.1,10.7c4.9,3.7,8.9,7.7,11.8,12c2.9,4.3,5,9,6.1,14.1s1.7,10.8,1.7,17.1
		c0,21.5-6.2,37.1-18.6,46.8c-12.4,9.8-29.8,14.7-52,14.7c-23.2,0-39.7-5-49.7-15.1c-10-10.1-14.9-24.5-14.9-43.3V637h41V643z"/>
	<path d="M906.5,639c0,5.1,0.3,9.8,1,14.1c0.7,4.3,1.9,8,3.7,11.1c1.8,3.1,4.3,5.6,7.4,7.4c3.1,1.8,7.1,2.7,11.8,2.7
		c4.9,0,8.9-0.9,12-2.7c3-1.8,5.5-4.3,7.3-7.4c1.8-3.1,3-6.8,3.7-11.1c0.7-4.3,1-9,1-14.1V497.2h41V639c0,12.9-1.8,23.6-5.4,32
		c-3.6,8.4-8.4,15.1-14.5,20.1c-6.1,4.9-13,8.3-20.8,10c-7.8,1.7-15.9,2.6-24.2,2.6c-8.4,0-16.4-0.8-24.2-2.3
		c-7.8-1.5-14.7-4.6-20.8-9.3c-6.1-4.6-10.9-11.2-14.5-19.8c-3.6-8.5-5.4-19.6-5.4-33.3V497.2h41V639z"/>
	<path d="M1110.3,497.2c10.4,0,19.2,1.8,26.3,5.3c7.1,3.5,12.9,8.1,17.2,13.8c4.4,5.7,7.5,12.2,9.4,19.5c1.9,7.3,2.8,14.8,2.8,22.4
		c0,10.4-1.6,19.6-4.7,27.3c-3.1,7.8-7.5,14.1-13.1,19.1c-5.6,4.9-12.4,8.6-20.4,11.1c-8,2.5-16.8,3.7-26.5,3.7h-21.9v81.1h-41
		V497.2H1110.3z M1097.8,589.2c8.2,0,14.8-2.5,19.8-7.4c5-4.9,7.5-12.6,7.5-23.1c0-10.2-2.2-18-6.5-23.3c-4.4-5.3-11.7-8-21.9-8
		h-17.1v61.8H1097.8z"/>
	<path d="M1275.5,497.2c10.4,0,19.2,1.8,26.3,5.3c7.1,3.5,12.9,8.1,17.2,13.8c4.4,5.7,7.5,12.2,9.4,19.5c1.9,7.3,2.8,14.8,2.8,22.4
		c0,10.4-1.6,19.6-4.7,27.3c-3.1,7.8-7.5,14.1-13.1,19.1c-5.6,4.9-12.4,8.6-20.4,11.1c-8,2.5-16.8,3.7-26.5,3.7h-21.9v81.1h-41
		V497.2H1275.5z M1262.9,589.2c8.2,0,14.8-2.5,19.8-7.4c5-4.9,7.5-12.6,7.5-23.1c0-10.2-2.2-18-6.5-23.3c-4.4-5.3-11.7-8-21.9-8
		h-17.1v61.8H1262.9z"/>
	<path d="M1366.7,556.3c1.4-13,4.6-24.2,9.4-33.5c4.8-9.3,11.8-16.6,20.9-21.8c9.1-5.2,21.4-7.8,36.7-7.8s27.6,2.6,36.7,7.8
		c9.1,5.2,16.1,12.5,20.9,21.8c4.8,9.3,8,20.5,9.4,33.5c1.4,13,2.1,27.2,2.1,42.6c0,15.6-0.7,29.8-2.1,42.7
		c-1.4,12.9-4.6,24-9.4,33.3c-4.8,9.3-11.8,16.4-20.9,21.4c-9.1,4.9-21.4,7.4-36.7,7.4s-27.6-2.5-36.7-7.4
		c-9.1-4.9-16.1-12.1-20.9-21.4c-4.8-9.3-8-20.4-9.4-33.3c-1.4-12.9-2.1-27.1-2.1-42.7C1364.6,583.5,1365.3,569.3,1366.7,556.3z
		 M1406.6,633.8c0.7,9.6,2,17.4,4,23.3c2,6,4.8,10.3,8.5,13.1c3.7,2.8,8.6,4.1,14.7,4.1c6.1,0,11-1.4,14.7-4.1
		c3.7-2.7,6.5-7.1,8.5-13.1c2-6,3.3-13.8,4-23.3c0.7-9.6,1-21.2,1-34.9c0-13.7-0.3-25.2-1-34.7c-0.7-9.5-2-17.3-4-23.3
		c-2-6.1-4.8-10.5-8.5-13.2c-3.7-2.7-8.6-4.1-14.7-4.1c-6.1,0-11,1.4-14.7,4.1c-3.7,2.8-6.5,7.2-8.5,13.2c-2,6.1-3.3,13.9-4,23.3
		c-0.7,9.5-1,21.1-1,34.7C1405.6,612.6,1405.9,624.2,1406.6,633.8z"/>
	<path d="M1620.3,497.2c17.1,0,30.4,4.3,39.9,13c9.5,8.6,14.2,21.8,14.2,39.4c0,13.7-2.8,24.8-8.3,33.5c-5.5,8.6-14,14.2-25.6,16.7
		v0.6c10.2,1.5,17.7,4.8,22.5,10c4.7,5.1,7.7,13.4,8.8,24.8c0.4,3.8,0.7,7.9,0.9,12.4c0.2,4.5,0.4,9.4,0.6,14.9
		c0.4,10.8,0.9,19.1,1.7,24.8c1.1,5.7,3.6,9.6,7.4,11.7v1.7h-44.4c-2.1-2.8-3.4-6.1-4-9.8c-0.6-3.7-1-7.5-1.1-11.5l-1.1-39
		c-0.4-8-2.4-14.2-6-18.8c-3.6-4.6-9.7-6.8-18.2-6.8h-21.9v86h-41V497.2H1620.3z M1602.6,586.1c9.9,0,17.5-2.3,22.8-7
		c5.3-4.6,8-12.5,8-23.5c0-18.8-9.5-28.2-28.5-28.2h-19.4v58.7H1602.6z"/>
	<path d="M1834.1,530.8h-44.4v169.7h-41V530.8h-44.4v-33.6h129.8V530.8z"/>
	<path d="M778.6,743.5c17.1,0,30.4,4.3,39.9,13c9.5,8.6,14.2,21.8,14.2,39.4c0,13.7-2.8,24.8-8.3,33.5c-5.5,8.6-14,14.2-25.6,16.7
		v0.6c10.2,1.5,17.7,4.8,22.5,10c4.7,5.1,7.7,13.4,8.8,24.8c0.4,3.8,0.7,7.9,0.9,12.4c0.2,4.5,0.4,9.4,0.6,14.9
		c0.4,10.8,0.9,19.1,1.7,24.8c1.1,5.7,3.6,9.6,7.4,11.7v1.7h-44.4c-2.1-2.8-3.4-6.1-4-9.8c-0.6-3.7-1-7.5-1.1-11.5l-1.1-39
		c-0.4-8-2.4-14.2-6-18.8c-3.6-4.6-9.7-6.8-18.2-6.8h-21.9v86h-41V743.5H778.6z M761,832.3c9.9,0,17.5-2.3,22.8-7
		c5.3-4.6,8-12.5,8-23.5c0-18.8-9.5-28.2-28.5-28.2h-19.4v58.7H761z"/>
	<path d="M992.2,777.1h-72.6v47.8h68.3v33.6h-68.3v54.7H995v33.6H878.6V743.5h113.6V777.1z"/>
	<path d="M1065.9,889.3c0,4.7,0.4,9.1,1.1,13c0.8,3.9,2.2,7.2,4.3,9.8c2.1,2.7,4.9,4.7,8.4,6.3c3.5,1.5,7.9,2.3,13.2,2.3
		c6.3,0,11.9-2,16.9-6.1c5-4.1,7.5-10.4,7.5-18.9c0-4.6-0.6-8.5-1.9-11.8c-1.2-3.3-3.3-6.3-6.1-9c-2.8-2.7-6.6-5.1-11.2-7.3
		c-4.7-2.2-10.4-4.4-17.2-6.7c-9.1-3-17-6.4-23.6-10c-6.6-3.6-12.2-7.8-16.7-12.7c-4.5-4.8-7.7-10.4-9.8-16.8
		c-2.1-6.4-3.1-13.7-3.1-22.1c0-20.1,5.6-35.1,16.8-45c11.2-9.9,26.6-14.8,46.1-14.8c9.1,0,17.5,1,25.2,3s14.3,5.2,19.9,9.7
		c5.6,4.5,10,10.2,13.1,17.1c3.1,6.9,4.7,15.2,4.7,24.9v5.7h-39.3c0-9.7-1.7-17.1-5.1-22.4c-3.4-5.2-9.1-7.8-17.1-7.8
		c-4.6,0-8.4,0.7-11.4,2c-3,1.3-5.5,3.1-7.3,5.3c-1.8,2.2-3,4.7-3.7,7.5c-0.7,2.8-1,5.8-1,8.8c0,6.3,1.3,11.5,4,15.8
		c2.7,4.3,8.4,8.2,17.1,11.8l31.6,13.7c7.8,3.4,14.1,7,19.1,10.7c4.9,3.7,8.9,7.7,11.8,12c2.9,4.3,5,9,6.1,14.1s1.7,10.8,1.7,17.1
		c0,21.5-6.2,37.1-18.6,46.8c-12.4,9.8-29.8,14.7-52,14.7c-23.2,0-39.7-5-49.7-15.1c-10-10.1-14.9-24.5-14.9-43.3v-8.3h41V889.3z"/>
	<path d="M1311.6,777.1H1239v47.8h68.3v33.6H1239v54.7h75.5v33.6H1198V743.5h113.6V777.1z"/>
	<path d="M1442.6,743.5l53.8,203.3h-42.7l-9.4-43h-54.1l-9.4,43h-42.7l53.8-203.3H1442.6z M1437.2,870.2l-19.6-91.4h-0.6l-19.6,91.4
		H1437.2z"/>
	<path d="M1603.7,743.5c17.1,0,30.4,4.3,39.9,13c9.5,8.6,14.2,21.8,14.2,39.4c0,13.7-2.8,24.8-8.3,33.5c-5.5,8.6-14,14.2-25.6,16.7
		v0.6c10.2,1.5,17.7,4.8,22.5,10c4.7,5.1,7.7,13.4,8.8,24.8c0.4,3.8,0.7,7.9,0.9,12.4c0.2,4.5,0.4,9.4,0.6,14.9
		c0.4,10.8,0.9,19.1,1.7,24.8c1.1,5.7,3.6,9.6,7.4,11.7v1.7h-44.4c-2.1-2.8-3.4-6.1-4-9.8c-0.6-3.7-1-7.5-1.1-11.5l-1.1-39
		c-0.4-8-2.4-14.2-6-18.8c-3.6-4.6-9.7-6.8-18.2-6.8H1569v86h-41V743.5H1603.7z M1586.1,832.3c9.9,0,17.5-2.3,22.8-7
		c5.3-4.6,8-12.5,8-23.5c0-18.8-9.5-28.2-28.5-28.2H1569v58.7H1586.1z"/>
	<path d="M1785.3,779.8c-3.5-6.7-9.9-10.1-19.2-10.1c-5.1,0-9.4,1.4-12.7,4.1c-3.3,2.8-5.9,7.2-7.8,13.4c-1.9,6.2-3.2,14.2-4,24.2
		c-0.8,10-1.1,22.2-1.1,36.6c0,15.4,0.5,27.8,1.6,37.3c1,9.5,2.7,16.8,4.8,22.1c2.2,5.2,4.9,8.7,8.3,10.5c3.3,1.8,7.2,2.7,11.5,2.7
		c3.6,0,7-0.6,10.1-1.9c3.1-1.2,5.8-3.7,8.1-7.4c2.3-3.7,4.1-8.9,5.4-15.7c1.3-6.7,2-15.6,2-26.6h41c0,11-0.9,21.5-2.6,31.3
		c-1.7,9.9-4.9,18.5-9.5,25.9c-4.7,7.4-11.2,13.2-19.6,17.4c-8.4,4.2-19.4,6.3-32.9,6.3c-15.4,0-27.6-2.5-36.7-7.4
		c-9.1-4.9-16.1-12.1-20.9-21.4c-4.8-9.3-8-20.4-9.4-33.3c-1.4-12.9-2.1-27.1-2.1-42.7c0-15.4,0.7-29.6,2.1-42.6
		c1.4-13,4.6-24.2,9.4-33.5c4.8-9.3,11.8-16.6,20.9-21.8c9.1-5.2,21.4-7.8,36.7-7.8c14.6,0,26.1,2.4,34.6,7.1
		c8.4,4.7,14.8,10.8,18.9,18.1c4.2,7.3,6.8,15.2,7.8,23.6c1,8.4,1.6,16.4,1.6,23.8h-41C1790.5,797.3,1788.8,786.5,1785.3,779.8z"/>
	<path d="M1914.9,743.5v77.7h47.8v-77.7h41v203.3h-41v-90.3h-47.8v90.3h-41V743.5H1914.9z"/>
	<path d="M784.5,1026.1c-3.5-6.7-9.9-10.1-19.2-10.1c-5.1,0-9.4,1.4-12.7,4.1c-3.3,2.8-5.9,7.2-7.8,13.4c-1.9,6.2-3.2,14.2-4,24.2
		c-0.8,10-1.1,22.2-1.1,36.6c0,15.4,0.5,27.8,1.6,37.3c1,9.5,2.7,16.8,4.8,22.1c2.2,5.2,4.9,8.7,8.3,10.5c3.3,1.8,7.2,2.7,11.5,2.7
		c3.6,0,7-0.6,10.1-1.9c3.1-1.2,5.8-3.7,8.1-7.4c2.3-3.7,4.1-8.9,5.4-15.7c1.3-6.7,2-15.6,2-26.6h41c0,11-0.9,21.5-2.6,31.3
		c-1.7,9.9-4.9,18.5-9.5,25.9c-4.7,7.4-11.2,13.2-19.6,17.4c-8.4,4.2-19.4,6.3-32.9,6.3c-15.4,0-27.6-2.5-36.7-7.4
		c-9.1-4.9-16.1-12.1-20.9-21.4c-4.8-9.3-8-20.4-9.4-33.3c-1.4-12.9-2.1-27.1-2.1-42.7c0-15.4,0.7-29.6,2.1-42.6
		c1.4-13,4.6-24.2,9.4-33.5c4.8-9.3,11.8-16.6,20.9-21.8c9.1-5.2,21.4-7.8,36.7-7.8c14.6,0,26.1,2.4,34.6,7.1
		c8.4,4.7,14.8,10.8,18.9,18.1c4.2,7.3,6.8,15.2,7.8,23.6c1,8.4,1.6,16.4,1.6,23.8h-41C789.7,1043.6,788,1032.8,784.5,1026.1z"/>
	<path d="M914.1,989.8v77.7H962v-77.7h41V1193h-41v-90.3h-47.8v90.3h-41V989.8H914.1z"/>
	<path d="M1139.1,989.8l53.8,203.3h-42.7l-9.4-43h-54.1l-9.4,43h-42.7l53.8-203.3H1139.1z M1133.7,1116.5l-19.6-91.4h-0.6
		l-19.6,91.4H1133.7z"/>
	<path d="M1321.3,1129h0.6V989.8h37.6V1193h-46.7l-50.1-142.4h-0.6V1193h-37.6V989.8h47.3L1321.3,1129z"/>
	<path d="M1494.3,1038.4c-0.9-4-2.2-7.6-4.1-11c-1.9-3.3-4.3-6.1-7.3-8.3c-2.9-2.2-6.5-3.3-10.7-3.3c-9.9,0-17,5.5-21.4,16.5
		c-4.4,11-6.5,29.2-6.5,54.7c0,12.1,0.4,23.2,1.1,33c0.8,9.9,2.1,18.3,4.1,25.2c2,6.9,4.8,12.2,8.5,15.9c3.7,3.7,8.5,5.6,14.4,5.6
		c2.5,0,5.2-0.7,8.1-2c2.9-1.3,5.7-3.3,8.3-6c2.6-2.7,4.7-6,6.4-10.1c1.7-4.1,2.6-8.9,2.6-14.4v-20.8h-27v-30.2h66.3V1193h-30.2
		v-18.8h-0.6c-4.9,8-10.9,13.6-17.8,16.9c-6.9,3.3-15.2,5-24.9,5c-12.5,0-22.7-2.2-30.6-6.5c-7.9-4.4-14-11.1-18.5-20.2
		c-4.5-9.1-7.5-20.4-9-33.7c-1.5-13.4-2.3-28.9-2.3-46.6c0-17.1,1.1-32.1,3.3-45c2.2-12.9,5.9-23.7,11.2-32.3
		c5.3-8.6,12.3-15.1,21.1-19.5c8.7-4.4,19.6-6.5,32.7-6.5c22.4,0,38.5,5.6,48.4,16.7c9.9,11.1,14.8,27,14.8,47.7h-39.3
		C1495.6,1046.3,1495.1,1042.4,1494.3,1038.4z"/>
	<path d="M1694.6,1023.3H1622v47.8h68.3v33.6H1622v54.7h75.5v33.6H1581V989.8h113.6V1023.3z"/>
	<path d="M1823,989.8h41V1193h-41V989.8z"/>
	<path d="M2030.8,1023.3h-44.4V1193h-41v-169.7H1901v-33.6h129.8V1023.3z"/>
	<path d="M2078.4,1193h-37.6v-44.4h37.6V1193z"/>
</g>
</svg>
