<?xml version="1.0" encoding="utf-8"?>
<!-- Generator: Adobe Illustrator 22.0.0, SVG Export Plug-In . SVG Version: 6.00 Build 0)  -->
<svg version="1.1" id="Layer_1" xmlns="http://www.w3.org/2000/svg" xmlns:xlink="http://www.w3.org/1999/xlink" x="0px" y="0px"
	 viewBox="0 0 669 213" style="enable-background:new 0 0 669 213;" xml:space="preserve">
<style type="text/css">
	.st0{fill:#111517;}
</style>
<g>
	<path class="st0" d="M261.6,104.3v46.2c0,19-7.8,27.8-24.5,27.8c-19.4,0-23.4-15.1-23.4-27.8v-46.2H208v46.2
		c0,21.8,9.8,32.8,29.1,32.8c20,0,30.2-11,30.2-32.8v-46.2h-0.5H261.6z"/>
	<path class="st0" d="M303.8,124.3c-8.7,0-16.2,4.7-19.4,11.7c0-2.6,0-10.4,0-10.4h-5v55.8h5v-30.2c0-13.7,7.6-22.5,19.3-22.5
		c15.1,0,15.1,13.1,15.1,17.5v35.2h5V147C323.8,140.8,323.8,124.3,303.8,124.3z"/>
	<polygon class="st0" points="336.2,125.6 336.2,181.5 341.2,181.5 341.2,125.6 340.8,125.6 	"/>
	<polygon class="st0" points="336.2,108.5 336.2,116.1 341.2,116.1 341.2,108.5 340.8,108.5 	"/>
	<path class="st0" d="M390.9,125.6c0,0-17.7,47.9-18.4,49.6c-0.7-1.7-19.6-49.6-19.6-49.6h-5.7l22.5,55.8h5.7l21.1-55.8h-0.7
		C395.8,125.6,390.9,125.6,390.9,125.6z"/>
	<path class="st0" d="M423.7,124.3c-6.5,0-12.2,2.3-16.4,6.6c-5.4,5.5-8.4,14.1-8.3,23.6c-0.1,8.8,2.6,16.4,7.6,21.5
		c4.3,4.4,10.2,6.7,17.1,6.7c13.4,0,22-7.2,24.2-20.3l0.1-0.6h-5l-0.1,0.4c-1.9,10-9.1,15.9-19.2,15.9c-5.3,0-9.7-1.8-13.1-5.3
		c-4.2-4.3-6.6-10.9-6.6-18.3v-0.1c0.9,0,44.3,0,44.3,0v-0.5c0-0.7,0-1.4,0-2.1c0-8.5-2.5-15.9-7.2-20.8
		C436.8,126.6,430.9,124.3,423.7,124.3z M423.7,128.8c12.4,0,19.2,10.6,19.6,21.3c-1,0-38.1,0-39.2,0
		C405.1,139.4,412.1,128.8,423.7,128.8z"/>
	<path class="st0" d="M462.3,136.7c0-2.4,0-11.1,0-11.1h-5v55.8h5V151c0.4-8.4,2.2-11.5,6.1-15.5c5.9-5.8,12.8-5.4,14.8-5.2l0.5,0.1
		v-5h-0.5C474,124.9,465.3,129.8,462.3,136.7z"/>
	<path class="st0" d="M510.1,150.5l-1.7-0.4c-8.3-1.8-16.2-3.4-16.2-11.2c0-7.4,7.9-10.1,15.3-10.1c5.8,0,15.6,1.7,15.8,13.5v0.5h5
		v-0.5c0-11.6-7.4-18-20.8-18c-4.8,0-20.3,1.1-20.3,14.6c0,12.2,11.1,14.4,19.3,16.1l1.4,0.3c8.7,1.8,17,3.4,17,11.8
		c0,10.1-11.8,11.2-16.9,11.2c-10.1,0-17.1-6.1-17.7-15.6v-0.5h-5v0.5c0.3,12.3,9,20,22.7,20c5.1,0,21.9-1.1,21.9-15.6
		C529.9,155.2,520.9,152.5,510.1,150.5z"/>
	<polygon class="st0" points="540.1,125.6 540.1,181.5 545.1,181.5 545.1,125.6 544.7,125.6 	"/>
	<path class="st0" d="M566.7,125.6c0-0.9,0-17.1,0-17.1h-0.5h-4.5c0,0,0,16.2,0,17.1c-0.9,0-10.1,0-10.1,0v4.5c0,0,9.3,0,10.1,0
		c0,0.9,0,37.8,0,37.8c0,0.3,0,0.6,0,1c0,4.3,1.1,7.4,3.2,9.5c3.3,3.2,8.8,3.3,13.2,3h0.4V177H578c-4.5,0.1-7.5-0.1-9.3-1.9
		c-1.4-1.4-2.1-3.6-2.1-7.1c0,0,0-36.9,0-37.8c0.8,0,10.9,0,13.9,0c5.5,13,21.2,50.3,21.3,50.6c-2.5,7-4,11-5.5,12.6
		c-2.6,2.6-5.2,3.4-11.1,3.4h-0.5v4.5h0.5c6.1,0,10-0.2,13.1-2.5c2.4-1.8,4.1-5.7,6.6-11.5l23.7-61.4h-0.7H623
		c0,0-17.7,47.1-18.5,49.2c-0.9-2.1-20.1-49.2-20.1-49.2h-17.7V125.6z"/>
	<polygon class="st0" points="540.1,108.5 540.1,116.1 545.1,116.1 545.1,108.5 544.7,108.5 	"/>
	<path class="st0" d="M334.7,91.7c-22.2-0.5-40.8-17.5-40.3-41c0.6-18.5,15.5-39.6,42.6-38.8c18.9,0.3,40,14.5,39.5,40.6
		C375.9,78.6,353.8,92.3,334.7,91.7z M335.5,16.7c-16.9,0-28.7,12.5-28.7,33.4c0,25,14.9,36.4,28.9,36.4c16.9,0,28.1-13,28.1-33.6
		C364.1,30.8,352.7,16.7,335.5,16.7z"/>
	<path class="st0" d="M660.7,14v-1.1h-22.2V14c4.4,0.3,5.6,1.2,5.6,7.4v27.1h-39.8V21.4c0-6.2,1.2-7.1,5.6-7.4v-1.1h-22.2V14
		c4.4,0.3,5.6,1.2,5.6,7.4v60.8c0,6.2-1.2,7.1-5.6,7.4v1.1H610v-1.1c-4.4-0.3-5.6-1.2-5.6-7.4v-29h39.8v29c0,6.2-1.2,7.1-5.6,7.4
		v1.1h22.2v-1.1c-4.4-0.3-5.6-1.2-5.6-7.4V21.4C655.1,15.2,656.4,14.3,660.7,14z"/>
	<path class="st0" d="M382.3,12.9V14c4.3,0.2,5.5,0.7,5.5,5.2v63c0,6.2-1.2,7.1-5.6,7.4v1.1H399v-1.1c-4.4-0.3-5.6-1.2-5.6-7.4V25.6
		c0,1,43.3,53.7,52.6,65h1.8V19.2c0-4.5,1.2-5,5.5-5.2v-1.1h-16.5V14c4.3,0.2,5.5,0.7,5.5,5.2v49.4l-45.2-55.7
		C397.1,12.9,382.3,12.9,382.3,12.9z"/>
	<path class="st0" d="M491.4,12.9h-1.5c-3.9,9.3-22.1,52.4-28.5,67.3c-1.1,2.5-2.9,6.7-4.2,8.1c-1,1.1-2,1.2-2.9,1.3v1.1h14.8v-1.1
		c-1.2,0-3.7,0-3.9-2.2c0-0.7,0.1-1.4,0.4-2.3c0.5-1.4,3.4-8.9,7.2-17.5h29.6c2.9,7.2,5.6,13.4,6.8,16.2l0,0
		c0.3,0.8,1.1,2.7,1.1,3.6c0,2.1-1.9,2.2-4,2.2v1.1H527v-1.1c-2.5-0.2-3.4-0.8-5.2-5L491.4,12.9z M474.7,62.7
		c5-12.3,12.8-32,12.8-32s7,17.6,12.9,32H474.7z"/>
	<path class="st0" d="M204,12.9V14c2.4,0.1,3.8,0.4,4.6,1.3c0.2,0.4,0.5,0.7,0.6,1.2l0,0c0.1,0.4,0.2,0.8,0.2,1.2
		c0,0.4,0.1,0.9,0.1,1.5v63c0,6.2-1.2,7.1-5.6,7.4v1.1h16.6v-1.1c-4.4-0.3-5.6-1.2-5.6-7.4V28.3c0-1-0.2-3-0.2-3l1,3l26.8,62.1h1.6
		l27.4-64l0.8-2.6c0,0-0.2,1.3-0.2,2.4v56c0,6.2-1.2,7.1-5.6,7.4v1.1h22.2v-1.1c-4.4-0.3-5.6-1.2-5.6-7.4v-63c0-4.5,1.2-5,5.5-5.2
		v-1.1h-17.3l-24.8,58.7l-25.2-58.7C221.3,12.9,204,12.9,204,12.9z"/>
	<path class="st0" d="M530.8,85.5c5.2,3.1,12.9,6.4,21.1,6.4c0.2,0,0.3,0,0.5,0c12.1-0.2,24.9-9.2,24.9-23.3
		c0-15.3-10.7-18.9-21.6-24.5c-11-5.4-15.5-8.1-15.5-15.3c0-4.9,3-12.1,12.7-12.1c3.1,0,5.8,0.8,8.2,2c7.9,4.4,8.3,10.5,9.3,14.5
		h1.1l-0.7-17.3c-5-2.1-9-3-11.8-3.4c-1.7-0.2-3.2-0.3-4.5-0.3c-10.9,0-23.7,6.5-23.7,20.2c0,9.4,5.6,15.2,16.7,20.7
		c11,5.6,19.3,7.8,19.3,18.8c0,5.6-3.2,15.3-15.5,15.3c-4.9,0-8.9-1.7-12-4.3c-7.3-6.9-7.2-12.4-7.7-14.4h-1.1L530.8,85.5"/>
	<path class="st0" d="M146.1,72.5V12.6H29.4v59.9h-0.1c0,3.2-0.3,27.8,15.1,53.2c13.8,23,34.5,33.1,43.3,36.3
		c8.9-3.2,29.5-13.3,43.3-36.3C146.4,100.3,146.1,75.7,146.1,72.5z M136.2,38.9c0,0.8-0.2,1.6-0.5,2.3c-0.2,0.4-0.5,0.8-0.9,1.2
		c-0.5,0.2-1,0.5-1.4,0.9c0-0.2-0.1-0.4-0.1-0.6c0-0.9,0.2-1.6,0.6-2.3c0.5-0.9,1.3-1.6,2.2-2.1C136.1,38.4,136.2,38.7,136.2,38.9z
		 M126.7,54.7c1-0.1,2.1,0.1,3,0.5c-0.7,0.8-1.6,1.3-2.7,1.4c-1,0.2-2.1-0.1-3.1-0.5C124.8,55.4,125.7,54.9,126.7,54.7z M121.7,56.3
		c0-0.1,0-0.2,0-0.2c0-1,0.3-1.9,0.8-2.7c0.5-0.8,1.3-1.4,2.3-1.9c0,0.1,0,0.2,0,0.3c0,1-0.3,1.8-0.7,2.6
		C123.5,55.3,122.7,55.9,121.7,56.3z M125.6,50.9c0.3-0.6,0.9-1.1,1.5-1.6c0.1,0.5,0.3,0.9,0.3,1.4s-0.1,1-0.3,1.5
		c-0.2,0.7-0.7,1.3-1.2,1.8c-0.2,0.1-0.4,0.1-0.6,0.2v-0.1C125.6,53.1,125.7,52,125.6,50.9z M127.7,48.4c0.2-0.7,0.6-1.3,1.1-1.9
		c0.4,0.8,0.7,1.6,0.7,2.5c0,0.1,0,0.3,0,0.4c0,0.7-0.3,1.4-0.7,2.1c-0.2,0.1-0.4,0.2-0.6,0.4c0,0,0-0.1-0.1-0.1
		C128.3,50.6,128.2,49.5,127.7,48.4z M129.3,45.4c0-0.7,0.2-1.4,0.5-2.1c0.7,0.8,1.2,1.6,1.4,2.6c0,0.2,0,0.4,0,0.7
		c0,0.5-0.1,1-0.3,1.5c-0.2,0.2-0.3,0.3-0.5,0.5l-0.1-0.1C130.3,47.5,129.9,46.4,129.3,45.4z M130,42.2c-0.1-0.3-0.1-0.7-0.1-1
		s0.1-0.7,0.2-1.1c0.9,0.6,1.6,1.3,2,2.2c0.2,0.6,0.3,1.2,0.3,1.8c0,0.1,0,0.2,0,0.3c-0.2,0.2-0.3,0.4-0.4,0.7l-0.1-0.1
		C131.5,44,130.9,43,130,42.2z M130.1,39c-0.3-0.7-0.5-1.4-0.5-2.2c1,0.4,1.9,1,2.4,1.7c0.4,0.6,0.7,1.3,0.8,2
		c-0.1,0.2-0.2,0.5-0.2,0.7c-0.1,0-0.1,0-0.2,0C131.9,40.3,131.1,39.5,130.1,39z M132.4,37.4c-0.1,0-0.1,0-0.2,0
		c-0.7-0.7-1.7-1.3-2.8-1.6c-0.4-0.6-0.7-1.2-0.9-1.9c1,0.1,1.9,0.4,2.7,1.1c0.5,0.4,1,1.1,1.2,1.8
		C132.4,36.9,132.4,37.2,132.4,37.4z M131.1,33.7c-0.9-0.6-1.9-0.9-3.1-0.9c-0.6-0.5-1-1-1.4-1.7c1.1-0.1,2.1,0,3,0.5
		c0.6,0.3,1.1,0.8,1.5,1.4C131.1,33.2,131.2,33.5,131.1,33.7L131.1,33.7z M129.1,54c-0.5-0.1-1-0.2-1.6-0.2c0.6-0.8,1.3-1.5,2.2-1.9
		c1-0.4,2-0.4,3.1-0.2c-0.6,0.9-1.4,1.6-2.3,2C130,53.9,129.6,54,129.1,54z M131.9,50.6c-0.5,0-1.1,0-1.6,0.1
		c0.4-0.9,0.9-1.8,1.8-2.4c0.8-0.6,1.9-0.9,3-0.9c-0.4,1.1-1,2-1.8,2.6C132.8,50.3,132.4,50.5,131.9,50.6z M135,45.8
		c-0.3,0.4-0.7,0.7-1.2,0.9c-0.5,0.1-1,0.3-1.5,0.5c0.1-1,0.5-2,1.1-2.8c0.7-0.7,1.6-1.2,2.6-1.5C135.9,44,135.6,45,135,45.8z
		 M135.5,35.5c0,0.4,0,0.8-0.1,1.2c-0.1,0.5-0.3,0.9-0.6,1.3c-0.4,0.3-0.8,0.7-1.1,1.1c-0.2-0.6-0.4-1.2-0.4-1.8
		c0-0.4,0.1-0.8,0.2-1.2c0.3-1,0.9-1.8,1.7-2.6C135.3,34.3,135.5,34.9,135.5,35.5z M132.9,29.4c0.6,0.9,1,1.9,1,2.9
		c0,0.5-0.1,1-0.3,1.4c-0.3,0.4-0.6,0.9-0.8,1.3c-0.5-0.8-0.9-1.7-0.9-2.7S132.3,30.3,132.9,29.4z M129.8,25.8
		c0.8,0.7,1.4,1.6,1.7,2.6c0.1,0.4,0.1,0.7,0.1,1.1c0,0.1,0,0.2,0,0.3c-0.2,0.5-0.4,1-0.5,1.6c-0.7-0.7-1.3-1.6-1.5-2.5
		c-0.1-0.4-0.1-0.7-0.1-1.1C129.5,27.1,129.6,26.4,129.8,25.8z M129.3,30.4L129.3,30.4c-1.1-0.4-2.3-0.4-3.4-0.2
		c-0.6-0.3-1.3-0.8-1.8-1.3c1-0.4,2.1-0.5,3-0.2c0.7,0.2,1.3,0.5,1.9,1C129.1,29.9,129.2,30.2,129.3,30.4z M126.1,23
		c1,0.5,1.8,1.2,2.2,2.2c0.2,0.4,0.3,0.9,0.4,1.3c-0.1,0.6-0.2,1.1-0.1,1.7c-0.9-0.5-1.7-1.2-2.1-2.1c-0.3-0.7-0.5-1.4-0.5-2.3
		C126,23.5,126.1,23.2,126.1,23z M125,25c0.1,0.1,0.2,0.2,0.3,0.3c0.1,0.4,0.2,0.8,0.4,1.2c0.2,0.4,0.4,0.7,0.7,1.1
		c-1-0.1-1.9-0.4-2.6-0.9c-0.8-0.6-1.4-1.5-1.7-2.5C123.2,24.1,124.1,24.4,125,25z M111.1,47.3c0.6,0,1.1,0.5,1.1,1.2
		c0,0.2-0.1,0.4-0.1,0.5c-0.1,0.2-0.2,0.4,0.3,0.4h1.6V29.5c0-2.7,0.2-5.9,1.8-9.1l0.5-0.9l0.4,0.9c1.5,3.2,1.7,6.4,1.7,9.1v19.8
		h1.6c0.4,0,0.4-0.2,0.3-0.4c-0.1-0.1-0.1-0.3-0.1-0.5c0-0.7,0.5-1.2,1.2-1.2c0.7,0,1.2,0.6,1.2,1.2c0,0.8-0.6,1.7-2.1,1.7h-2.6
		c0.4,1,0.6,2.3,0.6,3.8c0,1.9-0.4,3.5-0.9,4.5c1.9-0.3,3.4-0.8,4.8-1.5l0.1-0.1l0.4,0.8l-0.1,0.1c-1.2,0.7-2.5,1-3.9,1.3
		c0,0-1.1,0.2-1.8,0.3c0.2,0.2,0.3,0.5,0.3,0.8c0,0.6-0.5,1.1-1.1,1.1c-0.6,0-1.1-0.5-1.1-1.1c0-0.3,0.1-0.6,0.3-0.8
		c-0.8-0.1-1.9-0.3-1.9-0.3c-1.4-0.3-2.6-0.7-3.8-1.3l-0.1-0.1l0.4-0.8l0.1,0.1c1.4,0.7,2.9,1.2,4.9,1.5c-0.6-1-0.9-2.6-0.9-4.5
		c0-1.4,0.2-2.8,0.6-3.8h-2.6c-1.4,0-2-0.9-2-1.7C109.9,47.9,110.5,47.3,111.1,47.3z M107,54.1c-0.2,0-0.4-0.1-0.6-0.1
		c-0.6-0.5-1-1.1-1.1-1.8c-0.2-0.5-0.3-1-0.3-1.5c0-0.4,0.2-0.9,0.3-1.4c0.5,0.5,1,1,1.4,1.6C106.5,52,106.6,53.1,107,54.1z
		 M104.3,32.8c-1.2,0-2.3,0.4-3.2,0.9H101c0.1-0.2,0.1-0.5,0.1-0.7c0.4-0.6,1-1.1,1.6-1.4c0.9-0.5,1.9-0.6,2.9-0.5
		C105.3,31.7,104.9,32.3,104.3,32.8z M104.2,51.7c-0.3,0-0.5-0.2-0.7-0.3c-0.4-0.6-0.7-1.3-0.8-2.1c0-0.1,0-0.3,0-0.4
		c0-0.9,0.3-1.7,0.7-2.5c0.5,0.6,0.9,1.2,1.1,1.9C104.1,49.5,104,50.6,104.2,51.7z M101,46c0.2-1,0.7-1.8,1.4-2.6
		c0.3,0.7,0.6,1.4,0.6,2.1c-0.7,1-1.1,2-1.1,3.1l-0.1,0.1c-0.2-0.2-0.3-0.4-0.5-0.5c-0.2-0.5-0.3-1-0.3-1.5
		C101,46.4,101,46.2,101,46z M100.3,45c-0.2-0.1-0.3-0.3-0.5-0.6c0-0.1,0-0.2,0-0.3c0-0.6,0.1-1.2,0.4-1.8c0.4-0.9,1.1-1.6,2-2.2
		c0.1,0.4,0.2,0.8,0.2,1.1s0,0.7-0.1,1C101.3,43,100.7,44,100.3,45z M103.7,33.8c-0.2,0.7-0.5,1.4-0.9,1.9c-1.1,0.3-2.1,0.9-2.8,1.6
		c-0.1,0-0.1,0-0.2,0c0-0.2,0-0.5,0-0.7c0.3-0.6,0.7-1.3,1.2-1.7C101.7,34.3,102.7,33.9,103.7,33.8z M100.2,38.5
		c0.6-0.8,1.4-1.3,2.5-1.7c0,0.8-0.2,1.5-0.5,2.2c-1,0.5-1.9,1.3-2.4,2.2c0,0-0.1,0-0.1,0.1c-0.1-0.2-0.1-0.5-0.2-0.7
		C99.5,39.8,99.7,39.1,100.2,38.5z M99.9,47.2c-0.4-0.2-0.9-0.4-1.4-0.5c-0.4-0.3-0.8-0.6-1.2-0.9c-0.7-0.8-1-1.7-1.2-2.8
		c1.1,0.3,2,0.8,2.7,1.5C99.4,45.2,99.7,46.2,99.9,47.2z M100.2,48.4c0.8,0.6,1.4,1.4,1.8,2.4c-0.5-0.1-1.1-0.2-1.6-0.1
		c-0.5-0.2-0.9-0.3-1.2-0.6c-0.8-0.6-1.4-1.5-1.8-2.6C98.4,47.5,99.4,47.8,100.2,48.4z M102.5,51.9c0.9,0.4,1.7,1.1,2.3,1.9
		c-0.5,0-1,0.1-1.6,0.2c-0.5,0-1-0.1-1.4-0.3c-1-0.4-1.7-1.1-2.3-2C100.5,51.5,101.5,51.5,102.5,51.9z M105.5,54.7
		c1,0.2,1.9,0.7,2.7,1.4c-1,0.4-2,0.7-3,0.5c-1-0.2-1.9-0.7-2.7-1.4C103.5,54.8,104.5,54.6,105.5,54.7z M107.5,51.8
		c0-0.1,0-0.2,0-0.3c1,0.4,1.8,1,2.4,1.9c0.5,0.8,0.7,1.7,0.7,2.7c0,0.1,0,0.2,0,0.2c-1-0.4-1.9-1-2.4-1.9
		C107.7,53.6,107.5,52.8,107.5,51.8z M106.9,25.2c0.1-0.1,0.2-0.2,0.3-0.3c0.9-0.6,1.9-0.9,3-0.9c-0.4,1-1,1.9-1.8,2.5
		c-0.8,0.5-1.7,0.8-2.6,0.9c0.2-0.2,0.5-0.6,0.7-1C106.7,26,106.8,25.7,106.9,25.2z M104,25.2c0.5-1,1.3-1.7,2.2-2.2
		c0,0.2,0.1,0.5,0.1,0.8c0,0.8-0.2,1.6-0.5,2.3c-0.4,0.9-1.1,1.5-2,2.1c0-0.6,0-1.1-0.1-1.7C103.6,26,103.7,25.6,104,25.2z
		 M103.3,29.7c0.6-0.5,1.2-0.8,1.9-1c0.9-0.2,1.9-0.1,2.9,0.2c-0.5,0.5-1.1,1-1.8,1.3c-1.1-0.2-2.2-0.2-3.2,0.2H103
		C103.1,30.2,103.2,29.9,103.3,29.7z M100.7,28.4c0.2-1,0.8-1.9,1.7-2.6c0.2,0.6,0.4,1.3,0.4,2c0,0.4,0,0.7-0.1,1.1
		c-0.2,0.9-0.8,1.8-1.5,2.5c-0.1-0.5-0.3-1.1-0.5-1.6c0-0.1,0-0.2,0-0.3C100.6,29.1,100.6,28.8,100.7,28.4z M99.4,29.4
		c0.6,0.9,1,1.9,1,2.9s-0.4,1.9-0.9,2.8c-0.2-0.5-0.4-0.9-0.8-1.3c-0.2-0.5-0.3-1-0.3-1.5C98.4,31.3,98.8,30.3,99.4,29.4z
		 M97.2,33.6c0.8,0.7,1.4,1.6,1.7,2.6C99,36.6,99,37,99,37.4c0,0.6-0.1,1.2-0.4,1.8c-0.3-0.4-0.7-0.8-1.1-1.1
		c-0.3-0.4-0.5-0.9-0.6-1.3c-0.1-0.4-0.1-0.8-0.1-1.2C96.8,34.9,96.9,34.3,97.2,33.6z M96.1,38.2c1,0.5,1.8,1.2,2.3,2.1
		c0.4,0.7,0.6,1.5,0.6,2.3c0,0.2,0,0.4-0.1,0.6c-0.4-0.3-0.9-0.6-1.4-0.9c-0.4-0.3-0.7-0.7-0.9-1.2c-0.4-0.7-0.6-1.5-0.6-2.3
		C96,38.7,96.1,38.4,96.1,38.2z M58.2,24.9v-1c0.8-0.7,2-1.3,4.3-1.4c1.6,0,3.5,0.4,5.4,0.9c2.2,0.6,4.5,1.1,6.8,1
		c0,0.1,0,0.3,0,0.6c0,3.9,0,25.7,0,26.8c-2.2,0.2-4.4-0.4-6.5-0.9c-2-0.5-3.9-1-5.8-1c-1.7,0.1-3,0.5-4.2,1.2V24.9z M40.5,25.1
		c0-0.3,0-0.5,0-0.6c2.4,0.1,4.6-0.4,6.8-1c2-0.5,3.7-1,5.4-0.9c2.3,0.1,3.5,0.7,4.3,1.4v1v26.2c-1.1-0.8-2.5-1.1-4.2-1.2
		c-1.9-0.1-3.8,0.4-5.8,1c-2.1,0.5-4.3,1.1-6.5,0.9C40.5,50.9,40.5,29,40.5,25.1z M36.3,25h2.4l-0.2,0.6c0,0.1,0,0.1,0,0.2V54
		c2.8,0,16.8,0,17.6,0c0.3,0.5,0.7,0.6,1.4,0.6c0.8,0,1.2-0.1,1.5-0.6c0.9,0,16.1,0,17.5,0V25.8c0-0.1,0-0.2,0-0.2L76.4,25h1.8h0.4
		v31.2c0,0-18.2,0-18.8,0c-0.4,0.8-1.2,1.4-2.4,1.4c-1.1,0-1.9-0.7-2.3-1.4c-0.5,0-18.8,0-18.8,0V25z M71.5,121.9l-0.1,4l-3.2-2.4
		l-3.2,2.4l-0.1-4l-3.9-1l3.1-2.5l-1.6-3.7l3.9,0.8l1.8-3.6l1.8,3.6l4-0.8l-1.7,3.7l3.1,2.5L71.5,121.9z M93.5,150.3l-4-1.5
		l-1.8,3.9l-1.7-3.9l-4.1,1.5l1.5-4l-3.8-1.9l3.8-1.7l-1.5-4.1l4.1,1.5l1.7-3.9l1.8,3.9l4-1.5l-1.4,4.1l3.8,1.8l-3.8,1.8L93.5,150.3
		z M81.8,96.2l4,0.9l1.8-3.6l1.8,3.6l4-0.9l-1.6,3.7l3,2.6l-3.9,1l-0.1,4l-3.2-2.4l-3.2,2.4v-4l-3.9-1l3.1-2.6L81.8,96.2z
		 M97.8,128.9l-3.1-1.5l-3.1,1.5l0.6-3.4l-2.5-2.5l3.4-0.5l1.6-3.1l1.6,3.1l3.4,0.5l-2.4,2.5L97.8,128.9z M110.6,116.2H107l-1.7,3.1
		l-1.8-3.1h-3.6l1.9-3l-1.9-3.1l3.6,0.1l1.8-3.1l1.7,3.1l3.6-0.1l-1.9,3.1L110.6,116.2z M132.1,118.5L87.6,78.6l-44.4,39.9
		c-3-5.6-5.1-11-6.7-16.2l51.1-46l51.2,46C137.1,107.5,135,112.9,132.1,118.5z"/>
	<path class="st0" d="M117.4,29.5c0-2.3-0.2-4.9-1.2-7.5v26.1h1.2V29.5z"/>
	<path class="st0" d="M62.5,29.2c-1,0-1.9,0.2-2.6,0.4V31c0.7-0.3,1.5-0.5,2.7-0.5c1.6,0,3.4,0.4,5.3,0.9c1.6,0.4,3.3,0.8,5.1,1
		v-1.3c-1.6-0.1-3.3-0.5-4.8-1C66.2,29.6,64.3,29.1,62.5,29.2z"/>
	<path class="st0" d="M62.5,45.1c-1,0-1.9,0.2-2.6,0.4v1.4c0.7-0.3,1.5-0.5,2.7-0.5c1.6-0.1,3.4,0.4,5.3,0.9c1.6,0.4,3.3,0.8,5.1,1
		V47c-1.6-0.1-3.3-0.5-4.8-0.9C66.2,45.5,64.3,45,62.5,45.1z"/>
	<path class="st0" d="M62.5,41.9c-1,0-1.9,0.2-2.6,0.4v1.4c0.7-0.3,1.5-0.5,2.7-0.5c1.6-0.1,3.4,0.4,5.3,0.9c1.6,0.4,3.3,0.8,5.1,1
		v-1.3c-1.6-0.1-3.3-0.5-4.8-1C66.2,42.3,64.3,41.8,62.5,41.9z"/>
	<path class="st0" d="M62.5,32.4c-1,0-1.9,0.2-2.6,0.4v1.4c0.7-0.3,1.5-0.5,2.7-0.5c1.6-0.1,3.4,0.4,5.3,0.9c1.6,0.4,3.3,0.8,5.1,1
		v-1.3c-1.6-0.1-3.3-0.5-4.8-0.9C66.2,32.8,64.3,32.3,62.5,32.4z"/>
	<path class="st0" d="M62.5,38.7c-1,0-1.9,0.1-2.6,0.4v1.4c0.7-0.3,1.5-0.4,2.7-0.5c1.6-0.1,3.4,0.4,5.3,0.9c1.6,0.4,3.3,0.8,5.1,1
		v-1.3c-1.6-0.1-3.3-0.5-4.8-0.9C66.2,39.2,64.3,38.7,62.5,38.7z"/>
	<path class="st0" d="M68.2,26.9c-2-0.5-3.9-1-5.7-0.9c-1,0-1.9,0.2-2.6,0.4v1.4c0.7-0.3,1.5-0.5,2.7-0.5c1.6-0.1,3.4,0.4,5.3,0.9
		c1.6,0.4,3.3,0.8,5.1,1v-1.3C71.4,27.7,69.7,27.3,68.2,26.9z"/>
	<path class="st0" d="M47,42.8c-1.6,0.4-3.2,0.8-4.8,0.9V45c1.8-0.1,3.4-0.6,5.1-1c1.9-0.5,3.7-0.9,5.3-0.9c1.1,0,2,0.2,2.7,0.5
		v-1.4c-0.8-0.2-1.6-0.4-2.7-0.4C50.9,41.8,49.1,42.3,47,42.8z"/>
	<path class="st0" d="M47.1,39.7c-1.6,0.4-3.2,0.8-4.8,1V42c1.8-0.1,3.4-0.6,5.1-1c1.9-0.5,3.7-0.9,5.3-0.9c1.1,0,2,0.2,2.7,0.5
		v-1.4c-0.8-0.2-1.7-0.4-2.7-0.4C50.9,38.7,49.1,39.2,47.1,39.7z"/>
	<path class="st0" d="M62.5,35.5c-1,0-1.9,0.2-2.6,0.4v1.4c0.7-0.2,1.5-0.5,2.7-0.5c1.6-0.1,3.4,0.4,5.3,0.9
		c1.6,0.4,3.3,0.8,5.1,0.9v-1.3c-1.6-0.1-3.3-0.5-4.8-1C66.2,36,64.3,35.5,62.5,35.5z"/>
	<path class="st0" d="M47,46c-1.6,0.4-3.2,0.8-4.8,0.9v1.3c1.8-0.1,3.4-0.6,5.1-1c1.9-0.5,3.7-0.9,5.3-0.9c1.1,0,2,0.2,2.7,0.5v-1.4
		c-0.8-0.2-1.7-0.4-2.7-0.4C50.9,45,49.1,45.5,47,46z"/>
	<path class="st0" d="M47,26.9c-1.6,0.4-3.1,0.8-4.8,0.9v1.3c1.8-0.1,3.4-0.5,5.1-1c1.9-0.5,3.7-0.9,5.3-0.9c1.1,0,2,0.2,2.7,0.5
		v-1.4c-0.8-0.2-1.6-0.4-2.6-0.4C50.9,26,49.1,26.4,47,26.9z"/>
	<path class="st0" d="M47,30.1c-1.6,0.4-3.1,0.8-4.8,1v1.3c1.8-0.1,3.4-0.5,5.1-1c1.9-0.5,3.7-0.9,5.3-0.9c1.1,0,2,0.2,2.7,0.5v-1.4
		c-0.8-0.2-1.7-0.4-2.7-0.4C50.9,29.1,49.1,29.6,47,30.1z"/>
	<path class="st0" d="M47,36.5c-1.6,0.4-3.2,0.8-4.8,0.9v1.3c1.8-0.1,3.4-0.5,5.1-0.9c1.9-0.5,3.7-0.9,5.3-0.9c1.1,0,2,0.2,2.7,0.5
		V36c-0.8-0.3-1.6-0.4-2.6-0.4C50.9,35.5,49.1,36,47,36.5z"/>
	<path class="st0" d="M47.1,33.3c-1.6,0.4-3.2,0.8-4.8,0.9v1.3c1.8-0.1,3.4-0.5,5.1-1c1.9-0.5,3.7-0.9,5.3-0.9c1.1,0,2,0.2,2.7,0.5
		v-1.4c-0.8-0.2-1.6-0.4-2.6-0.4C50.9,32.3,49.1,32.8,47.1,33.3z"/>
	<path class="st0" d="M153,100.6l-0.6,1.9c-0.7,2.3-1.4,4.5-2.2,6.7l-5-4.5l-0.6,1.8c-2.7,7.9-6.2,15.4-10.4,22.2
		c-11,17.5-26.4,30.4-44.7,37c0,0-1.3,0.5-1.9,0.7c-0.5-0.2-1.8-0.7-1.8-0.7c-18.2-6.7-33.7-19.5-44.6-37
		c-4.2-6.7-7.8-14.2-10.4-22.2l-0.6-1.8l-1.5,1.3l-3.6,3.2c-0.8-2.1-1.6-4.3-2.3-6.7l-0.6-1.9l-1.5,1.3L8.3,113.3l0.2,0.8
		c3,9.6,7.9,19.5,11.5,26l0.7,1.4l5.2-4.7c0.2,0.4,0.4,0.7,0.6,1.1c13,20.8,31.5,36,53.3,44l7.7,2.8l7.8-2.8
		c21.9-8,40.3-23.2,53.3-44c0.2-0.3,0.4-0.7,0.6-1.1l5.2,4.7l0.8-1.4c3.6-6.5,8.5-16.3,11.5-26l0.2-0.8L153,100.6z M11.2,114
		c1-0.9,8-7.1,10-9c0.6,2,1.3,4,2,5.9l-6.9,6.2l2.4,14.8C15.9,126.6,13.2,120.3,11.2,114z M22,136.9l-1.6-10.7
		c1.3,2.8,2.8,5.6,4.4,8.3C23.6,135.4,22.6,136.3,22,136.9z M153.3,136.9c-0.7-0.6-1.6-1.5-2.7-2.4c0,0,0,0,0-0.1
		c1.6-2.7,3.1-5.4,4.4-8.2L153.3,136.9z M146.6,136.5c-12.8,20.3-30.7,35.2-52.1,43c0,0-6.1,2.2-6.9,2.5c-0.7-0.3-6.8-2.5-6.8-2.5
		c-21.3-7.8-39.3-22.7-52.1-43c-3.6-5.8-6.8-12.2-9.3-18.7c1.1-1,7.7-7,9.7-8.7c2.7,7.5,5.9,14.6,10,21c11.3,18,27.1,31.2,45.9,38
		l2.7,1l2.8-1c18.8-6.9,34.6-20,45.9-38c4.1-6.4,7.3-13.5,10-21c1.9,1.8,8.6,7.8,9.7,8.7C153.3,124.4,150.2,130.7,146.6,136.5z
		 M156.6,132l2.4-14.9l-6.9-6.2c0.7-1.9,1.4-3.9,2-5.9c2.1,1.9,9,8.1,10,9C162.1,120.4,159.3,126.6,156.6,132z"/>
	<path class="st0" d="M32.8,129.8l2-2.2l-0.2-0.7c-0.4-0.4-0.8-0.7-1.1-1.2c-2.1,0.4-5.4,0.9-6.9,1l-0.4-0.4l-0.4,0.2
		c0.2,0.3,0.4,0.7,0.6,1c0.2,0.4,0.4,0.8,0.6,1.2l0.4-0.2l-0.2-0.6l2.2-0.5l1.2,2.1c-0.4,0.5-1.1,1.2-1.6,1.6l-0.4-0.5l-0.4,0.2
		c0.3,0.5,0.6,1,0.9,1.5s0.5,1,0.8,1.5l0.4-0.2l-0.2-0.6C30.5,132.4,31.8,130.9,32.8,129.8z M30.4,127.2l2.8-0.6l0,0l-1.9,2.1
		L30.4,127.2z"/>
	<path class="st0" d="M42.7,140.3l0.4-0.3c-0.3-0.3-0.5-0.7-0.8-1s-0.5-0.7-0.7-1.1l-0.4,0.3l0.3,0.6c-1,0.8-3.6,2.8-3.6,2.8l0,0
		c0.7-1.8,1.4-4,2.1-5.9c-0.2-0.3-0.5-0.6-0.7-1c-0.2-0.3-0.4-0.7-0.6-1l-0.4,0.3l0.3,0.6c-0.5,0.4-1,0.8-1.6,1.2l-1.8,1.3
		c-0.6,0.5-1.2,0.8-1.7,1.1l-0.5-0.5l-0.4,0.3c0.3,0.3,0.5,0.7,0.8,1.1c0.2,0.4,0.5,0.7,0.7,1.1l0.4-0.3l-0.3-0.6
		c1-0.8,2.5-1.9,3.7-2.8l0,0c-0.8,1.9-1.5,4-2.2,6c0.2,0.2,0.4,0.4,0.5,0.7c0.2,0.2,0.3,0.5,0.4,0.6c0.6-0.5,1.3-1,2.2-1.7l1.7-1.2
		c0.6-0.4,1.2-0.8,1.7-1.1L42.7,140.3z"/>
	<path class="st0" d="M43.2,146.1c-1.7,1.5-1.5,3.9-0.2,5.3c0.9,1,1.9,1.6,3.6,1.7l0.1-0.9c-1-0.1-1.7-0.5-2.1-1
		c-1-1.1-1.1-2.7,0.2-3.9s2.6-0.8,3.5,0.1c0.4,0.4,0.7,1.1,0.8,1.7l-0.4,0.5L49,150c0.4-0.4,1.1-0.7,1.6-0.9
		c-0.4-0.9-0.8-1.6-1.5-2.3C47.4,144.8,44.9,144.5,43.2,146.1z"/>
	<path class="st0" d="M57.5,154.6c-2-1.7-4.4-1.4-5.7,0.2c-1.5,1.9-1.2,4,0.8,5.7c2.1,1.7,4.4,1.4,5.7-0.2
		C59.9,158.5,59.5,156.3,57.5,154.6z M56.8,159c-1,1.2-2.5,1.6-3.6,0.7c-1.1-0.9-1-2.4,0.1-3.6c1-1.2,2.5-1.6,3.6-0.7
		C57.9,156.3,57.8,157.8,56.8,159z"/>
	<path class="st0" d="M68.1,162.4c-0.4-0.3-0.9-0.5-1.3-0.8c-0.5-0.3-0.9-0.5-1.3-0.8c-0.4-0.2-0.7-0.5-1.1-0.7l-0.3,0.4l0.5,0.5
		c-0.3,0.6-0.6,1.1-1,1.8l-1,1.8c-0.4,0.6-0.8,1.1-1.2,1.7l-0.6-0.3l-0.3,0.4c0.5,0.3,1,0.6,1.5,0.9c0.5,0.3,0.9,0.6,1.4,0.9
		l0.2-0.4l-0.5-0.5c0.2-0.6,0.5-1.1,1-1.8l0.4-0.6l0.5,0.3c0.1,1.1,0.2,3,0.3,4.3c0.7,0.3,1.4,0.7,2,1.1l0.3-0.4l-0.2-0.3
		c-0.1-0.5-0.5-3.1-0.6-3.9c1,0.4,2.1,0.3,2.6-0.6C69.8,164.5,69.8,163.5,68.1,162.4z M67.5,164.4c-0.5,0.7-1.2,0.7-2.1,0.1
		c-0.2-0.1-0.4-0.3-0.5-0.4l0.3-0.5c0.3-0.5,0.6-1,0.9-1.2c0.3,0.1,0.5,0.2,0.9,0.5C67.7,163.3,67.9,163.8,67.5,164.4z"/>
	<path class="st0" d="M79,168.2l-0.6-0.4c-0.5-0.1-1-0.1-1.6-0.3c-1.5,1.6-3.8,4-5,4.9l-0.6-0.1l-0.2,0.4c0.4,0.2,0.7,0.3,1.1,0.5
		s0.9,0.4,1.3,0.6l0.2-0.4l-0.5-0.4l1.5-1.7l2.1,1c0,0.6-0.2,1.6-0.3,2.2l-0.6-0.2l-0.2,0.4c0.5,0.2,1.1,0.5,1.6,0.7s1,0.5,1.5,0.7
		l0.2-0.4l-0.5-0.4c0-0.7,0.1-2.7,0.2-4.1L79,168.2z M76.8,171.3l-1.6-0.7l1.9-2.1l0,0L76.8,171.3z"/>
	<path class="st0" d="M100.1,173.9c-0.3-0.6-0.6-1.1-0.9-1.8l-0.8-1.9c-0.3-0.7-0.6-1.3-0.7-1.9l0.6-0.4l-0.2-0.4
		c-0.5,0.2-1.1,0.5-1.6,0.7s-1.1,0.4-1.6,0.7l0.2,0.4l0.7-0.2c0.3,0.6,0.6,1.1,0.9,1.8l0.9,1.9c0.3,0.7,0.5,1.3,0.7,1.9l-0.6,0.4
		l0.2,0.4c0.5-0.2,1.1-0.5,1.5-0.7c0.5-0.2,1-0.4,1.6-0.7l-0.2-0.4L100.1,173.9z"/>
	<path class="st0" d="M113.4,166.7c-0.4-0.5-0.7-1-1.1-1.7l-1-1.8c-0.4-0.7-0.7-1.2-1-1.8l0.5-0.5l-0.3-0.4
		c-0.4,0.3-0.9,0.6-1.3,0.8c-0.4,0.3-0.9,0.5-1.3,0.8c0.3,1,1,4.6,1.1,5.4c-0.8-0.6-3.5-2.9-4.2-3.5c-0.4,0.3-0.9,0.5-1.3,0.8
		s-0.9,0.5-1.3,0.7l0.3,0.4l0.6-0.2l0.5,0.9c0.5,0.9,2.1,3.7,2.5,4.5l-0.5,0.5l0.2,0.4c0.4-0.2,0.7-0.5,1.1-0.7s0.8-0.4,1.2-0.6
		l-0.2-0.4l-0.7,0.2c-0.4-0.5-0.7-1-1.1-1.7l-0.6-1c-0.5-0.9-0.9-1.5-1-1.9l0,0c2.7,2.3,4.1,3.4,4.9,4.1l1-0.6L109,163l0,0
		c0.2,0.3,0.6,0.9,1.2,1.8l0.6,1c0.4,0.7,0.7,1.2,0.9,1.8l-0.4,0.4l0.2,0.4c0.4-0.3,0.9-0.6,1.4-0.9c0.5-0.3,1-0.6,1.5-0.9l-0.2-0.4
		L113.4,166.7z"/>
	<path class="st0" d="M120.5,161.3c-0.4-0.5-0.9-0.9-1.4-1.5l-1-1.2c-0.4-0.5-0.9-1.2-1.2-1.7c0.1-0.2,0.3-0.4,0.6-0.6
		c0.7-0.6,1.5-0.5,1.9,0.1c0.5,0.6,0.6,1.3-0.1,1.9c-0.2,0.1-0.3,0.2-0.5,0.3l0.4,0.9c0.3-0.2,0.6-0.4,0.9-0.6
		c1.6-1.3,1.6-2.9,0.8-3.9c-0.8-1-2-1.1-3.3,0c-0.3,0.3-0.6,0.6-1.1,1c-0.4,0.4-0.9,0.7-1.2,1c-0.3,0.3-0.8,0.6-1.2,1l0.3,0.4
		l0.6-0.3c0.4,0.4,0.9,0.9,1.4,1.5l1.3,1.7c0.5,0.6,0.9,1.1,1.2,1.6l-0.4,0.5l0.3,0.4c0.4-0.4,0.9-0.8,1.3-1.1s0.9-0.7,1.6-1.2
		l-0.3-0.4L120.5,161.3z"/>
	<path class="st0" d="M132.3,150.4c-0.6-0.2-2.5-1-3.8-1.6l-2.8-1.3l-0.6,0.4c-0.2,0.4-0.5,0.9-0.8,1.4c1,1.9,2.5,4.9,3,6.3
		l-0.3,0.5l0.4,0.3c0.3-0.3,0.5-0.6,0.8-0.9c0.3-0.3,0.7-0.7,1-1l-0.3-0.3l-0.5,0.4l-1.1-1.9l1.7-1.7c0.6,0.2,1.4,0.7,1.9,1
		l-0.4,0.5l0.4,0.3c0.4-0.4,0.8-0.9,1.2-1.3c0.4-0.4,0.8-0.8,1.2-1.2l-0.4-0.3L132.3,150.4z M126.7,151.8l-1.4-2.5l0,0l2.6,1.3
		L126.7,151.8z"/>
	<path class="st0" d="M140.5,140.2c-0.5,0.1-3.2,0.2-4,0.2c0.5-1,0.5-2-0.4-2.7c-0.7-0.6-1.8-0.7-3.1,0.9c-0.3,0.4-0.6,0.8-0.9,1.3
		c-0.3,0.4-0.6,0.8-0.9,1.2c-0.3,0.4-0.6,0.7-0.8,1l0.4,0.3l0.5-0.5c0.6,0.3,1.1,0.7,1.7,1.2l1.7,1.3c0.6,0.5,1,0.9,1.5,1.3
		l-0.3,0.6l0.4,0.3c0.3-0.5,0.7-0.9,1-1.4s0.7-0.9,1.1-1.3l-0.4-0.3l-0.5,0.5c-0.6-0.3-1.1-0.7-1.7-1.2l-0.5-0.4l0.3-0.5
		c1.1,0,3,0,4.3,0.1c0.4-0.6,0.8-1.3,1.3-1.9l-0.4-0.3L140.5,140.2z M135,141.4c-0.2,0.2-0.3,0.4-0.5,0.5l-0.5-0.4
		c-0.5-0.4-0.9-0.7-1.2-0.9c0.1-0.3,0.3-0.5,0.6-0.8c0.5-0.7,1.1-0.8,1.6-0.4C135.7,139.9,135.6,140.6,135,141.4z"/>
	<path class="st0" d="M145,127.1c-2.2-1.3-4.1-0.6-5.5,1.7c-1.4,2.3-0.7,4.6,1.2,5.6c2,1.2,4.1,0.6,5.5-1.7
		C147.5,130.5,146.9,128.2,145,127.1z M145.2,132.2c-0.7,1.2-2.2,1.3-3.5,0.5c-1.4-0.8-2-2.2-1.3-3.4s2.1-1.3,3.5-0.5
		C145.3,129.7,145.9,131,145.2,132.2z"/>
	<path class="st0" d="M87.6,173c-0.8,0-1.6,0.7-1.6,1.6c0,0.9,0.7,1.7,1.6,1.7s1.7-0.8,1.7-1.7C89.3,173.7,88.5,173,87.6,173z"/>
	<path class="st0" d="M27,121.1c0.9,0,1.6-0.8,1.6-1.6c0-0.9-0.8-1.7-1.6-1.7c-0.9,0-1.6,0.8-1.6,1.7
		C25.4,120.4,26.1,121.1,27,121.1z"/>
	<path class="st0" d="M148.5,121.1c0.9,0,1.7-0.8,1.7-1.6c0-0.9-0.8-1.7-1.7-1.7c-0.8,0-1.6,0.8-1.6,1.7
		C146.9,120.4,147.7,121.1,148.5,121.1z"/>
</g>
</svg>
