<svg xmlns="http://www.w3.org/2000/svg" viewBox="0 0 652.42 189.18"><defs><style>.cls-1{fill:#fff;fill-rule:evenodd;}</style></defs><g id="Layer_2" data-name="Layer 2"><g id="Layer_1-2" data-name="Layer 1"><g id="Page-1"><g id="_2016-Monash_2-reversedKEYLINE_TO-SEND-OUT" data-name="2016-Monash_2-reversedKEYLINE_TO-SEND-OUT"><path id="Fill-1" class="cls-1" d="M253.26,92.38v46.15c0,19-7.78,27.81-24.5,27.81-19.38,0-23.44-15.12-23.44-27.81V92.38h-5.65v46.15c0,21.78,9.78,32.83,29.09,32.83,20,0,30.15-11.05,30.15-32.83V92.38h-5.65"/><path id="Fill-2" class="cls-1" d="M295.49,112.42c-8.67,0-16.19,4.66-19.38,11.72V113.71h-5v55.83h5V139.37c0-13.65,7.56-22.47,19.27-22.47,15.11,0,15.11,13.15,15.11,17.47v35.17h5V135.11c0-6.2,0-22.69-20-22.69"/><polygon id="Fill-3" class="cls-1" points="327.89 169.54 332.9 169.54 332.9 113.71 327.89 113.71 327.89 169.54"/><polygon id="Fill-4" class="cls-1" points="327.89 104.15 332.9 104.15 332.9 96.63 327.89 96.63 327.89 104.15"/><path id="Fill-5" class="cls-1" d="M382.59,113.71s-17.72,47.89-18.36,49.6l-19.63-49.6h-5.72l22.48,55.83H367l21.07-55.83h-5.51"/><path id="Fill-6" class="cls-1" d="M415.38,116.9c12.41,0,19.16,10.61,19.55,21.26H395.75c1-10.65,8-21.26,19.63-21.26Zm0-4.48A22.5,22.5,0,0,0,399,119c-5.39,5.47-8.41,14.06-8.28,23.56-.12,8.76,2.58,16.41,7.63,21.52,4.32,4.39,10.23,6.71,17.08,6.71,13.41,0,22-7.2,24.16-20.26l.1-.55h-5l-.08.39c-1.89,10-9.07,15.94-19.18,15.94a17.74,17.74,0,0,1-13.15-5.27c-4.18-4.25-6.56-10.91-6.56-18.32,0,0,0-.07,0-.12H440l0-.45c0-.71.05-1.41.05-2.09,0-8.55-2.54-15.89-7.25-20.81-4.33-4.54-10.19-6.86-17.41-6.86Z"/><path id="Fill-7" class="cls-1" d="M454,124.79V113.71h-5v55.83h5V139.05c.44-8.35,2.22-11.52,6.06-15.46a18.19,18.19,0,0,1,14.76-5.2l.54.06v-5h-.46c-9.15-.41-17.93,4.52-20.9,11.39"/><path id="Fill-8" class="cls-1" d="M501.73,138.59l-1.69-.36c-8.32-1.76-16.17-3.43-16.17-11.24,0-7.44,7.91-10.09,15.32-10.09,5.83,0,15.63,1.75,15.75,13.52v.47h5v-.47c0-11.61-7.38-18-20.76-18-4.77,0-20.33,1.06-20.33,14.57,0,12.16,11.14,14.41,19.27,16.06l1.45.29c8.72,1.76,17,3.42,17,11.84,0,10.08-11.83,11.16-16.92,11.16-10.15,0-17.08-6.11-17.68-15.57l0-.45h-5v.49c.31,12.34,9,20,22.69,20,5.14,0,21.93-1.13,21.93-15.64,0-11.93-9-14.57-19.82-16.59"/><polygon id="Fill-9" class="cls-1" points="531.81 169.54 536.82 169.54 536.82 113.71 531.81 113.71 531.81 169.54"/><path id="Fill-10" class="cls-1" d="M558.38,113.71V96.63h-5v17.08H543.24v4.48h10.13V156c0,.32,0,.64,0,.95,0,4.3,1,7.42,3.21,9.52,3.33,3.23,8.81,3.32,13.22,3l.44,0v-4.46h-.49c-4.53.12-7.51-.14-9.31-1.88-1.4-1.37-2-3.64-2-7.15V118.19h13.93c5.49,13,21.16,50.28,21.28,50.57-2.47,7-4,11-5.48,12.56-2.59,2.6-5.19,3.39-11.09,3.39h-.48v4.47H577c6.11,0,10-.17,13.1-2.55,2.37-1.83,4.13-5.75,6.55-11.51l23.75-61.41H614.8s-17.66,47.07-18.48,49.23l-20.05-49.23H558.38"/><polygon id="Fill-11" class="cls-1" points="531.8 104.15 536.82 104.15 536.82 96.63 531.8 96.63 531.8 104.15"/><path id="Fill-12" class="cls-1" d="M327.18,4.83c-16.91,0-28.71,12.46-28.71,33.37,0,25,14.88,36.36,28.94,36.36,16.93,0,28.15-13,28.15-33.61.22-22.06-11.22-36.12-28.38-36.12Zm-.79,75c-22.19-.46-40.84-17.49-40.27-41C286.7,20.25,301.58-.78,328.68,0c18.85.35,40,14.52,39.45,40.58s-22.65,39.8-41.74,39.22Z"/><path id="Fill-13" class="cls-1" d="M652.42,2.14V1H630.24v1.1c4.39.29,5.6,1.15,5.6,7.38V36.58H596.05V9.52c0-6.23,1.22-7.09,5.61-7.38V1H579.48v1.1c4.39.29,5.6,1.15,5.6,7.38V70.29c0,6.24-1.21,7.11-5.6,7.39v1.09h22.18V77.68c-4.39-.28-5.61-1.15-5.61-7.39v-29h39.79v29c0,6.24-1.21,7.11-5.6,7.39v1.09h22.18V77.68c-4.39-.28-5.61-1.15-5.61-7.39V9.52c0-6.23,1.22-7.09,5.61-7.38"/><path id="Fill-14" class="cls-1" d="M374,1v1.1c4.27.23,5.48.69,5.48,5.19v63c0,6.24-1.21,7.11-5.6,7.39v1.09h16.74V77.68c-4.39-.28-5.61-1.15-5.61-7.39V13.73c0,1,43.29,53.7,52.64,65h1.78V7.33c0-4.5,1.22-5,5.49-5.19V1H428.47v1.1c4.27.23,5.49.69,5.49,5.19V56.72L388.8,1H374"/><path id="Fill-15" class="cls-1" d="M466.42,50.77c5-12.35,12.8-32,12.8-32s7,17.6,12.92,32ZM483.08,1h-1.54c-3.94,9.34-22.13,52.39-28.46,67.27-1.1,2.54-2.87,6.67-4.18,8.1A3.86,3.86,0,0,1,446,77.68v1.09h14.79V77.68c-1.18,0-3.71,0-3.9-2.2a6.69,6.69,0,0,1,.43-2.3c.46-1.38,3.43-8.92,7.2-17.5h29.61c2.91,7.24,5.58,13.43,6.81,16.17A13.16,13.16,0,0,1,502,75.48c0,2.15-1.91,2.2-4.05,2.2v1.09h20.66V77.68c-2.54-.17-3.35-.81-5.19-5L483.08,1Z"/><path id="Fill-16" class="cls-1" d="M195.65,1v1.1c2.39.13,3.8.36,4.6,1.3a5.29,5.29,0,0,1,.61,1.15h0a4.68,4.68,0,0,1,.22,1.25c0,.44.06.93.06,1.48v63c0,6.24-1.21,7.11-5.6,7.39v1.09h16.57V77.68c-4.39-.28-5.6-1.15-5.6-7.39V16.36c0-1-.23-3-.23-3l1,3,26.85,62.12h1.63l27.43-63.95L264,11.9a16.31,16.31,0,0,0-.22,2.4v56c0,6.24-1.21,7.11-5.6,7.39v1.09h22.18V77.68c-4.39-.28-5.6-1.15-5.6-7.39v-63c0-4.5,1.21-5,5.48-5.19V1H263L238.18,59.69,213,1H195.65"/><path id="Fill-17" class="cls-1" d="M522.51,73.55c5.22,3.13,13,6.42,21.14,6.4h.47c12.13-.17,24.92-9.15,24.92-23.3,0-15.33-10.75-18.87-21.61-24.47-11-5.38-15.55-8.12-15.55-15.32,0-4.92,3-12.11,12.69-12.11a17.36,17.36,0,0,1,8.17,2C560.6,11.12,561,17.3,562,21.22h1.14l-.66-17.3A49.42,49.42,0,0,0,550.72.48a35.61,35.61,0,0,0-4.55-.32c-10.86,0-23.66,6.52-23.66,20.23,0,9.38,5.6,15.21,16.69,20.69s19.32,7.79,19.32,18.76c0,5.6-3.2,15.31-15.54,15.31a18.24,18.24,0,0,1-12-4.29c-7.31-6.92-7.15-12.41-7.7-14.45h-1.14l.34,17.14"/><path id="Fill-18" class="cls-1" d="M147.72,119.89l2.36-14.8-6.84-6.15c.7-1.9,1.38-3.84,2-5.87,2,1.85,8.94,8.06,9.92,8.94a129.54,129.54,0,0,1-7.45,17.88Zm-10,4.48c-12.69,20.22-30.6,35-51.79,42.78L79,169.66l-6.88-2.51c-21.17-7.76-39.09-22.56-51.8-42.8A118.53,118.53,0,0,1,11,105.74c1.1-1,7.73-7,9.68-8.7a103.67,103.67,0,0,0,9.94,20.87c11.21,17.94,27,31,45.68,37.87l2.71,1,2.7-1c18.67-6.83,34.47-19.93,45.7-37.87A105.5,105.5,0,0,0,137.37,97c1.95,1.74,8.58,7.7,9.68,8.7a118.33,118.33,0,0,1-9.34,18.63Zm6.67.45-2.68-2.42,0-.05c1.53-2.65,3-5.35,4.35-8.18l-1.7,10.65Zm-130.69,0L12,114.14c1.35,2.83,2.84,5.56,4.4,8.24l-2.7,2.44ZM2.9,102c1-.88,7.9-7.1,9.94-8.94.62,2,1.32,4,2,5.85L8,105.09l2.35,14.77A133.93,133.93,0,0,1,2.9,102Zm141.16-13.4-.56,1.94c-.67,2.28-1.41,4.5-2.19,6.65l-5-4.51-.6,1.81a102.58,102.58,0,0,1-10.37,22.08C114.38,134,99,146.78,80.89,153.42l-1.85.66-1.86-.66C59.06,146.78,43.69,134,32.76,116.57A102.8,102.8,0,0,1,22.4,94.5l-.61-1.81L20.37,94l-3.57,3.2C16,95,15.25,92.85,14.58,90.55L14,88.62,12.54,90,0,101.25l.25.77c3,9.57,7.88,19.36,11.47,25.87l.75,1.4,5.18-4.66c.2.34.37.71.58,1.05,13,20.72,31.36,35.87,53.07,43.82L79,172.34l7.74-2.84c21.72-8,40.07-23.1,53.06-43.81.21-.34.39-.72.6-1l5.14,4.65.77-1.4A144.88,144.88,0,0,0,157.83,102l.24-.76-14-12.64Z"/><path id="Fill-19" class="cls-1" d="M22,115.16l2.81-.56v0l-1.94,2.09L22,115.16Zm2.41,2.54,2-2.23-.17-.67c-.36-.37-.73-.74-1.1-1.16-2.12.38-5.37.92-6.87,1l-.4-.47-.42.24c.21.35.41.68.6,1s.44.83.66,1.23l.41-.23-.19-.59,2.17-.5,1.14,2.05A14.84,14.84,0,0,1,20.72,119l-.41-.47-.41.21c.28.53.59,1,.87,1.53s.52,1,.77,1.46l.41-.24-.18-.58c.39-.57,1.67-2.11,2.64-3.19Z"/><path id="Fill-20" class="cls-1" d="M34.3,128.12l.38-.3c-.26-.33-.53-.66-.78-1s-.49-.71-.74-1.08l-.38.28.29.63c-1,.81-3.66,2.78-3.66,2.78v0c.67-1.85,1.47-4,2.17-5.88-.25-.32-.49-.63-.72-1s-.44-.65-.68-1l-.39.27.3.62c-.48.4-1,.8-1.59,1.25L26.79,125c-.63.45-1.16.8-1.7,1.12l-.49-.49-.39.28c.27.36.54.7.79,1l.73,1,.38-.27-.29-.61c1-.83,2.47-1.92,3.64-2.78h0c-.75,2-1.44,3.94-2.21,6,.18.23.36.45.52.68s.32.48.44.65c.56-.46,1.28-1,2.17-1.64l1.69-1.23c.63-.45,1.15-.8,1.7-1.12l.5.49"/><path id="Fill-21" class="cls-1" d="M34.77,133.9a3.68,3.68,0,0,0-.17,5.3,5,5,0,0,0,3.64,1.73l.12-.87a3.44,3.44,0,0,1-2.14-1,2.61,2.61,0,0,1,.18-3.88,2.28,2.28,0,0,1,3.44.07,4,4,0,0,1,.82,1.67l-.38.45.34.42a4.8,4.8,0,0,1,1.57-.93,7.82,7.82,0,0,0-1.45-2.25c-1.76-1.9-4.23-2.28-6-.68"/><path id="Fill-22" class="cls-1" d="M48.33,146.81c-1,1.22-2.45,1.58-3.51.7s-1-2.36.06-3.59,2.44-1.58,3.5-.69,1,2.35-.05,3.58Zm.72-4.36c-2.06-1.72-4.37-1.44-5.72.19-1.56,1.88-1.2,4,.83,5.65s4.36,1.44,5.71-.2c1.57-1.87,1.2-4-.82-5.64Z"/><path id="Fill-23" class="cls-1" d="M59,152.13c-.45.72-1.17.7-2.07.14a3.2,3.2,0,0,1-.52-.39l.32-.51c.32-.53.63-1,.83-1.24a5,5,0,0,1,.88.48c.75.46.9,1,.56,1.52Zm.53-2-1.33-.8c-.45-.26-.89-.51-1.31-.78s-.73-.48-1.09-.71l-.25.4.5.45a16.66,16.66,0,0,1-1,1.77L54,152.27c-.41.64-.76,1.15-1.15,1.66l-.64-.26-.25.41c.5.29,1,.58,1.47.88s1,.61,1.43.93l.25-.4-.5-.47a19.9,19.9,0,0,1,1-1.76l.36-.58.47.31c.12,1.1.23,2.93.31,4.25a17.34,17.34,0,0,1,2,1.07l.26-.41-.21-.28c-.12-.51-.47-3.13-.57-3.84a2,2,0,0,0,2.61-.65c.52-.83.54-1.88-1.22-3Z"/><path id="Fill-24" class="cls-1" d="M68.26,159l-1.63-.74,1.92-2.11h0L68.26,159Zm2.12-3.13-.54-.45c-.5-.08-1-.14-1.56-.27a67.33,67.33,0,0,1-5,4.88l-.58-.13-.2.43c.36.17.73.31,1.09.47l1.26.6.2-.43-.52-.37L66,159l2.14,1a18.11,18.11,0,0,1-.28,2.23l-.63-.15-.19.42c.53.24,1.08.46,1.6.7s1,.47,1.5.72l.19-.44-.5-.36c0-.69.09-2.69.23-4.13l.29-3Z"/><path id="Fill-25" class="cls-1" d="M91.44,161.59c-.31-.56-.59-1.11-.91-1.82l-.85-1.92A18.64,18.64,0,0,1,89,156l.55-.39-.18-.43c-.52.24-1,.5-1.55.72s-1,.43-1.58.67l.2.43.66-.16a18.19,18.19,0,0,1,.9,1.82l.85,1.92c.3.7.52,1.28.72,1.88l-.55.39.18.44c.53-.25,1-.5,1.56-.73s1-.44,1.58-.66l-.2-.43-.66.16"/><path id="Fill-26" class="cls-1" d="M104.65,154.39a19.12,19.12,0,0,1-1.11-1.69l-1.09-1.81c-.39-.66-.68-1.2-1-1.77l.51-.46-.24-.41c-.43.27-.85.55-1.28.81l-1.33.75c.26.95,1,4.59,1.13,5.36-.81-.56-3.46-2.85-4.2-3.52l-1.26.8c-.43.25-.88.49-1.3.74l.24.42.59-.21.51.86c.5.84,2.15,3.66,2.54,4.47l-.51.46.25.39,1.08-.67c.38-.24.75-.44,1.13-.65l-.24-.41-.64.24c-.37-.51-.72-1-1.12-1.68l-.63-1.06c-.53-.88-.89-1.51-1.07-1.84l0,0c2.71,2.25,4.14,3.44,4.86,4.06l1-.58-1.26-6.23h0c.21.3.59.93,1.13,1.82l.62,1.05c.4.67.69,1.2,1,1.77l-.52.46.25.41c.47-.31,1-.6,1.44-.91s1-.57,1.49-.86l-.24-.4-.77.31"/><path id="Fill-27" class="cls-1" d="M111.79,149.1c-.45-.46-.86-.92-1.35-1.52l-1-1.19c-.41-.5-.94-1.15-1.3-1.69a3.47,3.47,0,0,1,.6-.66,1.25,1.25,0,0,1,1.94.08,1.24,1.24,0,0,1-.11,1.92,3.1,3.1,0,0,1-.46.31l.35.91a5.86,5.86,0,0,0,.93-.63c1.56-1.26,1.6-2.87.74-3.92s-2-1.08-3.24,0l-1.12.95-1.21,1c-.33.26-.75.57-1.2.93l.3.36.6-.32a18.22,18.22,0,0,1,1.34,1.52l1.33,1.63c.49.61.85,1.1,1.2,1.63l-.44.52.29.37c.45-.38.88-.74,1.31-1.12s.89-.68,1.57-1.22l-.3-.37-.82.52"/><path id="Fill-28" class="cls-1" d="M117.93,139.61l-1.34-2.52,0,0,2.57,1.27-1.25,1.27Zm5.56-1.42c-.65-.2-2.49-1-3.81-1.62l-2.72-1.3-.6.36c-.24.45-.49.9-.8,1.39a65.74,65.74,0,0,1,2.92,6.3l-.32.5.34.33c.27-.28.52-.58.8-.86l1-1L120,142l-.53.37-1.1-1.94,1.65-1.7a19.67,19.67,0,0,1,2,1l-.35.54.34.33c.39-.41.79-.86,1.19-1.28s.79-.77,1.18-1.16l-.34-.33-.51.35Z"/><path id="Fill-29" class="cls-1" d="M126.17,129.29a2.84,2.84,0,0,1-.44.47l-.48-.36c-.48-.36-.89-.71-1.15-.93a6.38,6.38,0,0,1,.56-.85c.53-.68,1-.79,1.56-.4.69.51.59,1.24,0,2.07Zm5.5-1.27c-.51.06-3.17.17-3.88.21a2,2,0,0,0-.4-2.65c-.78-.61-1.83-.71-3.09.94-.31.4-.61.81-.92,1.22s-.59.84-.89,1.24-.55.69-.83,1l.39.29.5-.46a17.68,17.68,0,0,1,1.66,1.16l1.68,1.27c.61.47,1.08.88,1.54,1.31l-.3.6.37.29,1-1.38c.35-.45.71-.88,1.07-1.34l-.38-.28-.5.45a16.11,16.11,0,0,1-1.67-1.14l-.54-.42.35-.44c1.1,0,2.94.05,4.26.09a16.91,16.91,0,0,1,1.25-1.87l-.38-.29-.3.18Z"/><path id="Fill-30" class="cls-1" d="M136.37,120.12c-.71,1.21-2.17,1.34-3.54.53s-2-2.15-1.26-3.35,2.17-1.34,3.54-.53,2,2.16,1.26,3.35Zm-.24-5.08c-2.1-1.26-4.11-.54-5.45,1.73s-.7,4.54,1.12,5.61c2.11,1.24,4.12.54,5.46-1.73s.69-4.55-1.13-5.61Z"/><path id="Fill-31" class="cls-1" d="M79,160.67a1.63,1.63,0,0,0-1.62,1.62A1.64,1.64,0,0,0,79,164a1.67,1.67,0,0,0,1.65-1.67A1.65,1.65,0,0,0,79,160.67"/><path id="Fill-32" class="cls-1" d="M18.69,109.07a1.65,1.65,0,0,0,0-3.29,1.65,1.65,0,1,0,0,3.29"/><path id="Fill-33" class="cls-1" d="M139.7,109.07a1.65,1.65,0,0,0,0-3.29,1.65,1.65,0,1,0,0,3.29"/><path id="Fill-34" class="cls-1" d="M134.67,60.62a101.51,101.51,0,0,1-4.11,28.31s-.24.77-.24.79-.12.4-.26.83C124,85.11,80.55,46,79,44.61l-.71.64c-.13.12-.31.27-.48.44C71.17,51.7,37.78,81.78,28,90.55c-.13-.44-.26-.84-.26-.84s-.21-.7-.21-.77h0a99.89,99.89,0,0,1-4.14-28.31V3.5H134.67V60.62Zm-12,47.38a10.37,10.37,0,0,1-.8,1.31C111.85,127.1,96.65,140.44,79,147c-17.56-6.56-32.77-19.9-42.85-37.62l-.77-1.4a6.78,6.78,0,0,1-.43-.89h0c-.09-.16-.17-.34-.25-.51L69.39,75.41,79,66.75l44.34,39.9-.24.49-.46.86ZM137.14,1H21V60.62a102.67,102.67,0,0,0,4.24,29v0l.23.75.57,1.9.08-.07a100.69,100.69,0,0,0,6.76,16l0,0,.47.87.76,1.39,0,0c10.41,18.42,26.15,32.27,44.56,39l.43.17.43-.17c18.42-6.73,34.17-20.57,44.55-39l0,0,.77-1.39.46-.87,0,0a100.21,100.21,0,0,0,6.77-16l.07.08.58-1.9.23-.75,0,0a103.36,103.36,0,0,0,4.25-29V1Z"/><path id="Fill-35" class="cls-1" d="M101.83,104.19l-3.53,0-1.73,3.07-1.73-3.07-3.52,0,1.81-3-1.81-3.06,3.52.07,1.73-3.08,1.73,3.08,3.53-.07L100,101.17l1.82,3ZM89.17,116.84l-3.09-1.57L83,116.84l.56-3.45L81.08,111l3.43-.55,1.57-3.08,1.58,3.08,3.41.55-2.44,2.43.54,3.45ZM73.29,84.31l3.94.83L79,81.54l1.82,3.6,3.94-.83L83.12,88l3.11,2.58-3.92,1-.08,4L79,93.09l-3.2,2.44-.06-4-3.92-1L75,88l-1.69-3.66ZM84.9,138.14l-4-1.53-1.77,3.93-1.76-3.93-4,1.53,1.48-4L71,132.29l3.88-1.76-1.48-4,4,1.48,1.76-3.9,1.77,3.9,4-1.48-1.49,4,3.87,1.77-3.87,1.8,1.49,4ZM63,109.85l-.07,4-3.2-2.46-3.19,2.46-.08-4-3.9-1,3.11-2.55L54,102.65l3.95.81,1.8-3.58,1.82,3.58,3.94-.81-1.69,3.67,3.11,2.55-3.91,1Z"/><path id="Fill-36" class="cls-1" d="M28.08,13.36h2.34l-.14.6a.62.62,0,0,0,0,.19v28.1l17.46,0c.31.53.66.61,1.44.61s1.16-.08,1.48-.61l17.41,0V14.15A1,1,0,0,0,68,14l-.14-.61h2.37V44.42H51.5a2.52,2.52,0,0,1-2.34,1.36,2.54,2.54,0,0,1-2.35-1.36H28.08V13.36"/><path id="Fill-37" class="cls-1" d="M46.93,16.18a8.5,8.5,0,0,0-2.64-.49,20.47,20.47,0,0,0-5.33.87,29.09,29.09,0,0,1-5.1,1V16.23a26.39,26.39,0,0,0,4.78-.93,21.74,21.74,0,0,1,5.7-.91,10,10,0,0,1,2.59.42v1.37Zm0,3.17a8,8,0,0,0-2.64-.49,20.09,20.09,0,0,0-5.33.88,29.09,29.09,0,0,1-5.1,1V19.4a26.36,26.36,0,0,0,4.78-.92,21.38,21.38,0,0,1,5.69-.93,9.61,9.61,0,0,1,2.6.43v1.37Zm0,3.15A8.22,8.22,0,0,0,44.29,22,19.21,19.21,0,0,0,39,22.9a28.23,28.23,0,0,1-5.12,1V22.56a27.6,27.6,0,0,0,4.81-.93,20.67,20.67,0,0,1,5.67-.91,10,10,0,0,1,2.59.41V22.5Zm0,3.18a8.22,8.22,0,0,0-2.64-.49,19.66,19.66,0,0,0-5.33.87,27.17,27.17,0,0,1-5.1,1V25.74a27.3,27.3,0,0,0,4.78-.94,20.59,20.59,0,0,1,5.7-.92,9.61,9.61,0,0,1,2.59.42v1.38Zm0,3.14a7.33,7.33,0,0,0-2.64-.46,19.53,19.53,0,0,0-5.31.87,28.24,28.24,0,0,1-5.12,1V28.9A30.68,30.68,0,0,0,38.67,28a20.37,20.37,0,0,1,5.65-.92,8.94,8.94,0,0,1,2.61.4v1.36Zm0,3.18a7.45,7.45,0,0,0-2.64-.5,20,20,0,0,0-5.32.89,28.29,28.29,0,0,1-5.11,1v-1.3a30.34,30.34,0,0,0,4.78-.93,20.58,20.58,0,0,1,5.69-.92,10,10,0,0,1,2.6.41V32Zm0,3.16a7.57,7.57,0,0,0-2.64-.47,19.16,19.16,0,0,0-5.32.87,30,30,0,0,1-5.11,1V35.22a27.33,27.33,0,0,0,4.79-.91,19.76,19.76,0,0,1,5.68-.93,8.91,8.91,0,0,1,2.6.41v1.37ZM44.29,11a18.79,18.79,0,0,0-5.36.88,22.44,22.44,0,0,1-6.75,1V40.08a20.56,20.56,0,0,0,6.44-.91,20,20,0,0,1,5.71-.92,7.92,7.92,0,0,1,4.19,1.19v-27A6.35,6.35,0,0,0,44.29,11Z"/><path id="Fill-38" class="cls-1" d="M51.4,14.81a10,10,0,0,1,2.6-.42,21.67,21.67,0,0,1,5.69.91,26.55,26.55,0,0,0,4.78.93v1.31a28.8,28.8,0,0,1-5.09-1A20.61,20.61,0,0,0,54,15.69a8.56,8.56,0,0,0-2.64.49V14.81Zm0,3.17a9.61,9.61,0,0,1,2.6-.43,21.31,21.31,0,0,1,5.69.93,26.53,26.53,0,0,0,4.78.92v1.32a29.09,29.09,0,0,1-5.1-1A20.09,20.09,0,0,0,54,18.86a8.12,8.12,0,0,0-2.64.49V18Zm0,3.15a10,10,0,0,1,2.6-.41,20.66,20.66,0,0,1,5.66.91,27.78,27.78,0,0,0,4.81.93v1.31a28.5,28.5,0,0,1-5.13-1A19,19,0,0,0,54,22a8.28,8.28,0,0,0-2.64.49V21.13Zm0,3.17a9.62,9.62,0,0,1,2.6-.42,20.52,20.52,0,0,1,5.69.92,27.3,27.3,0,0,0,4.78.94V27a27.32,27.32,0,0,1-5.1-1A19.66,19.66,0,0,0,54,25.19a8.28,8.28,0,0,0-2.64.49V24.3Zm0,3.16a8.94,8.94,0,0,1,2.61-.4,20.37,20.37,0,0,1,5.65.92,30.68,30.68,0,0,0,4.81.92v1.31a28.52,28.52,0,0,1-5.13-1,19.4,19.4,0,0,0-5.3-.87,7.37,7.37,0,0,0-2.64.46V27.46Zm0,3.16a10,10,0,0,1,2.6-.41,20.52,20.52,0,0,1,5.69.92,30.12,30.12,0,0,0,4.78.93v1.3a28.45,28.45,0,0,1-5.11-1A20,20,0,0,0,54,31.5a7.5,7.5,0,0,0-2.64.5V30.62Zm0,3.17a8.91,8.91,0,0,1,2.6-.41,19.71,19.71,0,0,1,5.68.93,27.33,27.33,0,0,0,4.79.91v1.31a30.13,30.13,0,0,1-5.11-1A19.16,19.16,0,0,0,54,34.69a7.66,7.66,0,0,0-2.64.47V33.79Zm-1.58-21.4V39.44A7.89,7.89,0,0,1,54,38.25a20,20,0,0,1,5.71.92,20.56,20.56,0,0,0,6.44.91V12.81a22.49,22.49,0,0,1-6.75-1A18.78,18.78,0,0,0,54.05,11a6.31,6.31,0,0,0-4.23,1.42Z"/><path id="Fill-39" class="cls-1" d="M127.4,27.24a5,5,0,0,1-.56,2.32A4.25,4.25,0,0,1,126,30.7a6.27,6.27,0,0,0-1.37.85c0-.2,0-.39,0-.58a5.08,5.08,0,0,1,.54-2.32,5.18,5.18,0,0,1,2.23-2.11,4.06,4.06,0,0,1,.09.7"/><path id="Fill-40" class="cls-1" d="M117.93,43h0a5.2,5.2,0,0,1,3,.52A5.16,5.16,0,0,1,118.22,45a5.25,5.25,0,0,1-3-.55A5.17,5.17,0,0,1,117.93,43"/><path id="Fill-41" class="cls-1" d="M112.93,44.54c0-.07,0-.16,0-.24a4.84,4.84,0,0,1,.74-2.62h0a4.73,4.73,0,0,1,2.3-1.87,2.45,2.45,0,0,1,0,.27,4.63,4.63,0,0,1-3,4.46"/><path id="Fill-42" class="cls-1" d="M116.8,39.16a5.36,5.36,0,0,1,1.44-1.61,5.7,5.7,0,0,1,.28,1.4,5.13,5.13,0,0,1-.24,1.51,4.48,4.48,0,0,1-1.21,1.82c-.21.06-.42.14-.63.22a.74.74,0,0,0,0-.14,5.93,5.93,0,0,0,.4-3.2"/><path id="Fill-43" class="cls-1" d="M119,36.68A5.43,5.43,0,0,1,120,34.76a5.21,5.21,0,0,1,.72,2.46c0,.13,0,.25,0,.38a4.61,4.61,0,0,1-.73,2.06,4.17,4.17,0,0,0-.61.38l-.06-.12a6.08,6.08,0,0,0-.35-3.24"/><path id="Fill-44" class="cls-1" d="M120.47,33.73a5.24,5.24,0,0,1,.57-2.09,5.09,5.09,0,0,1,1.37,2.62,4.89,4.89,0,0,1,0,.66,4.58,4.58,0,0,1-.29,1.49,4.69,4.69,0,0,0-.48.52l-.11-.12a6.08,6.08,0,0,0-1.11-3.08"/><path id="Fill-45" class="cls-1" d="M121.26,30.53a5.36,5.36,0,0,1-.1-1,5.36,5.36,0,0,1,.19-1.12,4.93,4.93,0,0,1,1.92,2.19,4.78,4.78,0,0,1,.34,1.81,1.45,1.45,0,0,1,0,.3,5.14,5.14,0,0,0-.38.64.5.5,0,0,0-.12-.08,6.1,6.1,0,0,0-1.81-2.75"/><path id="Fill-46" class="cls-1" d="M121.32,27.31a5.43,5.43,0,0,1-.49-2.17,5,5,0,0,1,2.43,1.73,4.72,4.72,0,0,1,.8,1.95,5,5,0,0,0-.23.75l-.14-.07a6,6,0,0,0-2.37-2.19"/><path id="Fill-47" class="cls-1" d="M123.56,25.7a.9.9,0,0,1-.16,0,6.24,6.24,0,0,0-2.79-1.6,5.44,5.44,0,0,1-.92-1.94,4.86,4.86,0,0,1,2.69,1.08A4.52,4.52,0,0,1,123.61,25a4.89,4.89,0,0,0,0,.66"/><path id="Fill-48" class="cls-1" d="M122.32,22.07a6.19,6.19,0,0,0-3.14-.93,5.9,5.9,0,0,1-1.4-1.74,5.16,5.16,0,0,1,2.92.49,4.43,4.43,0,0,1,1.6,1.45,4.34,4.34,0,0,0,.13.72h-.11"/><path id="Fill-49" class="cls-1" d="M120.26,42.28a5.72,5.72,0,0,0-1.53-.22,5,5,0,0,1,2.21-1.92h0a5.28,5.28,0,0,1,3-.18,5,5,0,0,1-2.28,2,4.37,4.37,0,0,1-1.43.32"/><path id="Fill-50" class="cls-1" d="M123.11,38.92a6.08,6.08,0,0,0-1.6.13,4.87,4.87,0,0,1,1.72-2.37h0a5,5,0,0,1,2.92-.94,5.09,5.09,0,0,1-1.75,2.54,5.35,5.35,0,0,1-1.29.64"/><path id="Fill-51" class="cls-1" d="M126.12,34.06A4.23,4.23,0,0,1,125,35a5.46,5.46,0,0,0-1.46.49,5.21,5.21,0,0,1,1.09-2.72,5.15,5.15,0,0,1,2.65-1.53,5.08,5.08,0,0,1-1.14,2.83"/><path id="Fill-52" class="cls-1" d="M126.64,23.87a5,5,0,0,1-.13,1.15,4.29,4.29,0,0,1-.59,1.31,5.65,5.65,0,0,0-1.13,1.16,5.59,5.59,0,0,1-.36-1.79,4.69,4.69,0,0,1,.15-1.17,5.26,5.26,0,0,1,1.67-2.59,5.82,5.82,0,0,1,.39,1.93"/><path id="Fill-53" class="cls-1" d="M123.12,20.64a5.24,5.24,0,0,1,1-2.88,5.25,5.25,0,0,1,1,2.9v0a4.18,4.18,0,0,1-.26,1.4,6.2,6.2,0,0,0-.81,1.35,5.21,5.21,0,0,1-.91-2.74v-.05"/><path id="Fill-54" class="cls-1" d="M121.09,14.14a5.16,5.16,0,0,1,1.64,2.6,4.91,4.91,0,0,1,.13,1.08c0,.1,0,.21,0,.33a6.36,6.36,0,0,0-.52,1.54,5.07,5.07,0,0,1-1.53-2.48,5,5,0,0,1-.11-1.08,5.57,5.57,0,0,1,.41-2"/><path id="Fill-55" class="cls-1" d="M120.44,18.74l-.13.05a6.17,6.17,0,0,0-3.26-.19,5.25,5.25,0,0,1-1.73-1.37,5.27,5.27,0,0,1,3-.21,4.51,4.51,0,0,1,1.88,1.05c.1.24.19.46.29.67"/><path id="Fill-56" class="cls-1" d="M117.32,11.38a5.08,5.08,0,0,1,2.2,2.15,4.69,4.69,0,0,1,.43,1.31,6.07,6.07,0,0,0-.14,1.64,5.18,5.18,0,0,1-2.08-2.07,5,5,0,0,1-.51-2.24,5.51,5.51,0,0,1,.1-.79"/><path id="Fill-57" class="cls-1" d="M116.2,13.36c.12.08.22.19.33.28a5.89,5.89,0,0,0,.4,1.16h0a6.54,6.54,0,0,0,.71,1.06,5,5,0,0,1-2.59-.88,5.15,5.15,0,0,1-1.79-2.54,5.16,5.16,0,0,1,2.93.91"/><path id="Fill-58" class="cls-1" d="M98.37,42.36l0,.14c-.21-.08-.42-.16-.64-.22A4.47,4.47,0,0,1,96.25,39a4.94,4.94,0,0,1,.3-1.4A5.61,5.61,0,0,1,98,39.16a6,6,0,0,0,.39,3.2"/><path id="Fill-59" class="cls-1" d="M95.59,21.14a6,6,0,0,0-3.12.93h-.12a5.72,5.72,0,0,0,.14-.72,4.25,4.25,0,0,1,1.59-1.45,5.23,5.23,0,0,1,2.91-.5,5.52,5.52,0,0,1-1.4,1.75"/><path id="Fill-60" class="cls-1" d="M95.47,39.92,95.4,40c-.19-.14-.39-.27-.59-.39a4.68,4.68,0,0,1-.75-2c0-.13,0-.25,0-.38a5.28,5.28,0,0,1,.71-2.46,5.37,5.37,0,0,1,1.06,1.92,6,6,0,0,0-.35,3.24"/><path id="Fill-61" class="cls-1" d="M92.37,34.26a5.09,5.09,0,0,1,1.37-2.62,5.41,5.41,0,0,1,.57,2.08,6.36,6.36,0,0,0-1.12,3.09,1.27,1.27,0,0,0-.1.12,5.91,5.91,0,0,0-.48-.52,4.32,4.32,0,0,1-.28-1.49,4.87,4.87,0,0,1,0-.66"/><path id="Fill-62" class="cls-1" d="M91.7,33.28l-.11.08a4.86,4.86,0,0,0-.39-.65,2.58,2.58,0,0,1,0-.29,4.78,4.78,0,0,1,.34-1.81,4.89,4.89,0,0,1,1.92-2.2,5.56,5.56,0,0,1,.19,1.13,4.62,4.62,0,0,1-.11,1,6.36,6.36,0,0,0-1.81,2.75"/><path id="Fill-63" class="cls-1" d="M92.4,23.21a4.76,4.76,0,0,1,2.69-1.08,5.62,5.62,0,0,1-.92,1.94,6.09,6.09,0,0,0-2.79,1.6l-.16,0a4.77,4.77,0,0,0,0-.66,4.52,4.52,0,0,1,1.23-1.83"/><path id="Fill-64" class="cls-1" d="M91.51,26.87a5.07,5.07,0,0,1,2.43-1.73,5.21,5.21,0,0,1-.48,2.16,6.08,6.08,0,0,0-2.37,2.2l-.14.07a6.54,6.54,0,0,0-.24-.75,5,5,0,0,1,.8-1.95"/><path id="Fill-65" class="cls-1" d="M91.26,35.48A5.71,5.71,0,0,0,89.8,35a4.28,4.28,0,0,1-1.15-.93,5.08,5.08,0,0,1-1.13-2.83,4.61,4.61,0,0,1,3.74,4.25"/><path id="Fill-66" class="cls-1" d="M91.55,36.68h0a5,5,0,0,1,1.73,2.37,6.15,6.15,0,0,0-1.6-.13,5,5,0,0,1-1.3-.65,5,5,0,0,1-1.76-2.53,5.09,5.09,0,0,1,2.93.94"/><path id="Fill-67" class="cls-1" d="M93.84,40.14h0a5.1,5.1,0,0,1,2.21,1.92,5.79,5.79,0,0,0-1.54.22A4.49,4.49,0,0,1,93.08,42a5.11,5.11,0,0,1-2.28-2,5.22,5.22,0,0,1,3,.18"/><path id="Fill-68" class="cls-1" d="M96.85,43h0a5.18,5.18,0,0,1,2.71,1.42,5.3,5.3,0,0,1-3,.55,5.13,5.13,0,0,1-2.7-1.45,5.2,5.2,0,0,1,3-.52"/><path id="Fill-69" class="cls-1" d="M99.51,42.67a4.9,4.9,0,0,1-.72-2.59c0-.09,0-.18,0-.27a4.75,4.75,0,0,1,2.31,1.86h0a4.84,4.84,0,0,1,.74,2.62,1.79,1.79,0,0,1,0,.24,4.84,4.84,0,0,1-2.34-1.87"/><path id="Fill-70" class="cls-1" d="M97.85,14.8a5.31,5.31,0,0,0,.4-1.16c.11-.09.21-.2.33-.28a5.11,5.11,0,0,1,2.93-.91A5.16,5.16,0,0,1,99.71,15a5.11,5.11,0,0,1-2.59.88,6,6,0,0,0,.72-1.06h0"/><path id="Fill-71" class="cls-1" d="M95.25,13.53a5,5,0,0,1,2.21-2.15,7.35,7.35,0,0,1,.09.79,5.14,5.14,0,0,1-.5,2.24A5.24,5.24,0,0,1,95,16.48a6.07,6.07,0,0,0-.14-1.64,5,5,0,0,1,.42-1.31"/><path id="Fill-72" class="cls-1" d="M94.62,18.07A4.55,4.55,0,0,1,96.51,17a5.27,5.27,0,0,1,2.95.21,5.22,5.22,0,0,1-1.74,1.36,6.25,6.25,0,0,0-3.25.2l-.14-.05a4.51,4.51,0,0,0,.29-.67"/><path id="Fill-73" class="cls-1" d="M92,16.74a5.25,5.25,0,0,1,1.65-2.6,5.8,5.8,0,0,1,.41,2A5,5,0,0,1,94,17.21a5.09,5.09,0,0,1-1.52,2.48,6.22,6.22,0,0,0-.52-1.54c0-.12,0-.24,0-.33A4.9,4.9,0,0,1,92,16.74"/><path id="Fill-74" class="cls-1" d="M89.67,20.66a5.26,5.26,0,0,1,1-2.9,5.14,5.14,0,0,1,1,2.88v.05a5.06,5.06,0,0,1-.91,2.73,6.38,6.38,0,0,0-.81-1.34,4.51,4.51,0,0,1-.27-1.4v0"/><path id="Fill-75" class="cls-1" d="M88.53,21.94a5.26,5.26,0,0,1,1.67,2.59,4.68,4.68,0,0,1,.14,1.17A5.46,5.46,0,0,1,90,27.48a6.1,6.1,0,0,0-1.12-1.15A4.35,4.35,0,0,1,88.26,25a5,5,0,0,1,.27-3.08"/><path id="Fill-76" class="cls-1" d="M87.46,26.54a5.12,5.12,0,0,1,2.23,2.11A4.85,4.85,0,0,1,90.25,31a5.51,5.51,0,0,1-.06.57,6.44,6.44,0,0,0-1.38-.84,4.16,4.16,0,0,1-.87-1.14,4.92,4.92,0,0,1-.57-2.32,4.06,4.06,0,0,1,.09-.7"/><path id="Fill-77" class="cls-1" d="M108.59,36.45h-1.21v-26a20.39,20.39,0,0,1,1.21,7.46V36.45Zm4.92,8.6-.12.06a13.77,13.77,0,0,1-4.74,1.52,9.76,9.76,0,0,0,.91-4.45,11.31,11.31,0,0,0-.58-3.77h2.53c1.44,0,2-.84,2-1.63a1.19,1.19,0,0,0-1.15-1.2,1.16,1.16,0,0,0-1.17,1.16,1,1,0,0,0,.13.46c.1.2.17.43-.27.43h-1.52V17.91a20,20,0,0,0-1.76-9l-.44-.9-.44.9a20,20,0,0,0-1.74,9V37.63h-1.55c-.42,0-.36-.23-.26-.43a1,1,0,0,0,.12-.46,1.15,1.15,0,0,0-1.15-1.16,1.22,1.22,0,0,0-1.17,1.2c0,.77.63,1.63,2.07,1.63h2.54a11,11,0,0,0-.59,3.77,9.74,9.74,0,0,0,.91,4.46,13.66,13.66,0,0,1-4.83-1.53l-.12-.06-.37.84.1,0a14.58,14.58,0,0,0,3.8,1.3l1.88.35a1,1,0,0,0,.75,1.8,1,1,0,0,0,1.06-1,1.06,1.06,0,0,0-.31-.77l1.83-.34a14.56,14.56,0,0,0,3.85-1.31l.11,0-.36-.84Z"/></g></g></g></g></svg>