<svg xmlns="http://www.w3.org/2000/svg" width="1014.9601" height="189.1821" viewBox="0 0 1014.9601 189.1821"><defs><style>.cls-1{fill:#fff;}</style></defs><title>Monash-60Years-logo</title><g id="Layer_2" data-name="Layer 2"><g id="Layer_1-2" data-name="Layer 1"><g id="Layer_1-3" data-name="Layer 1"><path d="M253.33,92.3821v46.15c0,18.97-7.79,27.81-24.51,27.81-19.37,0-23.44-15.12-23.44-27.81v-46.15h-5.65v46.15c0,21.78,9.79,32.82,29.09,32.82,20.01,0,30.16-11.05,30.16-32.82v-46.15h-5.65Z"/><path d="M295.56,112.4321c-8.67,0-16.19,4.66-19.38,11.72v-10.43h-5.01v55.83h5.01v-30.17c0-13.65,7.56-22.47,19.27-22.47,15.11,0,15.11,13.14,15.11,17.47v35.17h5.01v-34.43C315.56,128.9121,315.56,112.4321,295.56,112.4321Z"/><polygon points="327.96 113.712 327.96 169.552 332.97 169.552 332.97 113.712 332.49 113.712 327.96 113.712"/><polygon points="327.96 96.632 327.96 104.162 332.97 104.162 332.97 96.632 332.49 96.632 327.96 96.632"/><path d="M382.66,113.7121s-17.73,47.89-18.36,49.61c-.67-1.7-19.63-49.61-19.63-49.61h-5.72l22.48,55.83h5.67l21.07-55.83h-5.51Z"/><path d="M415.44,112.4321a22.5313,22.5313,0,0,0-16.43,6.6c-5.39,5.48-8.41,14.06-8.28,23.56-.12,8.76,2.58,16.41,7.63,21.52,4.32,4.39,10.23,6.71,17.08,6.71,13.41,0,22-7.2,24.17-20.26l.1-.55h-5l-.07.39c-1.9,9.98-9.07,15.94-19.19,15.94a17.7,17.7,0,0,1-13.14-5.27c-4.18-4.25-6.56-10.91-6.56-18.32v-.11h44.29l.02-.46c.03-.71.05-1.4.05-2.09,0-8.54-2.54-15.89-7.24-20.81C428.52,114.7421,422.67,112.4321,415.44,112.4321Zm0,4.48c12.41,0,19.16,10.61,19.55,21.25H395.82C396.85,127.5221,403.82,116.9121,415.44,116.9121Z"/><path d="M454.03,124.7921v-11.08h-5v55.83h5v-30.49c.44-8.36,2.23-11.52,6.06-15.47a18.237,18.237,0,0,1,14.76-5.2l.54.07v-5.04l-.46-.02C465.78,112.9921,457.01,117.9321,454.03,124.7921Z"/><path d="M501.8,138.6021c.01.01-1.69-.36-1.69-.36-8.32-1.77-16.17-3.43-16.17-11.24,0-7.44,7.91-10.09,15.32-10.09,5.83,0,15.63,1.75,15.76,13.52v.47h5v-.47c0-11.61-7.37-18-20.76-18-4.77,0-20.33,1.06-20.33,14.57,0,12.16,11.14,14.41,19.27,16.06l1.45.29c8.72,1.75,16.97,3.42,16.97,11.84,0,10.07-11.84,11.16-16.93,11.16-10.14,0-17.08-6.11-17.67-15.56l-.03-.45H477l.01.49c.31,12.34,9,20,22.68,20,5.15,0,21.93-1.13,21.93-15.64C521.62,143.2521,512.64,140.6221,501.8,138.6021Z"/><polygon points="531.88 113.712 531.88 169.552 536.89 169.552 536.89 113.712 536.41 113.712 531.88 113.712"/><path d="M558.45,113.7121v-17.08h-5.01v17.08H543.3v4.48h10.14v37.85c-.01.32-.02.64-.02.95,0,4.3,1.05,7.42,3.22,9.52,3.32,3.23,8.8,3.31,13.21,3.04l.44-.03v-4.46l-.49.01c-4.53.12-7.51-.15-9.31-1.88-1.4-1.36-2.05-3.63-2.05-7.15v-37.85h13.93c5.49,13.04,21.16,50.29,21.27,50.57-2.47,6.99-3.96,11.04-5.48,12.56-2.59,2.6-5.18,3.39-11.09,3.39h-.48v4.47h.48c6.11,0,10.04-.17,13.1-2.55,2.37-1.83,4.13-5.75,6.55-11.52,0-.01,23.74-61.41,23.74-61.41h-5.61s-17.67,47.07-18.48,49.24c-.87-2.15-20.05-49.24-20.05-49.24H558.45Z"/><polygon points="531.87 96.632 531.87 104.162 536.89 104.162 536.89 96.632 536.41 96.632 531.87 96.632"/><path d="M326.46,79.8221c-22.19-.46-40.84-17.49-40.27-41.04.58-18.52,15.46-39.56,42.55-38.76,18.86.35,40.03,14.52,39.46,40.58C367.63,66.6721,345.54,80.4021,326.46,79.8221Zm.79-74.99c-16.92,0-28.72,12.46-28.72,33.38,0,25.04,14.88,36.35,28.95,36.35,16.92,0,28.15-13.02,28.15-33.61C355.85,18.8921,344.4,4.8321,327.25,4.8321Z"/><path d="M652.48,2.1421v-1.1H630.3v1.1c4.39.29,5.6,1.15,5.6,7.38v27.06H596.11V9.5321c0-6.23,1.21-7.09,5.6-7.38v-1.1H579.53v1.1c4.39.29,5.6,1.15,5.6,7.38v60.76c0,6.24-1.21,7.12-5.6,7.4v1.09h22.18v-1.09c-4.39-.28-5.6-1.16-5.6-7.4v-29.01H635.9v29.01c0,6.24-1.22,7.12-5.6,7.4v1.09h22.18v-1.09c-4.39-.28-5.6-1.16-5.6-7.4V9.5321C646.88,3.2921,648.09,2.4321,652.48,2.1421Z"/><path d="M374.07,1.0421v1.1c4.27.23,5.48.7,5.48,5.19v62.96c0,6.24-1.21,7.12-5.6,7.4v1.09h16.74v-1.09c-4.39-.28-5.61-1.16-5.61-7.4v-56.56c0,1.03,43.29,53.7,52.64,65.05h1.79V7.3321c0-4.49,1.21-4.96,5.48-5.19v-1.1H428.53v1.1c4.27.23,5.49.7,5.49,5.19v49.39l-45.16-55.68Z"/><path d="M483.15,1.0421H481.6c-3.94,9.34-22.12,52.39-28.46,67.27-1.1,2.55-2.86,6.67-4.18,8.11a3.8512,3.8512,0,0,1-2.94,1.27v1.09H460.8v-1.09c-1.17,0-3.71-.02-3.89-2.2a6.9023,6.9023,0,0,1,.42-2.3c.46-1.38,3.43-8.92,7.21-17.5h29.61c2.91,7.24,5.58,13.42,6.81,16.16h0a13.1409,13.1409,0,0,1,1.1,3.63c0,2.15-1.91,2.2-4.04,2.2v1.09h20.66v-1.09c-2.54-.17-3.35-.81-5.2-5.01Zm-16.67,49.73c5.03-12.35,12.81-32.01,12.81-32.01s6.97,17.6,12.92,32.01Z"/><path d="M195.72,1.0421v1.1c2.39.13,3.8.36,4.6,1.3a6.6822,6.6822,0,0,1,.61,1.15v.01a4.8238,4.8238,0,0,1,.22,1.25c.04.44.06.93.06,1.48v62.96c0,6.24-1.21,7.12-5.6,7.4v1.09h16.58v-1.09c-4.39-.28-5.6-1.16-5.6-7.4v-53.92c0-1.03-.23-2.98-.23-2.98l1.03,2.98,26.85,62.12h1.63l27.42-63.96.8-2.63a15.659,15.659,0,0,0-.23,2.41v55.98c0,6.24-1.21,7.12-5.59,7.4v1.09h22.18v-1.09c-4.39-.28-5.6-1.16-5.6-7.4V7.3321c0-4.49,1.21-4.96,5.48-5.19v-1.1H263.06l-24.81,58.65L213.1,1.0421Z"/><path d="M522.58,73.5521c5.22,3.14,12.95,6.43,21.14,6.4.16,0,.31-.01.47-.01,12.13-.17,24.92-9.15,24.92-23.3,0-15.32-10.75-18.87-21.61-24.47-10.97-5.37-15.55-8.12-15.55-15.32,0-4.92,2.97-12.11,12.69-12.11a17.3576,17.3576,0,0,1,8.17,2.02c7.87,4.37,8.25,10.55,9.27,14.47h1.15l-.67-17.31a49.4237,49.4237,0,0,0-11.77-3.44,35.5682,35.5682,0,0,0-4.55-.31c-10.86,0-23.66,6.52-23.66,20.23,0,9.37,5.6,15.21,16.69,20.69,10.97,5.6,19.32,7.78,19.32,18.75,0,5.61-3.2,15.31-15.54,15.31a18.1948,18.1948,0,0,1-11.96-4.29c-7.32-6.92-7.15-12.4-7.71-14.45h-1.14l.34,17.14"/><path d="M21.01,60.5521a104.364,104.364,0,0,0,15.07,53.21,87.33,87.33,0,0,0,43.26,36.25,86.9277,86.9277,0,0,0,43.33-36.25,104.0992,104.0992,0,0,0,15.06-53.21V.7221L21.01.7121Z"/><path d="M144.72,88.6821l-.57,1.93c-.68,2.3-1.44,4.54-2.23,6.69l-5.03-4.53-.61,1.82a105.7205,105.7205,0,0,1-10.39,22.16c-10.96,17.55-26.45,30.35-44.67,37.01,0,0-1.31.46-1.87.67-.52-.2-1.81-.67-1.81-.67-18.21-6.67-33.68-19.46-44.64-37.01a102.4066,102.4066,0,0,1-10.39-22.16l-.62-1.82-1.46,1.28-3.56,3.22c-.79-2.15-1.56-4.35-2.25-6.66l-.56-1.92-1.48,1.34L0,101.3721l.23.76a145.6488,145.6488,0,0,0,11.54,26.01l.73,1.37,5.23-4.68c.2.35.36.73.58,1.07,13.03,20.82,31.47,36.03,53.33,44.02l7.71,2.83,7.8-2.83c21.86-8,40.26-23.21,53.29-44.01.21-.34.4-.73.61-1.07l5.15,4.66.78-1.37a140.63,140.63,0,0,0,11.53-26.02l.23-.75Z"/><path class="cls-1" d="M127.94,27.0121a5.2782,5.2782,0,0,1-.54,2.32,3.7275,3.7275,0,0,1-.85,1.16,5.5566,5.5566,0,0,0-1.39.86,3.984,3.984,0,0,1-.07-.58,4.6775,4.6775,0,0,1,.57-2.33,5.3973,5.3973,0,0,1,2.19-2.15A6.156,6.156,0,0,1,127.94,27.0121Z"/><path class="cls-1" d="M118.45,42.8321h0a4.979,4.979,0,0,1,2.96.53,4.5724,4.5724,0,0,1-2.66,1.43,5.5615,5.5615,0,0,1-3.08-.52A5.2709,5.2709,0,0,1,118.45,42.8321Z"/><path class="cls-1" d="M113.43,44.4021a1.7852,1.7852,0,0,1-.02-.23,5.0234,5.0234,0,0,1,.75-2.67h.01a4.7447,4.7447,0,0,1,2.26-1.86,1.3329,1.3329,0,0,1,.03.28,4.888,4.888,0,0,1-.74,2.6A4.3036,4.3036,0,0,1,113.43,44.4021Z"/><path class="cls-1" d="M117.3,38.9821a5.3541,5.3541,0,0,1,1.46-1.59,5.9732,5.9732,0,0,1,.29,1.38,4.7329,4.7329,0,0,1-.25,1.54,4.5593,4.5593,0,0,1-1.24,1.81,5.9331,5.9331,0,0,0-.63.22.7006.7006,0,0,1-.03-.14A6.0508,6.0508,0,0,0,117.3,38.9821Z"/><path class="cls-1" d="M119.49,36.5021a5.5018,5.5018,0,0,1,1.08-1.92,5.0734,5.0734,0,0,1,.72,2.47c0,.13,0,.26-.01.39a4.3575,4.3575,0,0,1-.74,2.05,5.8271,5.8271,0,0,0-.62.39l-.06-.12A6.053,6.053,0,0,0,119.49,36.5021Z"/><path class="cls-1" d="M121.03,33.5321a6.9461,6.9461,0,0,1,.5-2.08,4.8535,4.8535,0,0,1,1.39,2.61c.02.23.04.45.04.66a4.3335,4.3335,0,0,1-.29,1.49,4.8841,4.8841,0,0,0-.49.53.47.47,0,0,1-.09-.12A6.9221,6.9221,0,0,0,121.03,33.5321Z"/><path class="cls-1" d="M121.76,30.3221a4.7667,4.7667,0,0,1-.11-.99,5.2981,5.2981,0,0,1,.2-1.12,4.96,4.96,0,0,1,1.96,2.19,5.0684,5.0684,0,0,1,.34,1.83,2.66,2.66,0,0,1-.03.28,4.4623,4.4623,0,0,0-.4.66l-.12-.09A6.34,6.34,0,0,0,121.76,30.3221Z"/><path class="cls-1" d="M121.82,27.0821a5.0643,5.0643,0,0,1-.47-2.17,5.5084,5.5084,0,0,1,2.44,1.72,4.59,4.59,0,0,1,.8,2,7.1694,7.1694,0,0,0-.22.71c-.06-.02-.1-.03-.15-.05A6.1209,6.1209,0,0,0,121.82,27.0821Z"/><path class="cls-1" d="M124.11,25.4821c-.07-.01-.12-.02-.19-.03a6.4111,6.4111,0,0,0-2.75-1.62,5.2209,5.2209,0,0,1-.93-1.94,4.77,4.77,0,0,1,2.67,1.09,4.5355,4.5355,0,0,1,1.24,1.81A5.3223,5.3223,0,0,0,124.11,25.4821Z"/><path class="cls-1" d="M122.84,21.8321a5.8565,5.8565,0,0,0-3.12-.95,6.0713,6.0713,0,0,1-1.43-1.73,5.2311,5.2311,0,0,1,2.97.5,4.7776,4.7776,0,0,1,1.54,1.44,6.6,6.6,0,0,0,.13.73A.3085.3085,0,0,0,122.84,21.8321Z"/><path class="cls-1" d="M120.83,42.1221a5.6283,5.6283,0,0,0-1.56-.24,5.6563,5.6563,0,0,1,2.16-1.9h0a5.2325,5.2325,0,0,1,3.09-.18,4.906,4.906,0,0,1-2.32,1.99A4.0343,4.0343,0,0,1,120.83,42.1221Z"/><path class="cls-1" d="M123.63,38.7321a5.8543,5.8543,0,0,0-1.62.13,5.1182,5.1182,0,0,1,1.76-2.37v-.01a5.25,5.25,0,0,1,2.98-.94,5.24,5.24,0,0,1-1.8,2.58A5.661,5.661,0,0,1,123.63,38.7321Z"/><path class="cls-1" d="M126.7,33.8821a4.3508,4.3508,0,0,1-1.15.94,6.4815,6.4815,0,0,0-1.49.47,5.3488,5.3488,0,0,1,1.11-2.75,5.58,5.58,0,0,1,2.61-1.51A5.1486,5.1486,0,0,1,126.7,33.8821Z"/><path class="cls-1" d="M127.23,23.6221a5.0426,5.0426,0,0,1-.14,1.16,3.7612,3.7612,0,0,1-.6,1.34,5.5476,5.5476,0,0,0-1.14,1.13,5.1537,5.1537,0,0,1-.37-1.78,4.8333,4.8333,0,0,1,1.84-3.78A5.6254,5.6254,0,0,1,127.23,23.6221Z"/><path class="cls-1" d="M123.65,20.3721a5.312,5.312,0,0,1,1.02-2.89,5.2638,5.2638,0,0,1,1,2.91v.02a4.763,4.763,0,0,1-.27,1.44,6.8044,6.8044,0,0,0-.84,1.34,5.0673,5.0673,0,0,1-.92-2.77A.1338.1338,0,0,0,123.65,20.3721Z"/><path class="cls-1" d="M121.58,13.8721a5.02,5.02,0,0,1,1.67,2.61,5.4845,5.4845,0,0,1,.13,1.06,3.1626,3.1626,0,0,1-.03.32,6.3594,6.3594,0,0,0-.52,1.58,4.8423,4.8423,0,0,1-1.5-2.48,7.0476,7.0476,0,0,1-.09-1.12A6.0909,6.0909,0,0,1,121.58,13.8721Z"/><path class="cls-1" d="M121.01,18.4821a1.026,1.026,0,0,0-.14.04,6.2579,6.2579,0,0,0-3.31-.2,6.1048,6.1048,0,0,1-1.76-1.33,5.2474,5.2474,0,0,1,3.02-.22,4.574,4.574,0,0,1,1.91,1.03A5.72,5.72,0,0,0,121.01,18.4821Z"/><path class="cls-1" d="M117.83,11.0821a5.0071,5.0071,0,0,1,2.24,2.17,5.1808,5.1808,0,0,1,.44,1.29,6.2564,6.2564,0,0,0-.14,1.67,5.6061,5.6061,0,0,1-2.13-2.08,5.1562,5.1562,0,0,1-.49-2.26A4.0693,4.0693,0,0,1,117.83,11.0821Z"/><path class="cls-1" d="M116.7,13.0821a4.121,4.121,0,0,1,.31.28,5.6387,5.6387,0,0,0,.42,1.15v.01a6.3266,6.3266,0,0,0,.73,1.07,5.2371,5.2371,0,0,1-2.64-.89,5.5052,5.5052,0,0,1-1.75-2.54A5.0021,5.0021,0,0,1,116.7,13.0821Z"/><path class="cls-1" d="M102.84,35.3921a1.1524,1.1524,0,0,1,1.1,1.17,1.0077,1.0077,0,0,1-.13.47c-.1.21-.17.44.27.44h1.57v-19.83a19.9184,19.9184,0,0,1,1.77-9.08l.45-.88.45.88a20.8985,20.8985,0,0,1,1.71,9.08v19.83h1.56c.44,0,.37-.24.26-.44a1.0119,1.0119,0,0,1-.12-.47,1.1651,1.1651,0,0,1,1.17-1.17,1.2081,1.2081,0,0,1,1.18,1.21c0,.82-.63,1.66-2.09,1.66H109.4a11.0291,11.0291,0,0,1,.6,3.77,10.7935,10.7935,0,0,1-.85,4.48,14.1189,14.1189,0,0,0,4.75-1.53l.13-.08.36.85-.1.06a14.6761,14.6761,0,0,1-3.93,1.33s-1.06.2-1.78.33a1.0235,1.0235,0,0,1,.31.77,1.042,1.042,0,0,1-1.07,1.05,1.0782,1.0782,0,0,1-1.09-1.05,1.0948,1.0948,0,0,1,.33-.77c-.77-.13-1.88-.33-1.91-.33a14.5633,14.5633,0,0,1-3.79-1.33l-.1-.06.37-.85.12.08a14.4165,14.4165,0,0,0,4.85,1.54,9.6471,9.6471,0,0,1-.93-4.5,11.0463,11.0463,0,0,1,.59-3.77h-2.58c-1.38,0-2.02-.86-2.02-1.66A1.1994,1.1994,0,0,1,102.84,35.3921Z"/><path class="cls-1" d="M98.77,42.1921a.6641.6641,0,0,1-.03.15,4.384,4.384,0,0,0-.64-.22,4.1216,4.1216,0,0,1-1.15-1.82,4.9677,4.9677,0,0,1-.25-1.54,6.7178,6.7178,0,0,1,.28-1.39,6.4089,6.4089,0,0,1,1.39,1.6A6.0249,6.0249,0,0,0,98.77,42.1921Z"/><path class="cls-1" d="M96.04,20.8821a5.9846,5.9846,0,0,0-3.19.95.4869.4869,0,0,0-.12-.01,3.9074,3.9074,0,0,0,.14-.73,4.525,4.525,0,0,1,1.61-1.44,5.2175,5.2175,0,0,1,2.9-.51A5.0709,5.0709,0,0,1,96.04,20.8821Z"/><path class="cls-1" d="M95.91,39.7521a1.275,1.275,0,0,1-.07.12c-.2-.14-.4-.27-.61-.39a4.5726,4.5726,0,0,1-.76-2.05c-.01-.14-.02-.26-.02-.39a5.1773,5.1773,0,0,1,.72-2.46,4.9915,4.9915,0,0,1,1.08,1.92A5.914,5.914,0,0,0,95.91,39.7521Z"/><path class="cls-1" d="M92.75,34.0721a4.9873,4.9873,0,0,1,1.39-2.61,4.9713,4.9713,0,0,1,.58,2.08,6.2545,6.2545,0,0,0-1.14,3.09l-.09.12c-.16-.19-.33-.36-.5-.53a4.5184,4.5184,0,0,1-.28-1.49A3.7689,3.7689,0,0,1,92.75,34.0721Z"/><path class="cls-1" d="M92.07,33.0721a.6233.6233,0,0,1-.12.09,6.3793,6.3793,0,0,0-.38-.67,1.1734,1.1734,0,0,1-.05-.27,4.8762,4.8762,0,0,1,.35-1.83,4.9361,4.9361,0,0,1,1.95-2.19,6.906,6.906,0,0,1,.19,1.12,4.1888,4.1888,0,0,1-.12.99A6.7214,6.7214,0,0,0,92.07,33.0721Z"/><path class="cls-1" d="M92.78,22.9921a4.87,4.87,0,0,1,2.74-1.09,5.4479,5.4479,0,0,1-.95,1.93,6.5,6.5,0,0,0-2.84,1.63.6518.6518,0,0,0-.16.03c0-.23-.02-.46-.04-.68A4.1274,4.1274,0,0,1,92.78,22.9921Z"/><path class="cls-1" d="M91.89,26.6321a5.2718,5.2718,0,0,1,2.45-1.72,4.9551,4.9551,0,0,1-.49,2.15,6.3423,6.3423,0,0,0-2.41,2.23.893.893,0,0,0-.13.05,6.2858,6.2858,0,0,0-.2-.71A4.229,4.229,0,0,1,91.89,26.6321Z"/><path class="cls-1" d="M91.62,35.2921a5.5653,5.5653,0,0,0-1.41-.47,4.3963,4.3963,0,0,1-1.16-.94,5.0544,5.0544,0,0,1-1.16-2.85,5.4981,5.4981,0,0,1,2.69,1.51A5.665,5.665,0,0,1,91.62,35.2921Z"/><path class="cls-1" d="M91.92,36.4821l.01.01a5.2187,5.2187,0,0,1,1.74,2.37,5.8642,5.8642,0,0,0-1.63-.13,4.3679,4.3679,0,0,1-1.24-.62,5.016,5.016,0,0,1-1.78-2.57A4.9726,4.9726,0,0,1,91.92,36.4821Z"/><path class="cls-1" d="M94.25,39.9821h0a5.3077,5.3077,0,0,1,2.25,1.9,5.6413,5.6413,0,0,0-1.57.24,4.2537,4.2537,0,0,1-1.45-.33,4.7264,4.7264,0,0,1-2.3-1.99A5.1763,5.1763,0,0,1,94.25,39.9821Z"/><path class="cls-1" d="M97.25,42.8321h0a5.2309,5.2309,0,0,1,2.74,1.44,5.3488,5.3488,0,0,1-3,.52,5.1512,5.1512,0,0,1-2.73-1.43A5.1862,5.1862,0,0,1,97.25,42.8321Z"/><path class="cls-1" d="M99.94,42.5121a4.8544,4.8544,0,0,1-.73-2.6c0-.09.02-.18.03-.28a5.2252,5.2252,0,0,1,2.36,1.86h0a4.9409,4.9409,0,0,1,.74,2.67c0,.08-.01.15-.01.23A4.6764,4.6764,0,0,1,99.94,42.5121Z"/><path class="cls-1" d="M98.25,14.5121a6.2747,6.2747,0,0,0,.41-1.15c.1-.09.21-.19.33-.28a5.2127,5.2127,0,0,1,2.99-.92,5.1542,5.1542,0,0,1-1.82,2.54,5.2371,5.2371,0,0,1-2.64.89,6.9738,6.9738,0,0,0,.73-1.07Z"/><path class="cls-1" d="M95.69,13.2521a5.0835,5.0835,0,0,1,2.16-2.17,6.649,6.649,0,0,1,.1.78,5.0391,5.0391,0,0,1-.52,2.26,4.8359,4.8359,0,0,1-2.03,2.08,6.2908,6.2908,0,0,0-.14-1.67A4.83,4.83,0,0,1,95.69,13.2521Z"/><path class="cls-1" d="M95.04,17.8021a4.6894,4.6894,0,0,1,1.91-1.03,4.9424,4.9424,0,0,1,2.92.22,5.89,5.89,0,0,1-1.75,1.33,6.0385,6.0385,0,0,0-3.24.2.7366.7366,0,0,0-.14-.04A4.539,4.539,0,0,0,95.04,17.8021Z"/><path class="cls-1" d="M92.42,16.4821a4.9972,4.9972,0,0,1,1.67-2.61,5.4844,5.4844,0,0,1,.42,1.97,4.7427,4.7427,0,0,1-.12,1.12,5.2116,5.2116,0,0,1-1.54,2.48,6.5333,6.5333,0,0,0-.53-1.58c-.01-.1-.01-.22-.01-.32A4.294,4.294,0,0,1,92.42,16.4821Z"/><path class="cls-1" d="M90.09,20.3921a5.5292,5.5292,0,0,1,.95-2.91,5.5461,5.5461,0,0,1,.97,2.89v.05a5.2731,5.2731,0,0,1-.88,2.77,5.3768,5.3768,0,0,0-.78-1.34,4.1669,4.1669,0,0,1-.26-1.44Z"/><path class="cls-1" d="M88.92,21.6921a5.3726,5.3726,0,0,1,1.71,2.6,5.2828,5.2828,0,0,1,.14,1.18,5.3779,5.3779,0,0,1-.36,1.78,4.9293,4.9293,0,0,0-1.15-1.13,4.6487,4.6487,0,0,1-.61-1.34,4.5584,4.5584,0,0,1-.15-1.16A6.1056,6.1056,0,0,1,88.92,21.6921Z"/><path class="cls-1" d="M87.84,26.3021a5.0864,5.0864,0,0,1,2.27,2.15,4.9207,4.9207,0,0,1,.56,2.33c0,.18-.04.38-.06.57a5.5775,5.5775,0,0,0-1.4-.85,4.9156,4.9156,0,0,1-.89-1.16,4.6215,4.6215,0,0,1-.58-2.32A5.6708,5.6708,0,0,1,87.84,26.3021Z"/><path d="M109.1,17.6421a20.3609,20.3609,0,0,0-1.23-7.48v26.09h1.23Z"/><path class="cls-1" d="M59.97,38.9921a20.2335,20.2335,0,0,0,6.47.93v-27.4a21.65,21.65,0,0,1-6.8-.98,19.8817,19.8817,0,0,0-5.36-.85h0a6.4056,6.4056,0,0,0-4.29,1.41v27.15a8.0817,8.0817,0,0,1,4.24-1.16A21.3361,21.3361,0,0,1,59.97,38.9921Z"/><path class="cls-1" d="M44.49,38.1021a7.98,7.98,0,0,1,4.23,1.16v-27.15a6.1719,6.1719,0,0,0-4.28-1.41,20.0381,20.0381,0,0,0-5.36.85,21.6518,21.6518,0,0,1-6.78.98v27.4a20.6206,20.6206,0,0,0,6.46-.93A20.3977,20.3977,0,0,1,44.49,38.1021Z"/><path class="cls-1" d="M69.89,13.0921H68.13l.15.61a.5822.5822,0,0,1,.03.19v28.2c-1.38,0-16.63-.03-17.48-.03-.31.53-.7.63-1.5.63-.74,0-1.06-.09-1.38-.63-.78,0-14.82.03-17.57.03v-28.2a.7145.7145,0,0,1,.02-.2l.15-.6H28.18v31.2H47.02a2.5673,2.5673,0,0,0,2.3,1.36,2.6439,2.6439,0,0,0,2.39-1.36H70.55v-31.2h-.66Z"/><path d="M54.24,17.2721a9.8486,9.8486,0,0,0-2.64.43v1.4a8.2474,8.2474,0,0,1,2.68-.5,20.2872,20.2872,0,0,1,5.34.9,28.0469,28.0469,0,0,0,5.1.96v-1.29a25.727,25.727,0,0,1-4.76-.95A21.4886,21.4886,0,0,0,54.24,17.2721Z"/><path d="M54.24,33.1721a9.4813,9.4813,0,0,0-2.64.42v1.4a7.5416,7.5416,0,0,1,2.68-.49,19.8465,19.8465,0,0,1,5.34.86,27.7264,27.7264,0,0,0,5.1.96v-1.29a24.37,24.37,0,0,1-4.78-.94A22.3705,22.3705,0,0,0,54.24,33.1721Z"/><path d="M54.24,29.9821a10.28,10.28,0,0,0-2.64.42v1.41a7.9641,7.9641,0,0,1,2.68-.51,20.76,20.76,0,0,1,5.35.88,27.7777,27.7777,0,0,0,5.09.96v-1.28a26.5752,26.5752,0,0,1-4.76-.95A20.9068,20.9068,0,0,0,54.24,29.9821Z"/><path d="M54.24,20.4521a9.4813,9.4813,0,0,0-2.64.42v1.4a8.2474,8.2474,0,0,1,2.68-.5,20.1738,20.1738,0,0,1,5.32.89,28.87,28.87,0,0,0,5.11.96v-1.29a26.8919,26.8919,0,0,1-4.79-.94A20.2408,20.2408,0,0,0,54.24,20.4521Z"/><path d="M54.24,26.8321a9.18,9.18,0,0,0-2.64.38v1.4a7.5059,7.5059,0,0,1,2.67-.46,20.1772,20.1772,0,0,1,5.33.89,29.9155,29.9155,0,0,0,5.12.95v-1.29a27.9241,27.9241,0,0,1-4.8-.94A20.9585,20.9585,0,0,0,54.24,26.8321Z"/><path d="M59.96,15.0221a21.3178,21.3178,0,0,0-5.72-.9,9.51,9.51,0,0,0-2.64.4v1.41a7.9893,7.9893,0,0,1,2.68-.5,20.205,20.205,0,0,1,5.34.88,24.9913,24.9913,0,0,0,5.1.95v-1.29A25.8925,25.8925,0,0,1,59.96,15.0221Z"/><path d="M38.78,30.9321a29.8322,29.8322,0,0,1-4.79.94v1.29a28.9428,28.9428,0,0,0,5.12-.97,19.95,19.95,0,0,1,5.34-.88,8.0161,8.0161,0,0,1,2.7.5v-1.41a10.4329,10.4329,0,0,0-2.65-.42A20.4776,20.4776,0,0,0,38.78,30.9321Z"/><path d="M38.82,27.7621a28.4553,28.4553,0,0,1-4.83.95v1.28a31.3951,31.3951,0,0,0,5.15-.95,19.7784,19.7784,0,0,1,5.3-.89,7.5962,7.5962,0,0,1,2.7.48v-1.4a9.3462,9.3462,0,0,0-2.65-.39A20.364,20.364,0,0,0,38.82,27.7621Z"/><path d="M54.24,23.6321a9.4813,9.4813,0,0,0-2.64.42v1.4a8.2755,8.2755,0,0,1,2.68-.49,19.249,19.249,0,0,1,5.35.9,30.5544,30.5544,0,0,0,5.09.94v-1.28a26.5752,26.5752,0,0,1-4.76-.95A20.9387,20.9387,0,0,0,54.24,23.6321Z"/><path d="M38.79,34.1121a26.103,26.103,0,0,1-4.8.93v1.3a28.9428,28.9428,0,0,0,5.12-.97,19.489,19.489,0,0,1,5.34-.86,7.6408,7.6408,0,0,1,2.7.48v-1.4a9.68,9.68,0,0,0-2.65-.42A21.4668,21.4668,0,0,0,38.79,34.1121Z"/><path d="M38.78,15.0221a26.8978,26.8978,0,0,1-4.79.95v1.29a27.3656,27.3656,0,0,0,5.12-.95,19.56,19.56,0,0,1,5.34-.88,8.5461,8.5461,0,0,1,2.7.5v-1.4a9.2473,9.2473,0,0,0-2.63-.4A20.6368,20.6368,0,0,0,38.78,15.0221Z"/><path d="M38.78,18.2121a26.0391,26.0391,0,0,1-4.79.95v1.29a28.214,28.214,0,0,0,5.12-.96,20.4336,20.4336,0,0,1,5.34-.9,8.6043,8.6043,0,0,1,2.7.5v-1.4a10.0627,10.0627,0,0,0-2.65-.43A21.9805,21.9805,0,0,0,38.78,18.2121Z"/><path d="M38.78,24.5721a27.8156,27.8156,0,0,1-4.79.95v1.28a29.8378,29.8378,0,0,0,5.12-.94,19.1853,19.1853,0,0,1,5.34-.88,8.0433,8.0433,0,0,1,2.7.49v-1.39a9.5832,9.5832,0,0,0-2.63-.43A20.0558,20.0558,0,0,0,38.78,24.5721Z"/><path d="M38.82,21.3921a28.845,28.845,0,0,1-4.83.95v1.29a28.5366,28.5366,0,0,0,5.15-.96,19.7784,19.7784,0,0,1,5.3-.89,8.5783,8.5783,0,0,1,2.7.49v-1.4a9.9882,9.9882,0,0,0-2.63-.42A20.078,20.078,0,0,0,38.82,21.3921Z"/><polygon class="cls-1" points="63.21 110.022 63.16 114.042 59.99 111.562 56.73 114.042 56.65 110.022 52.76 109.022 55.85 106.462 54.19 102.772 58.14 103.592 59.99 99.992 61.75 103.592 65.77 102.772 64.05 106.462 67.14 109.022 63.21 110.022"/><polygon class="cls-1" points="85.24 138.412 81.24 136.902 79.46 140.822 77.73 136.902 73.68 138.412 75.19 134.382 71.3 132.542 75.19 130.782 73.68 126.712 77.73 128.222 79.46 124.282 81.24 128.222 85.24 126.712 83.79 130.782 87.65 132.562 83.79 134.382 85.24 138.412"/><polygon class="cls-1" points="73.56 84.342 77.57 85.182 79.34 81.562 81.18 85.182 85.15 84.342 83.49 88.012 86.58 90.612 82.67 91.582 82.59 95.632 79.34 93.162 76.18 95.632 76.11 91.582 72.2 90.612 75.29 88.012 73.56 84.342"/><polygon class="cls-1" points="89.57 117.012 86.42 115.452 83.36 117.012 83.93 113.562 81.44 111.102 84.88 110.562 86.42 107.482 88.04 110.562 91.43 111.102 89.03 113.562 89.57 117.012"/><polygon class="cls-1" points="102.3 104.332 98.71 104.292 97.01 107.372 95.27 104.292 91.68 104.332 93.52 101.292 91.68 98.232 95.27 98.292 97.01 95.192 98.71 98.292 102.3 98.232 100.45 101.292 102.3 104.332"/><path class="cls-1" d="M79.34,66.6921l44.5,39.92a101.6186,101.6186,0,0,0,6.68-16.19l-51.18-45.95-51.08,45.95a97.9431,97.9431,0,0,0,6.67,16.19Z"/><path class="cls-1" d="M148.37,120.0821l2.41-14.86-6.89-6.18c.72-1.92,1.42-3.85,1.97-5.89,2.06,1.86,9.02,8.1,10.01,8.97A131.2372,131.2372,0,0,1,148.37,120.0821Z"/><path class="cls-1" d="M145.04,125.0421c-.67-.61-1.63-1.47-2.72-2.43a.1689.1689,0,0,0,.02-.05,90.5845,90.5845,0,0,0,4.36-8.21Z"/><path class="cls-1" d="M2.9,102.1321c.98-.87,7.96-7.12,9.96-8.97.63,2.05,1.33,3.96,2.04,5.87l-6.9,6.2,2.39,14.82A130.91,130.91,0,0,1,2.9,102.1321Z"/><path class="cls-1" d="M13.69,125.0421l-1.65-10.72a92.2384,92.2384,0,0,0,4.41,8.27C15.39,123.5321,14.37,124.4421,13.69,125.0421Z"/><path class="cls-1" d="M138.34,124.5821c-12.75,20.32-30.75,35.18-52.07,42.99,0,0-6.14,2.22-6.93,2.52-.69-.3-6.84-2.53-6.84-2.53-21.31-7.8-39.31-22.66-52.08-43a114.9114,114.9114,0,0,1-9.34-18.7c1.1-.98,7.73-6.98,9.7-8.74a106.03,106.03,0,0,0,9.97,20.97c11.32,18.02,27.15,31.19,45.91,38.05.01,0,2.68.96,2.68.96l2.76-.96c18.76-6.85,34.6-20.02,45.87-38.05a103.9147,103.9147,0,0,0,10.02-20.97c1.9,1.76,8.58,7.76,9.7,8.74A116.7878,116.7878,0,0,1,138.34,124.5821Z"/><path d="M24.51,117.8921l2.02-2.24-.17-.68c-.39-.37-.75-.74-1.12-1.16-2.09.37-5.39.9-6.87.97l-.39-.45-.39.22c.21.34.39.69.58,1.04.22.41.43.84.64,1.24l.38-.23-.17-.6,2.18-.5,1.17,2.05a20.4157,20.4157,0,0,1-1.57,1.64l-.42-.49-.42.23c.29.51.59,1,.88,1.51.26.48.53.98.79,1.48l.42-.24-.2-.6C22.24,120.5221,23.55,118.9921,24.51,117.8921Zm-2.42-2.55,2.79-.58.01.02-1.92,2.12Z"/><path d="M34.45,128.3621l.39-.29c-.27-.35-.54-.7-.79-1.05-.26-.35-.5-.71-.74-1.07l-.41.27.3.62c-1.01.84-3.64,2.8-3.64,2.8l-.02-.01c.66-1.85,1.44-3.98,2.13-5.91-.24-.33-.49-.62-.72-.96-.22-.33-.42-.65-.64-1l-.37.29.28.61a16.3685,16.3685,0,0,1-1.59,1.25l-1.75,1.26a16.5942,16.5942,0,0,1-1.71,1.1l-.49-.48-.37.28c.26.35.52.69.77,1.05.23.35.47.71.73,1.07l.38-.28-.3-.62c1.01-.84,2.52-1.91,3.72-2.79l.01.01c-.76,1.94-1.47,3.96-2.24,6.01.18.21.36.45.53.68a6.2346,6.2346,0,0,1,.44.65c.57-.46,1.31-1.02,2.17-1.66l1.69-1.23c.64-.45,1.18-.79,1.73-1.11Z"/><path d="M34.92,134.1721a3.6511,3.6511,0,0,0-.18,5.31,5.0462,5.0462,0,0,0,3.63,1.74l.13-.87a3.2423,3.2423,0,0,1-2.12-1.04,2.6412,2.6412,0,0,1,.16-3.9,2.3072,2.3072,0,0,1,3.46.09,3.831,3.831,0,0,1,.84,1.67l-.39.46.35.4a5.451,5.451,0,0,1,1.58-.92,7.0576,7.0576,0,0,0-1.45-2.26C39.13,132.9421,36.64,132.5621,34.92,134.1721Z"/><path d="M49.22,142.7421c-2.01-1.72-4.37-1.44-5.74.2-1.52,1.88-1.16,3.99.85,5.68,2.09,1.72,4.39,1.44,5.72-.21C51.66,146.5521,51.29,144.4321,49.22,142.7421Zm-.67,4.39c-1.03,1.22-2.47,1.59-3.56.69-1.08-.9-.98-2.37.06-3.59,1.05-1.24,2.48-1.61,3.56-.7C49.63,144.4321,49.52,145.9021,48.55,147.1321Z"/><path d="M59.81,150.4821c-.43-.27-.89-.53-1.34-.79-.45-.27-.9-.52-1.34-.79-.36-.23-.73-.49-1.11-.73l-.26.41.51.47a18.1776,18.1776,0,0,1-1.02,1.77l-1.04,1.81c-.42.64-.78,1.15-1.18,1.66l-.64-.25-.25.41c.5.3.99.59,1.49.9.48.29.94.61,1.39.93l.24-.41-.46-.46a11.9473,11.9473,0,0,1,.97-1.79l.36-.57.47.3c.12,1.1.24,2.95.31,4.26a18.8574,18.8574,0,0,1,2.03,1.08l.25-.4-.21-.29c-.12-.51-.47-3.15-.58-3.88a1.963,1.963,0,0,0,2.6-.63C61.53,152.6421,61.54,151.5821,59.81,150.4821Zm-.52,2c-.47.73-1.2.7-2.1.14a2.601,2.601,0,0,1-.53-.39l.32-.52c.34-.53.64-.97.85-1.24a5.4759,5.4759,0,0,1,.9.48C59.48,151.4121,59.64,151.9221,59.29,152.4821Z"/><path d="M70.69,156.2721l-.55-.45c-.52-.07-1.03-.14-1.59-.27a66.0316,66.0316,0,0,1-4.96,4.9l-.6-.13-.19.44c.36.16.74.31,1.11.48.42.19.86.4,1.28.6l.21-.44-.52-.37,1.46-1.7,2.11.97a18.2815,18.2815,0,0,1-.29,2.24l-.64-.15-.19.43c.54.24,1.09.45,1.63.7.49.23,1.01.48,1.52.72l.19-.44-.5-.37c-.03-.68.1-2.69.24-4.14Zm-2.15,3.14-1.63-.74,1.9-2.13.02.01Z"/><path d="M91.8,161.9821a12.548,12.548,0,0,1-.86-1.83l-.84-1.92c-.32-.72-.55-1.3-.75-1.9l.58-.38-.21-.44c-.53.25-1.05.49-1.57.71-.53.23-1.07.43-1.61.67l.2.42.68-.15c.31.55.59,1.12.91,1.83l.85,1.94c.32.71.53,1.28.75,1.89l-.57.38.19.44c.55-.24,1.06-.49,1.55-.72.48-.23,1.02-.43,1.56-.66l-.2-.43Z"/><path d="M105.1,154.7521c-.39-.52-.73-1.05-1.14-1.7l-1.03-1.83a17.9431,17.9431,0,0,1-.97-1.77l.52-.46-.26-.41c-.43.28-.86.56-1.31.81-.43.26-.9.51-1.34.76.25.95.99,4.61,1.15,5.38-.83-.57-3.5-2.86-4.18-3.53-.44.27-.87.54-1.29.8-.44.26-.89.49-1.34.75l.25.4.6-.2.52.86c.51.86,2.1,3.7,2.5,4.5l-.5.46.24.4c.37-.22.73-.46,1.1-.68.38-.24.77-.44,1.16-.65l-.25-.41-.65.24c-.38-.51-.73-1.04-1.14-1.71l-.6-1.04c-.5-.91-.87-1.55-1.05-1.87l.02-.01c2.68,2.26,4.14,3.44,4.87,4.08l1-.59-1.28-6.26.01-.01c.21.31.61.94,1.15,1.84l.63,1.03a11.3541,11.3541,0,0,1,.91,1.81l-.45.44.21.42c.44-.31.92-.61,1.43-.91.5-.29,1.01-.57,1.51-.87l-.23-.41Z"/><path d="M112.27,149.4421c-.44-.47-.87-.93-1.37-1.54l-.97-1.19a19.66,19.66,0,0,1-1.24-1.71,3.5762,3.5762,0,0,1,.57-.65,1.256,1.256,0,0,1,1.94.08,1.231,1.231,0,0,1-.1,1.93,3.7884,3.7884,0,0,1-.47.31l.36.91a6.0094,6.0094,0,0,0,.95-.63c1.58-1.27,1.63-2.87.76-3.94-.83-1.01-2-1.09-3.3-.03a12.1253,12.1253,0,0,1-1.08.95c-.44.4-.88.74-1.22,1.01-.34.26-.76.58-1.2.95l.3.37.61-.32c.45.45.86.92,1.37,1.51l1.25,1.66c.5.6.87,1.1,1.23,1.62l-.44.52.3.38c.45-.39.88-.76,1.34-1.12.43-.35.9-.68,1.59-1.23l-.32-.37Z"/><path d="M124.02,138.4721a36.6786,36.6786,0,0,1-3.8-1.62l-2.77-1.31-.6.37c-.24.44-.49.91-.8,1.4a69.1706,69.1706,0,0,1,2.97,6.34l-.34.5.35.33c.26-.28.52-.59.81-.86.32-.33.67-.67,1.01-1l-.34-.34-.53.37-1.11-1.95,1.67-1.71a18.92,18.92,0,0,1,1.95,1.03l-.36.54.35.34c.41-.43.8-.87,1.2-1.29.4-.4.8-.79,1.21-1.17l-.36-.33Zm-5.57,1.43-1.36-2.53.01-.03,2.61,1.26Z"/><path d="M132.27,128.2721c-.51.06-3.22.17-3.96.2a1.9825,1.9825,0,0,0-.39-2.67c-.73-.6-1.79-.7-3.07.93-.31.42-.63.84-.93,1.27-.31.42-.61.83-.91,1.22-.28.35-.56.69-.84,1.03l.39.29.51-.47c.55.35,1.06.7,1.69,1.18l1.7,1.28a16.1778,16.1778,0,0,1,1.51,1.31l-.32.61.39.29c.34-.46.68-.93,1.03-1.39.34-.45.72-.88,1.08-1.34l-.4-.29-.49.46a16.4871,16.4871,0,0,1-1.7-1.15l-.47-.42.31-.45c1.07-.02,2.95.05,4.3.09a13.3963,13.3963,0,0,1,1.27-1.87l-.39-.29Zm-5.5,1.25a4.3177,4.3177,0,0,1-.46.48l-.49-.36c-.49-.37-.91-.72-1.17-.94a8.041,8.041,0,0,1,.56-.84c.54-.7,1.07-.82,1.59-.41C127.43,127.9821,127.38,128.7021,126.77,129.5221Z"/><path d="M136.74,115.2221c-2.16-1.25-4.11-.55-5.48,1.74-1.37,2.32-.7,4.56,1.15,5.63,2.05,1.24,4.11.55,5.48-1.74C139.26,118.5521,138.6,116.3021,136.74,115.2221Zm.22,5.1c-.71,1.21-2.18,1.34-3.52.52-1.4-.81-2-2.15-1.28-3.37.73-1.19,2.14-1.32,3.53-.52C137.08,117.7621,137.69,119.1321,136.96,120.3221Z"/><path d="M79.34,161.0521a1.6239,1.6239,0,0,0-1.56,1.63,1.65,1.65,0,0,0,1.56,1.68,1.6836,1.6836,0,0,0,1.68-1.68A1.6544,1.6544,0,0,0,79.34,161.0521Z"/><path d="M18.74,109.2221a1.6554,1.6554,0,1,0-1.62-1.63A1.6546,1.6546,0,0,0,18.74,109.2221Z"/><path d="M140.29,109.2221a1.6554,1.6554,0,1,0-1.62-1.63A1.6784,1.6784,0,0,0,140.29,109.2221Z"/><path d="M796.78,117.6821l57.43-21.14a47.1134,47.1134,0,0,0,3.15-17.18c0-24.61-17.95-37.9-35.91-37.9-11.47,0-19.62,3.82-26.1,12.97l-.33-.33c1-18.62,7.81-35.41,22.28-35.41,7.48,0,13.8,5.65,15.63,14.46h22.44c-2.66-20.28-17.29-32.25-37.74-32.25-33.91,0-45.72,33.58-45.72,60.85C771.91,88.1921,779.36,109.1021,796.78,117.6821Zm19.02-58.44c12.47,0,17.95,11.14,17.95,21.95,0,10.97-6.82,21.28-17.79,21.28-11.47,0-18.79-10.14-18.79-21.61C797.18,68.0521,804.49,59.2421,815.8,59.2421Z"/><path d="M853.35,62.9721a41.9258,41.9258,0,0,1,3.25,16.68,50.1,50.1,0,0,1-.51,7.11,66.4326,66.4326,0,0,0,2.5,8.17l21.11-7.77c-2.72-8.96-2.77-20.13-2.77-27.68,0-11.8,0-39.9,18.79-39.9,17.95,0,19.45,23.61,19.45,39.9,0,4.35-.04,9.56-.5,14.8l24.01-8.84c.06-1.73.1-3.49.1-5.3,0-39.4-15.13-60.02-42.89-60.02-27.93,0-42.56,20.78-42.56,60.02C853.31,61.1021,853.33,62.0321,853.35,62.9721Z"/><path d="M886.06,85.2121l6.03,14.28,6.03-14.28h2.61l-7.41,17.17v11.47h-2.46v-11.47l-7.41-17.17Z"/><path d="M916.34,85.2121v2.17H905.21v10.43h10.4v2.17h-10.4v11.71h11.47v2.17H902.75v-28.64h13.59Z"/><path d="M928.77,85.2121l8.1,28.64h-2.61l-2.23-8.34h-9.59l-2.23,8.34H917.6l8.1-28.64Zm-5.79,18.13h8.52l-4.22-16.13h-.08Z"/><path d="M947.31,85.2121c4.18,0,6.95,2.49,6.95,7.18,0,3.93-1.65,6.62-4.95,7.26v.08h.04c4.72.44,4.64,4.29,4.72,9.83.04,2.21.42,3.45,1.15,4.29h-2.88c-.46-.72-.77-2.45-.77-4.85,0-3.49-.35-5.74-1.11-6.74-.73-.96-1.96-1.48-4.18-1.48h-4.84v13.08h-2.46v-28.64h8.33Zm-1.65,13.4c3.92,0,6.14-1.84,6.14-5.66,0-4.01-2-5.58-5.91-5.58h-4.45v11.23h4.22Z"/><path d="M971.68,92.5521h-2.46c0-3.77-1.69-5.66-4.91-5.66a4.8683,4.8683,0,0,0-5.18,5.13c0,4.29,3.45,5.34,6.99,6.5a11.72,11.72,0,0,1,4.37,2.37,6.5915,6.5915,0,0,1,1.92,5.09c0,5.29-3.03,8.34-8.29,8.34-5.18,0-7.98-2.77-7.98-8.67v-.68h2.46v.92c0,4.05,1.88,6.26,5.45,6.26,3.76,0,5.91-2.09,5.91-5.82,0-3.69-2.42-4.97-6.33-6.22-2.99-.96-4.57-1.92-5.53-3.13a7.2849,7.2849,0,0,1-1.42-4.69c0-4.53,2.92-7.58,7.56-7.58C969.22,84.7321,971.68,87.2921,971.68,92.5521Z"/><path d="M998.27,99.5321c0,9.91-2.96,14.8-8.75,14.8-5.83,0-8.75-4.85-8.75-14.8s2.92-14.8,8.75-14.8C995.32,84.7321,998.27,89.6221,998.27,99.5321Zm-8.75,12.64c4.26,0,6.29-4.01,6.29-12.64,0-8.58-2-12.64-6.33-12.64-4.26,0-6.25,4.17-6.25,12.64C983.23,108.1521,985.3,112.1721,989.52,112.1721Z"/><path d="M1014.96,85.2121v2.17h-11.13v10.43h10.4v2.17h-10.4v13.88h-2.46v-28.64h13.59Z"/><path d="M894.01,121.7321l3.99,20.62h.08l4.03-20.62h8.33v29.21h-5.16v-23.32h-.08l-4.97,23.32h-4.38l-4.97-23.32h-.08v23.32h-5.17v-29.21h8.38Z"/><path d="M927.07,121.7321l7.39,29.21h-5.87l-1.29-6.18h-7.43l-1.29,6.18h-5.87l7.39-29.21h6.97Zm-3.52,5.07-2.7,13.13h5.48l-2.7-13.13Z"/><path d="M942.26,121.7321v11.7h.08l7.12-11.7h6.1l-7.59,12.52,8.45,16.69h-6.34l-5.75-11.99-2.07,3.31v8.67h-5.63v-29.21h5.63Z"/><path d="M963.74,121.7321v29.21h-5.63v-29.21h5.63Z"/><path d="M974.62,121.7321l6.81,20h.08v-20h5.17v29.21h-6.42l-6.88-20.45h-.08v20.45h-5.16v-29.21h6.48Z"/><path d="M1008.58,130.4021h-5.4c-.04-2.21-.86-4.91-3.21-4.91-2.31,0-3.83,2-3.83,10.27,0,8.84,1.25,11.41,3.87,11.41,1.37,0,3.48-1.47,3.48-4.7v-2.95h-3.72v-4.34h9.12v15.75h-4.15v-2.7h-.08a6.1881,6.1881,0,0,1-5.87,3.27c-6.42,0-8.29-4.38-8.29-15.46,0-9.33,1.88-14.89,9.39-14.89C1005.76,121.1621,1008.58,124.1921,1008.58,130.4021Z"/><path d="M903.09,168.3921v.29h-5.63c0-3.56-.47-6.1-3.36-6.1-3.05,0-3.52,3.8-3.52,11.17,0,8.26.9,10.51,3.6,10.51,2.5,0,3.52-2.04,3.52-7.4h5.63c0,6.67-1.68,11.74-8.88,11.74-7.98,0-9.51-5.36-9.51-15.18,0-9.57,1.45-15.18,9.51-15.18C900.98,158.2521,903.09,162.2221,903.09,168.3921Z"/><path d="M912.36,158.8221v11.17h6.57v-11.17h5.63v29.21h-5.63v-12.97h-6.57v12.97h-5.63v-29.21Z"/><path d="M941.08,158.8221l7.39,29.21H942.6l-1.29-6.18h-7.43l-1.29,6.18h-5.87l7.39-29.21Zm-3.52,5.07-2.7,13.13h5.48l-2.7-13.13Z"/><path d="M957.13,158.8221l6.81,20h.08v-20h5.16v29.21h-6.42l-6.89-20.45h-.08v20.45h-5.16v-29.21Z"/><path d="M991.09,167.4921h-5.4c-.04-2.21-.86-4.91-3.21-4.91-2.31,0-3.83,2-3.83,10.27,0,8.84,1.25,11.41,3.87,11.41,1.37,0,3.48-1.47,3.48-4.7v-2.95h-3.72v-4.34h9.12v15.75h-4.15v-2.7h-.08a6.1881,6.1881,0,0,1-5.87,3.27c-6.42,0-8.29-4.38-8.29-15.46,0-9.33,1.88-14.89,9.39-14.89C988.27,158.2521,991.09,161.2721,991.09,167.4921Z"/><path d="M1010.85,158.8221v4.83h-9.98v6.87h9.39v4.83h-9.39v7.85h10.37v4.83h-16v-29.21Z"/></g></g></g></svg>