<svg xmlns="http://www.w3.org/2000/svg" width="318.9827" height="61.1037" viewBox="0 0 318.9827 61.1037"><defs><style>.cls-1{fill:#fff;}</style></defs><title>Monash-60Years-white-logo</title><g id="Layer_2" data-name="Layer 2"><g id="Layer_1-2" data-name="Layer 1"><path class="cls-1" d="M248.2455,38.11l18.6189-6.855a15.29,15.29,0,0,0,1.02-5.569c0-7.977-5.821-12.289-11.6421-12.289a9.4517,9.4517,0,0,0-8.4629,4.204l-.1071-.108c.3231-6.036,2.533-11.481,7.2221-11.481,2.4259,0,4.474,1.833,5.0669,4.69h7.276c-.862-6.576-5.605-10.457-12.235-10.457-10.9959,0-14.823,10.888-14.823,19.728,0,8.576,2.4181,15.355,8.0661,18.137m6.164-18.946c4.043,0,5.821,3.611,5.821,7.115,0,3.557-2.21,6.899-5.7671,6.899-3.719,0-6.091-3.288-6.091-7.007,0-4.15,2.372-7.007,6.0371-7.007"/><path class="cls-1" d="M266.584,20.371a13.5778,13.5778,0,0,1,1.055,5.407,16.1035,16.1035,0,0,1-.1671,2.306,22.1525,22.1525,0,0,0,.809,2.651l6.8431-2.52a32.7379,32.7379,0,0,1-.8971-8.973c0-3.827,0-12.936,6.091-12.936,5.8211,0,6.3061,7.654,6.3061,12.936,0,1.411-.013,3.099-.1631,4.799l7.784-2.866c.02-.561.0331-1.131.0331-1.717C294.278,6.683,289.3729,0,280.3719,0c-9.0559,0-13.799,6.737-13.799,19.458,0,.309.0061.611.0111.913"/><polygon class="cls-1" points="277.19 27.581 279.143 32.211 281.097 27.581 281.943 27.581 279.542 33.148 279.542 36.868 278.745 36.868 278.745 33.148 276.344 27.581 277.19 27.581"/><polygon class="cls-1" points="287.007 27.581 287.007 28.283 283.399 28.283 283.399 31.665 286.77 31.665 286.77 32.367 283.399 32.367 283.399 36.165 287.119 36.165 287.119 36.868 282.602 36.868 282.602 27.581 287.007 27.581"/><path class="cls-1" d="M291.0378,27.5813l2.625,9.287h-.846l-.722-2.706h-3.11l-.7221,2.706h-.8459l2.625-9.287Zm-1.8789,5.879h2.7619l-1.369-5.229h-.024Z"/><path class="cls-1" d="M297.0471,27.5816a2.1,2.1,0,0,1,2.252,2.328c0,1.275-.5351,2.146-1.6051,2.354v.026h.013c1.53.143,1.505,1.392,1.53,3.187a2.0849,2.0849,0,0,0,.3729,1.392h-.9329a3.478,3.478,0,0,1-.2491-1.574,4.1319,4.1319,0,0,0-.3609-2.185,1.5489,1.5489,0,0,0-1.356-.482h-1.568v4.241h-.7961v-9.287Zm-.535,4.344c1.269,0,1.991-.598,1.991-1.834,0-1.301-.647-1.808-1.9161-1.808h-1.4439v3.642Z"/><path class="cls-1" d="M304.9481,29.9616h-.796c0-1.223-.548-1.834-1.593-1.834a1.5786,1.5786,0,0,0-1.68,1.665c0,1.392,1.12,1.73,2.265,2.107a3.8689,3.8689,0,0,1,1.418.767,2.1411,2.1411,0,0,1,.622,1.652,2.4567,2.4567,0,0,1-2.687,2.705c-1.68,0-2.588-.897-2.588-2.809v-.221h.796v.299c0,1.314.61,2.029,1.767,2.029a1.7249,1.7249,0,0,0,1.916-1.886c0-1.196-.784-1.613-2.053-2.016a3.5435,3.5435,0,0,1-1.792-1.014,2.368,2.368,0,0,1-.46-1.522,2.3036,2.3036,0,0,1,2.451-2.458c1.618,0,2.414.832,2.414,2.536"/><path class="cls-1" d="M313.57,32.2248c0,3.213-.958,4.799-2.837,4.799-1.8911,0-2.837-1.573-2.837-4.799s.9459-4.799,2.837-4.799c1.879,0,2.837,1.586,2.837,4.799m-2.837,4.097c1.381,0,2.041-1.301,2.041-4.097,0-2.783-.647-4.097-2.053-4.097-1.382,0-2.029,1.353-2.029,4.097,0,2.796.672,4.097,2.041,4.097"/><polygon class="cls-1" points="318.983 27.581 318.983 28.283 315.375 28.283 315.375 31.665 318.747 31.665 318.747 32.367 315.375 32.367 315.375 36.868 314.578 36.868 314.578 27.581 318.983 27.581"/><polygon class="cls-1" points="279.768 39.424 281.062 46.108 281.087 46.108 282.394 39.424 285.096 39.424 285.096 48.893 283.421 48.893 283.421 41.334 283.396 41.334 281.785 48.893 280.364 48.893 278.753 41.334 278.728 41.334 278.728 48.893 277.053 48.893 277.053 39.424 279.768 39.424"/><path class="cls-1" d="M290.4879,39.4237l2.3969,9.469h-1.9029l-.4181-2.002h-2.41l-.419,2.002h-1.9031l2.3981-9.469Zm-1.142,1.645-.875,4.257h1.7759l-.875-4.257Z"/><polygon class="cls-1" points="295.41 39.424 295.41 43.217 295.435 43.217 297.744 39.424 299.723 39.424 297.262 43.482 300.002 48.893 297.947 48.893 296.082 45.007 295.41 46.081 295.41 48.893 293.583 48.893 293.583 39.424 295.41 39.424"/><rect class="cls-1" x="300.5473" y="39.4238" width="1.827" height="9.469"/><polygon class="cls-1" points="305.901 39.424 308.108 45.909 308.134 45.909 308.134 39.424 309.808 39.424 309.808 48.893 307.728 48.893 305.495 42.262 305.47 42.262 305.47 48.893 303.795 48.893 303.795 39.424 305.901 39.424"/><path class="cls-1" d="M316.9127,42.2357h-1.751c-.012-.716-.279-1.591-1.04-1.591-.748,0-1.243.649-1.243,3.328,0,2.865.406,3.7,1.256,3.7.444,0,1.129-.477,1.129-1.525v-.955h-1.205v-1.405h2.956v5.105H315.67v-.875h-.026a2.0036,2.0036,0,0,1-1.902,1.061c-2.081,0-2.69-1.419-2.69-5.013,0-3.023.609-4.827,3.045-4.827,1.903,0,2.816.981,2.816,2.997"/><path class="cls-1" d="M282.7112,54.5525v.093h-1.827c0-1.154-.152-1.976-1.091-1.976-.9891,0-1.141,1.233-1.141,3.62,0,2.679.291,3.409,1.167,3.409.812,0,1.1409-.664,1.1409-2.401h1.8271c0,2.162-.5451,3.806-2.88,3.806-2.5871,0-3.0821-1.737-3.0821-4.92,0-3.103.469-4.92,3.0821-4.92,2.1189,0,2.804,1.287,2.804,3.289"/><polygon class="cls-1" points="285.718 51.449 285.718 55.069 287.849 55.069 287.849 51.449 289.676 51.449 289.676 60.918 287.849 60.918 287.849 56.714 285.718 56.714 285.718 60.918 283.891 60.918 283.891 51.449 285.718 51.449"/><path class="cls-1" d="M295.03,51.4488l2.397,9.469h-1.9029l-.4181-2.002h-2.41l-.419,2.002h-1.9031l2.398-9.469Zm-1.1419,1.645-.875,4.257h1.7759l-.876-4.257Z"/><polygon class="cls-1" points="300.231 51.449 302.438 57.934 302.464 57.934 302.464 51.449 304.138 51.449 304.138 60.918 302.058 60.918 299.825 54.287 299.8 54.287 299.8 60.918 298.125 60.918 298.125 51.449 300.231 51.449"/><path class="cls-1" d="M311.2421,54.2607h-1.751c-.012-.716-.279-1.591-1.04-1.591-.748,0-1.243.649-1.243,3.328,0,2.865.406,3.7,1.256,3.7.444,0,1.129-.477,1.129-1.525v-.955h-1.205v-1.405h2.956v5.105h-1.345v-.875h-.026a2.0036,2.0036,0,0,1-1.902,1.061c-2.081,0-2.69-1.419-2.69-5.013,0-3.024.609-4.827,3.045-4.827,1.903,0,2.816.981,2.816,2.997"/><polygon class="cls-1" points="317.649 51.449 317.649 53.014 314.414 53.014 314.414 55.242 317.459 55.242 317.459 56.807 314.414 56.807 314.414 59.353 317.776 59.353 317.776 60.918 312.587 60.918 312.587 51.449 317.649 51.449"/><path class="cls-1" d="M78.5123,29.5074v14.308c0,5.881-2.414,8.62-7.597,8.62-6.006,0-7.267-4.687-7.267-8.62V29.5074h-1.751v14.308c0,6.75,3.034,10.175,9.018,10.175,6.204,0,9.348-3.425,9.348-10.175V29.5074h-1.751Z"/><path class="cls-1" d="M91.6027,35.7219a6.4828,6.4828,0,0,0-6.009,3.633V36.12h-1.552v17.308h1.552v-9.352c0-4.232,2.344-6.966,5.974-6.966,4.684,0,4.684,4.075,4.684,5.415v10.903h1.553V42.7549c0-1.922,0-7.033-6.202-7.033"/><polygon class="cls-1" points="101.647 36.12 101.647 53.429 103.201 53.429 103.201 36.12 103.053 36.12 101.647 36.12"/><polygon class="cls-1" points="101.647 30.825 101.647 33.158 103.201 33.158 103.201 30.825 103.053 30.825 101.647 30.825"/><path class="cls-1" d="M118.6046,36.12s-5.496,14.847-5.693,15.378c-.207-.526-6.085-15.378-6.085-15.378h-1.775l6.97,17.309h1.757l6.533-17.309h-1.707Z"/><path class="cls-1" d="M128.767,35.7224a6.9731,6.9731,0,0,0-5.092,2.047,10.1965,10.1965,0,0,0-2.567,7.303,9.1727,9.1727,0,0,0,2.365,6.672,7.2324,7.2324,0,0,0,5.294,2.079c4.158,0,6.819-2.231,7.492-6.279l.03-.172h-1.551l-.023.121a5.724,5.724,0,0,1-5.948,4.942,5.4956,5.4956,0,0,1-4.074-1.633,8.0912,8.0912,0,0,1-2.034-5.68l.001-.035h13.729l.007-.141c.01-.219.016-.436.016-.649a9.2,9.2,0,0,0-2.245-6.451,7.1507,7.1507,0,0,0-5.4-2.124m0,1.388c3.848,0,5.94,3.289,6.061,6.589H122.684c.319-3.301,2.48-6.589,6.083-6.589"/><path class="cls-1" d="M140.73,39.5554v-3.436h-1.551v17.309h1.551v-9.451c.137-2.591.691-3.572,1.88-4.794a5.6491,5.6491,0,0,1,4.576-1.613l.167.021v-1.562l-.142-.006c-2.838-.126-5.559,1.403-6.481,3.532"/><path class="cls-1" d="M155.5377,43.8337c.004.002-.525-.111-.525-.111-2.579-.547-5.014-1.063-5.014-3.485,0-2.306,2.453-3.127,4.75-3.127,1.808,0,4.845.542,4.885,4.19l.001.144h1.549v-.144c0-3.598-2.285-5.579-6.435-5.579-1.478,0-6.303.328-6.303,4.516,0,3.769,3.453,4.468,5.975,4.978l.448.091c2.705.544,5.26,1.059,5.26,3.67,0,3.123-3.669,3.459-5.247,3.459-3.145,0-5.294-1.894-5.479-4.825l-.01-.14h-1.547l.004.152c.096,3.825,2.791,6.201,7.032,6.201,1.596,0,6.799-.351,6.799-4.847,0-3.7-2.783-4.516-6.143-5.143"/><polygon class="cls-1" points="164.862 36.12 164.862 53.429 166.414 53.429 166.414 36.12 166.267 36.12 164.862 36.12"/><path class="cls-1" d="M173.0985,36.12v-5.294h-1.552V36.12h-3.143v1.388h3.143v11.733c-.004.099-.006.199-.006.295a3.9076,3.9076,0,0,0,.998,2.951c1.031,1,2.729,1.027,4.096.942l.138-.011v-1.381l-.152.003c-1.405.038-2.329-.045-2.886-.584a2.9819,2.9819,0,0,1-.636-2.215V37.5077h4.319c1.702,4.042,6.56,15.589,6.595,15.677-.764,2.166-1.226,3.424-1.699,3.894-.803.807-1.607,1.051-3.438,1.051h-.148v1.386h.148c1.895,0,3.113-.053,4.062-.79.734-.568,1.282-1.782,2.032-3.569.002-.004,7.36-19.037,7.36-19.037h-1.74s-5.477,14.591-5.729,15.264c-.27-.665-6.217-15.264-6.217-15.264Z"/><polygon class="cls-1" points="164.86 30.825 164.86 33.158 166.414 33.158 166.414 30.825 166.267 30.825 164.86 30.825"/><path class="cls-1" d="M101.1814,25.6142A12.3821,12.3821,0,1,1,101.89.8772c5.846.108,12.409,4.502,12.232,12.581a12.3982,12.3982,0,0,1-12.941,12.156m.246-23.247c-5.244,0-8.902,3.863-8.902,10.346,0,7.763,4.614,11.27,8.974,11.27,5.245,0,8.725-4.035,8.725-10.418.069-6.839-3.48-11.198-8.797-11.198"/><path class="cls-1" d="M202.25,1.533V1.192h-6.875v.341c1.361.09,1.737.357,1.737,2.289v8.389H184.7776V3.822c0-1.932.375-2.199,1.7361-2.289V1.192h-6.875v.341c1.361.09,1.736.357,1.736,2.289V22.659c0,1.935-.375,2.206-1.736,2.294v.337h6.875v-.337c-1.3611-.088-1.7361-.359-1.7361-2.294V13.665h12.3341v8.994c0,1.935-.376,2.206-1.737,2.294v.337h6.875v-.337c-1.361-.088-1.7371-.359-1.7371-2.294V3.822c0-1.932.3761-2.199,1.7371-2.289"/><path class="cls-1" d="M115.9426,1.1924v.341c1.324.071,1.7.215,1.7,1.608v19.518c0,1.935-.374,2.206-1.736,2.293v.338h5.19v-.338c-1.361-.087-1.74-.358-1.74-2.293V5.1254c0,.318,13.422,16.647,16.318,20.165h.553V3.1414c0-1.393.376-1.537,1.7-1.608v-.341h-5.102v.341c1.325.071,1.703.215,1.703,1.608v15.312l-14-17.261Z"/><path class="cls-1" d="M149.7564,1.192h-.48c-1.221,2.896-6.858,16.242-8.822,20.853a12.2787,12.2787,0,0,1-1.295,2.514,1.2034,1.2034,0,0,1-.913.394v.337h4.583v-.337c-.364,0-1.151-.006-1.207-.683a2.0569,2.0569,0,0,1,.131-.712c.142-.429,1.064-2.766,2.234-5.425h9.178c.903,2.243,1.729,4.16,2.112,5.011a4.0776,4.0776,0,0,1,.342,1.126c0,.666-.591.683-1.254.683v.337h6.405v-.337c-.787-.054-1.038-.251-1.611-1.553Zm-5.167,15.416c1.56-3.828,3.97-9.922,3.97-9.922s2.161,5.456,4.005,9.922Z"/><path class="cls-1" d="M60.6519,1.1924v.341c.742.041,1.178.111,1.427.402a1.7759,1.7759,0,0,1,.188.358v.002a1.442,1.442,0,0,1,.068.387c.013.137.019.289.019.459v19.518c0,1.935-.376,2.206-1.737,2.293v.338h5.138v-.338c-1.361-.087-1.736-.358-1.736-2.293V5.9424c0-.32-.071-.923-.071-.923l.319.923L72.5909,25.2h.505l8.502-19.826.247-.816a4.8771,4.8771,0,0,0-.071.746v17.355c0,1.935-.374,2.206-1.734,2.293v.338h6.875v-.338c-1.362-.087-1.737-.358-1.737-2.293V3.1414c0-1.393.375-1.537,1.7-1.608v-.341h-5.35l-7.69,18.182L66.04,1.1924Z"/><path class="cls-1" d="M161.9782,23.6707a13.1282,13.1282,0,0,0,6.553,1.983c.049,0,.098-.001.146-.001,3.76-.054,7.725-2.838,7.725-7.224,0-4.751-3.332-5.849-6.699-7.586-3.401-1.666-4.819-2.517-4.819-4.749a3.6443,3.6443,0,0,1,3.933-3.755,5.39,5.39,0,0,1,2.532.627c2.438,1.353,2.558,3.269,2.874,4.484h.355l-.207-5.364a15.4712,15.4712,0,0,0-3.648-1.068,11.2363,11.2363,0,0,0-1.41-.097c-3.366,0-7.335,2.02-7.335,6.271,0,2.906,1.737,4.716,5.174,6.415,3.401,1.736,5.988,2.413,5.988,5.814a4.5478,4.5478,0,0,1-4.817,4.747,5.6418,5.6418,0,0,1-3.709-1.332,6.9293,6.9293,0,0,1-2.389-4.479h-.354l.107,5.314"/><path class="cls-1" d="M44.658,28.3412l-.173.599c-.206.709-.438,1.396-.679,2.062l-1.557-1.399-.188.564a31.8211,31.8211,0,0,1-3.215,6.843A27.3618,27.3618,0,0,1,25.077,48.43s-.401.145-.574.205c-.173-.06-.577-.205-.577-.205a27.38,27.38,0,0,1-13.769-11.423,31.7211,31.7211,0,0,1-3.211-6.84l-.19-.564-.441.398-1.106.991c-.241-.664-.48-1.339-.689-2.052l-.171-.597-.462.418L0,32.2592l.077.238a45.9447,45.9447,0,0,0,3.556,8.02l.234.435,1.604-1.446c.063.104.115.22.182.325a32.6932,32.6932,0,0,0,16.452,13.586l2.398.879,2.399-.879a32.6945,32.6945,0,0,0,16.45-13.582c.064-.105.12-.224.184-.325l1.596,1.442.236-.435a44.96,44.96,0,0,0,3.56-8.022l.074-.236ZM.9,32.4952c.306-.274,2.449-2.202,3.08-2.773.194.631.411,1.226.627,1.814L2.48,33.4482l.729,4.578A41.2413,41.2413,0,0,1,.9,32.4952m3.344,7.069-.527-3.312c.42.878.881,1.724,1.364,2.557-.325.291-.63.57-.837.755m40.513,0c-.208-.188-.501-.452-.829-.75l.008-.016c.476-.822.93-1.659,1.35-2.534Zm-2.066-.14a31.9186,31.9186,0,0,1-16.054,13.263s-1.898.69-2.134.779c-.236-.089-2.131-.78-2.131-.78A31.9253,31.9253,0,0,1,6.313,39.4192a36.7273,36.7273,0,0,1-2.893-5.77c.342-.308,2.395-2.156,3.001-2.697a32.3254,32.3254,0,0,0,3.08,6.471,28.106,28.106,0,0,0,14.162,11.739l.84.301.838-.3a28.1426,28.1426,0,0,0,14.167-11.74,32.6242,32.6242,0,0,0,3.076-6.471c.607.541,2.661,2.389,3.002,2.697a36.5215,36.5215,0,0,1-2.895,5.775m3.102-1.389.733-4.587-2.121-1.906c.217-.59.428-1.189.622-1.82.631.573,2.773,2.499,3.076,2.773a40.1547,40.1547,0,0,1-2.31,5.54"/><path class="cls-1" d="M7.5686,37.3565l.628-.69-.052-.207c-.112-.117-.228-.231-.341-.36-.659.116-1.666.283-2.131.302l-.123-.143-.131.073c.064.108.128.21.187.316.071.124.135.257.203.382l.129-.072-.06-.184.673-.153.353.635a4.8612,4.8612,0,0,1-.479.5l-.129-.146-.127.064c.088.164.183.315.27.474.081.146.16.302.24.453l.127-.073-.057-.182c.121-.175.518-.653.82-.989m-.748-.787.871-.171v.003l-.601.65Z"/><path class="cls-1" d="M10.6321,40.5865l.118-.091c-.08-.104-.1631-.206-.2411-.314-.08-.106-.1529-.221-.2279-.334l-.1191.086.09.195c-.307.253-1.135.863-1.135.863l-.003-.006c.2069-.574.456-1.232.6739-1.823-.0769-.101-.1529-.195-.225-.296s-.137-.202-.21-.302l-.12.082.093.193c-.148.124-.2979.248-.4929.389l-.529.38c-.195.139-.3571.246-.5271.347l-.1519-.151-.12.087c.083.111.1659.215.2439.325.0791.107.15.214.2271.326l.118-.086-.09-.187c.3061-.257.766-.596,1.13-.863l.008.001c-.232.602-.446,1.22-.6839,1.854.055.07.11.138.161.21.0519.068.1.148.1349.203.1731-.143.398-.314.672-.511l.526-.38a5.7334,5.7334,0,0,1,.5271-.346Z"/><path class="cls-1" d="M10.7806,42.38a1.1392,1.1392,0,0,0-.0551,1.642,1.57,1.57,0,0,0,1.1291.537l.0369-.269a1.0645,1.0645,0,0,1-.6619-.321.8051.8051,0,0,1,.054-1.202.7064.7064,0,0,1,1.0659.023,1.19,1.19,0,0,1,.2551.515l-.1191.141.107.129a1.5178,1.5178,0,0,1,.487-.289,2.3919,2.3919,0,0,0-.451-.696,1.2719,1.2719,0,0,0-1.8479-.21"/><path class="cls-1" d="M15.2054,45.0292a1.1976,1.1976,0,0,0-1.773.059,1.1484,1.1484,0,0,0,.258,1.753,1.1919,1.1919,0,0,0,1.77-.062,1.1448,1.1448,0,0,0-.2549-1.75m-.224,1.353a.7132.7132,0,1,1-1.0681-.896.7127.7127,0,1,1,1.0681.896"/><path class="cls-1" d="M18.4616,47.4138c-.137-.085-.277-.164-.414-.246s-.275-.159-.404-.243c-.115-.072-.228-.148-.338-.222l-.079.126.156.14a5.2517,5.2517,0,0,1-.31.548l-.343.556c-.13.199-.239.358-.359.516l-.197-.08-.078.126c.156.091.308.18.457.273.144.089.292.19.442.289l.076-.124-.153-.146c.084-.171.179-.34.305-.547l.112-.177.146.094c.037.343.071.91.097,1.317a5.2284,5.2284,0,0,1,.613.333l.081-.127-.066-.086c-.036-.158-.143-.97-.177-1.193a.6223.6223,0,0,0,.81-.199c.161-.259.168-.585-.377-.928m-.165.617c-.141.223-.363.217-.642.043a.9663.9663,0,0,1-.16-.12l.097-.16c.101-.161.195-.3.259-.384a1.7813,1.7813,0,0,1,.273.149c.231.144.279.302.173.472"/><path class="cls-1" d="M21.8186,49.2018l-.167-.137c-.156-.026-.314-.044-.485-.085a21.3491,21.3491,0,0,1-1.533,1.513l-.181-.04-.061.134c.111.05.225.095.336.145.131.057.263.124.392.187l.061-.134-.16-.116.448-.52.665.297a6.1341,6.1341,0,0,1-.086.69l-.196-.047-.06.131c.164.076.334.144.497.219.155.07.31.146.463.221l.061-.134-.157-.112c-.007-.214.03-.834.073-1.282Zm-.657.972-.505-.229.594-.655h.006Z"/><path class="cls-1" d="M28.3465,50.9634c-.095-.172-.184-.344-.281-.564l-.263-.596c-.096-.221-.164-.397-.225-.585l.173-.12-.0581-.134c-.1619.075-.3219.153-.479.223-.1619.069-.3249.135-.49.207l.0591.133.206-.048a5.2071,5.2071,0,0,1,.279.564l.263.593c.095.22.163.397.225.583l-.173.123.059.134c.1629-.077.32-.153.483-.224.157-.072.322-.137.488-.205l-.061-.134Z"/><path class="cls-1" d="M32.4425,48.7314c-.115-.156-.223-.319-.346-.524l-.336-.56a6.0061,6.0061,0,0,1-.295-.551l.159-.142-.077-.125c-.131.083-.261.168-.396.249-.133.079-.274.159-.412.235.08.292.305,1.423.352,1.659-.251-.172-1.075-.882-1.304-1.089-.1291.082-.261.167-.391.246-.132.079-.27.154-.403.23l.075.13.182-.066.159.268c.157.261.667,1.135.787,1.385l-.158.142.077.122c.112-.069.222-.139.337-.209.115-.072.2319-.134.349-.201l-.073-.127-.198.076a5.9007,5.9007,0,0,1-.348-.522l-.196-.327c-.165-.274-.277-.471-.332-.573l.006-.005c.841.696,1.285,1.066,1.506,1.259l.308-.179-.391-1.931.004-.002c.064.095.184.289.351.564l.192.326c.122.207.214.373.299.549l-.1591.142.0761.128c.145-.095.293-.187.446-.282.15-.092.308-.176.462-.266l-.074-.125Z"/><path class="cls-1" d="M34.655,47.0909c-.138-.142-.265-.284-.417-.471l-.297-.369c-.125-.155-.29-.356-.401-.522a.9081.9081,0,0,1,.185-.206.39.39,0,0,1,.602.024.3824.3824,0,0,1-.036.595.8492.8492,0,0,1-.139.096l.107.283a2.059,2.059,0,0,0,.288-.195.8318.8318,0,0,0,.23-1.214c-.253-.31-.607-.335-1.005-.009-.097.078-.209.173-.348.292-.141.121-.273.232-.375.317-.102.08-.231.177-.372.287l.093.115.185-.101a5.7987,5.7987,0,0,1,.418.47l.41.506a5.7375,5.7375,0,0,1,.372.505l-.135.161.09.116c.138-.119.272-.231.407-.346.134-.107.275-.212.486-.379l-.094-.115Z"/><path class="cls-1" d="M38.2828,43.7088c-.201-.061-.773-.309-1.1829-.503l-.8431-.403-.185.114c-.075.139-.15.279-.247.429a21.2045,21.2045,0,0,1,.904,1.954l-.1.156.1061.102c.0839-.087.162-.181.247-.266.1009-.099.209-.202.3109-.304l-.1019-.102-.1651.113-.3409-.601.511-.526a5.8667,5.8667,0,0,1,.617.317l-.1081.169.1051.102c.123-.129.245-.267.3709-.395.118-.123.243-.241.3661-.361l-.1071-.102Zm-1.7229.442-.416-.783.0039-.006.797.393Z"/><path class="cls-1" d="M40.8184,40.558c-.159.018-.982.052-1.204.065a.6241.6241,0,0,0-.1231-.824c-.2429-.188-.5669-.22-.9569.292-.097.125-.19.253-.2851.381-.094.131-.185.258-.2779.382-.0821.108-.169.214-.255.316l.118.089.155-.141a5.3527,5.3527,0,0,1,.5169.36l.52.394c.188.145.3349.274.4779.404l-.094.188.115.089c.107-.143.2091-.286.3141-.426.1079-.14.2189-.274.3309-.416l-.117-.087-.1569.14a5.1926,5.1926,0,0,1-.5151-.355l-.1679-.129.1059-.137c.3421-.006.9131.014,1.321.027a5.4286,5.4286,0,0,1,.3891-.579l-.118-.09Zm-1.704.394a1.1292,1.1292,0,0,1-.137.145l-.149-.112c-.15-.112-.276-.22-.357-.289a2.0833,2.0833,0,0,1,.1739-.262c.1651-.213.325-.246.484-.126.2121.159.1811.384-.0149.644"/><path class="cls-1" d="M42.2,36.5314a1.15,1.15,0,0,0-1.69.538,1.2,1.2,0,0,0,.3481,1.74,1.1546,1.1546,0,0,0,1.6919-.536,1.2,1.2,0,0,0-.35-1.742m.0741,1.576a.8823.8823,0,1,1-.3891-1.038.7494.7494,0,0,1,.3891,1.038"/><path class="cls-1" d="M24.5031,50.6773a.51.51,0,0,0,0,1.02.51.51,0,1,0,0-1.02"/><path class="cls-1" d="M5.7942,34.6834a.511.511,0,1,0-.51-.51.5092.5092,0,0,0,.51.51"/><path class="cls-1" d="M43.3062,34.6834a.511.511,0,0,0,0-1.022.511.511,0,1,0,0,1.022"/><path class="cls-1" d="M42.5124,1.1946l-36.018-.002v18.471a31.7921,31.7921,0,0,0,1.315,8.995l-.005.01.072.232.178.588a.2258.2258,0,0,0,.024-.021,31.325,31.325,0,0,0,2.096,4.966l-.012.013.146.27.235.432.013-.013a26.5518,26.5518,0,0,0,13.812,12.086l.135.052.132-.052a26.514,26.514,0,0,0,13.813-12.086l.013.013.238-.432.143-.27-.01-.013a30.9881,30.9881,0,0,0,2.097-4.969.2453.2453,0,0,0,.024.024l.177-.588.071-.232-.006-.01a31.999,31.999,0,0,0,1.317-8.995Zm-4.483,33.157a3.54,3.54,0,0,1-.246.407,25.8287,25.8287,0,0,1-13.282,11.687,25.9566,25.9566,0,0,1-13.287-11.662l-.236-.432a2.2963,2.2963,0,0,1-.133-.275l.002-.002c-.027-.051-.052-.105-.079-.157l10.742-9.669c1.743-1.567,2.993-2.687,2.993-2.687l13.744,12.369c-.025.05-.049.102-.074.152,0,0-.146.273-.144.269m3.719-14.688a31.532,31.532,0,0,1-1.274,8.776s-.074.238-.076.244c0,0-.037.125-.079.256-1.873-1.684-15.349-13.816-15.816-14.24-.027.025-.106.097-.22.197-.04.038-.096.084-.148.139-2.074,1.862-12.422,11.187-15.449,13.906-.041-.135-.08-.26-.08-.26s-.065-.219-.065-.24V28.44a30.9589,30.9589,0,0,1-1.285-8.776V1.9566l34.492.001Z"/><path class="cls-1" d="M19.5207,34.9257l-.022,1.244-.991-.762-.99.762-.023-1.244-1.209-.306.963-.788-.524-1.14,1.224.253.559-1.11.564,1.11,1.222-.253-.523,1.14.963.788Zm6.8,8.768-1.239-.473-.547,1.218-.546-1.218-1.238.473.461-1.252-1.204-.56,1.204-.545-.461-1.251,1.238.46.546-1.211.547,1.211,1.239-.46-.462,1.251,1.198.547-1.198.558Zm-3.602-16.687,1.223.257.561-1.116.564,1.116,1.222-.257-.522,1.135.964.798-1.215.296-.024,1.251-.989-.759-.991.759-.019-1.251-1.217-.296.969-.798Zm4.925,10.084-.96-.486-.958.486.172-1.071-.762-.753,1.062-.17.486-.955.493.955,1.056.17-.755.753Zm3.925-3.921-1.095-.012-.537.95-.534-.95-1.093.012.562-.938-.562-.947,1.093.021.534-.953.537.953,1.095-.021-.564.947Z"/><path class="cls-1" d="M8.7055,5.0116h.725l-.043.186a.2042.2042,0,0,0-.006.061v8.709c.851,0,5.176-.009,5.412-.009.097.163.205.189.446.189.243,0,.36-.026.4579-.189.2541,0,4.9621.009,5.3971.009V5.2586a.29.29,0,0,0-.008-.057l-.044-.19h.735v9.63h-5.811a.8389.8389,0,0,1-1.456,0H8.7055Z"/><path class="cls-1" d="M13.73,4.27a5.9417,5.9417,0,0,0-1.66.274,6.8676,6.8676,0,0,1-2.093.297v8.455a6.4075,6.4075,0,0,0,1.996-.282,6.2267,6.2267,0,0,1,1.769-.286,2.4614,2.4614,0,0,1,1.2979.368V4.7127a1.9733,1.9733,0,0,0-1.31-.443m.8181,7.501a2.3529,2.3529,0,0,0-.8181-.147,5.96,5.96,0,0,0-1.6489.27,9.0989,9.0989,0,0,1-1.584.301V11.79a8.6152,8.6152,0,0,0,1.484-.284,6.1629,6.1629,0,0,1,1.761-.286,2.7706,2.7706,0,0,1,.806.125Zm0-.98a2.2742,2.2742,0,0,0-.8181-.154,6.1041,6.1041,0,0,0-1.65.275,8.7609,8.7609,0,0,1-1.583.3v-.403a9.2462,9.2462,0,0,0,1.4829-.288,6.4328,6.4328,0,0,1,1.7641-.286,3.0477,3.0477,0,0,1,.804.129Zm0-.987a2.3022,2.3022,0,0,0-.8181-.142,6.0756,6.0756,0,0,0-1.6439.269,8.5622,8.5622,0,0,1-1.589.304V9.83a9.2807,9.2807,0,0,0,1.49-.285,6.2753,6.2753,0,0,1,1.754-.286,2.8075,2.8075,0,0,1,.807.124Zm0-.973a2.581,2.581,0,0,0-.8181-.15,6.0211,6.0211,0,0,0-1.651.269,8.73,8.73,0,0,1-1.5819.299v-.4a8.3591,8.3591,0,0,0,1.4829-.29,6.3172,6.3172,0,0,1,1.7651-.284,2.9609,2.9609,0,0,1,.803.129Zm0-.985a2.52,2.52,0,0,0-.8181-.152,5.9407,5.9407,0,0,0-1.6439.276,8.8106,8.8106,0,0,1-1.589.301v-.406a8.6545,8.6545,0,0,0,1.49-.289,6.3314,6.3314,0,0,1,1.758-.282,3.087,3.087,0,0,1,.803.126Zm0-.975a2.4823,2.4823,0,0,0-.8181-.154,6.2153,6.2153,0,0,0-1.651.272,8.86,8.86,0,0,1-1.5819.305v-.407a8.5109,8.5109,0,0,0,1.481-.286,6.4906,6.4906,0,0,1,1.766-.289,2.965,2.965,0,0,1,.804.131Zm0-.983a2.5684,2.5684,0,0,0-.8181-.154,6.404,6.404,0,0,0-1.6529.271,8.9847,8.9847,0,0,1-1.58.304v-.406a8.2452,8.2452,0,0,0,1.481-.288,6.5508,6.5508,0,0,1,1.767-.282,3.0421,3.0421,0,0,1,.803.128Z"/><path class="cls-1" d="M15.4431,4.7123v8.383a2.4654,2.4654,0,0,1,1.299-.368,6.2117,6.2117,0,0,1,1.77.287,6.4159,6.4159,0,0,0,1.994.282V4.84a6.8764,6.8764,0,0,1-2.093-.297,5.9317,5.9317,0,0,0-1.658-.273,1.9708,1.9708,0,0,0-1.312.442m.492,6.632a2.8119,2.8119,0,0,1,.807-.125,6.1188,6.1188,0,0,1,1.76.287,8.6308,8.6308,0,0,0,1.484.283v.406a9.261,9.261,0,0,1-1.585-.302,5.9453,5.9453,0,0,0-1.648-.269,2.3621,2.3621,0,0,0-.818.147Zm0-.981a3.0633,3.0633,0,0,1,.806-.129,6.4307,6.4307,0,0,1,1.763.286,9.2383,9.2383,0,0,0,1.482.289v.402a8.8047,8.8047,0,0,1-1.584-.3,6.17,6.17,0,0,0-1.649-.275,2.3089,2.3089,0,0,0-.818.154Zm0-.981a2.7817,2.7817,0,0,1,.808-.123,6.2733,6.2733,0,0,1,1.754.285,9.14,9.14,0,0,0,1.489.285v.405a8.578,8.578,0,0,1-1.589-.304,6.1217,6.1217,0,0,0-1.644-.269,2.36,2.36,0,0,0-.818.142Zm0-.978a2.973,2.973,0,0,1,.804-.13,6.3159,6.3159,0,0,1,1.765.284,8.46,8.46,0,0,0,1.482.291v.399a8.7215,8.7215,0,0,1-1.581-.299,6.0715,6.0715,0,0,0-1.652-.269,2.5657,2.5657,0,0,0-.818.151Zm0-.984a3.1426,3.1426,0,0,1,.804-.127,6.4061,6.4061,0,0,1,1.758.282,8.7423,8.7423,0,0,0,1.489.29V8.27a8.7407,8.7407,0,0,1-1.589-.301,5.9072,5.9072,0,0,0-1.644-.275,2.5657,2.5657,0,0,0-.818.151Zm0-.977a2.9418,2.9418,0,0,1,.806-.131,6.4809,6.4809,0,0,1,1.764.288,8.4363,8.4363,0,0,0,1.481.286v.407a8.85,8.85,0,0,1-1.581-.304,6.1871,6.1871,0,0,0-1.652-.272,2.47,2.47,0,0,0-.818.153Zm0-.983a3.0576,3.0576,0,0,1,.804-.127,6.467,6.467,0,0,1,1.766.282,8.3509,8.3509,0,0,0,1.481.288v.405a9.0641,9.0641,0,0,1-1.579-.303,6.379,6.379,0,0,0-1.654-.272,2.6421,2.6421,0,0,0-.818.154Z"/><path class="cls-1" d="M39.496,9.3137a1.5286,1.5286,0,0,1-.1751.719,1.3332,1.3332,0,0,1-.273.355,1.8388,1.8388,0,0,0-.4239.264,1.6368,1.6368,0,0,1-.018-.18,1.5474,1.5474,0,0,1,.1709-.719,1.6045,1.6045,0,0,1,.69-.656,1.4371,1.4371,0,0,1,.0291.217"/><path class="cls-1" d="M36.5581,14.194h0a1.6,1.6,0,0,1,.929.163,1.5944,1.5944,0,0,1-.8381.448,1.6249,1.6249,0,0,1-.9329-.169,1.5922,1.5922,0,0,1,.842-.442"/><path class="cls-1" d="M35.0087,14.6785c-.002-.023-.006-.049-.006-.075a1.5171,1.5171,0,0,1,.23-.813h.001a1.4773,1.4773,0,0,1,.715-.577c.001.026.007.054.007.082a1.49,1.49,0,0,1-.224.802,1.5154,1.5154,0,0,1-.723.581"/><path class="cls-1" d="M36.2072,13.0113a1.707,1.707,0,0,1,.446-.5,1.69,1.69,0,0,1,.088.435,1.5838,1.5838,0,0,1-.074.468,1.4064,1.4064,0,0,1-.374.564,1.9751,1.9751,0,0,0-.196.068.36.36,0,0,0-.012-.044,1.8445,1.8445,0,0,0,.122-.991"/><path class="cls-1" d="M36.8768,12.2425a1.7,1.7,0,0,1,.326-.596,1.6,1.6,0,0,1,.223.762.9341.9341,0,0,1-.007.118,1.4058,1.4058,0,0,1-.226.639,1.3432,1.3432,0,0,0-.188.117c-.006-.012-.013-.026-.018-.038a1.8774,1.8774,0,0,0-.11-1.002"/><path class="cls-1" d="M37.347,11.3259a1.5844,1.5844,0,0,1,.1769-.647,1.5949,1.5949,0,0,1,.424.813,1.7328,1.7328,0,0,1,.0151.203,1.3949,1.3949,0,0,1-.09.464,1.4945,1.4945,0,0,0-.149.16c-.0139-.014-.0239-.026-.034-.038a1.9251,1.9251,0,0,0-.3429-.955"/><path class="cls-1" d="M37.5922,10.3351a1.6324,1.6324,0,0,1-.032-.308,1.7022,1.7022,0,0,1,.058-.346,1.3947,1.3947,0,0,1,.702,1.241.7484.7484,0,0,1-.012.092,1.71,1.71,0,0,0-.118.197c-.013-.007-.024-.017-.038-.025a1.91,1.91,0,0,0-.56-.851"/><path class="cls-1" d="M37.6084,9.3372a1.66,1.66,0,0,1-.151-.673,1.5525,1.5525,0,0,1,.754.537,1.4943,1.4943,0,0,1,.247.605,1.6267,1.6267,0,0,0-.071.231c-.013-.007-.028-.012-.042-.02a1.8328,1.8328,0,0,0-.737-.68"/><path class="cls-1" d="M38.3052,8.8378c-.0161-.003-.0341-.004-.052-.009a1.9268,1.9268,0,0,0-.864-.496,1.7174,1.7174,0,0,1-.2861-.603,1.499,1.499,0,0,1,.836.336,1.4426,1.4426,0,0,1,.381.566,1.2981,1.2981,0,0,0-.0149.206"/><path class="cls-1" d="M37.92,7.711a1.9154,1.9154,0,0,0-.975-.286,1.7672,1.7672,0,0,1-.431-.54,1.59,1.59,0,0,1,.902.152,1.36,1.36,0,0,1,.496.45,1.6534,1.6534,0,0,0,.041.221.2878.2878,0,0,0-.033.003"/><path class="cls-1" d="M37.2822,13.9782a1.8033,1.8033,0,0,0-.476-.07,1.57,1.57,0,0,1,.684-.594h.002a1.62,1.62,0,0,1,.94-.056,1.5512,1.5512,0,0,1-.707.619,1.36,1.36,0,0,1-.443.101"/><path class="cls-1" d="M38.1633,12.9366a1.912,1.912,0,0,0-.496.039,1.5532,1.5532,0,0,1,.534-.735h.001a1.5478,1.5478,0,0,1,.906-.289,1.43,1.43,0,0,1-.945.985"/><path class="cls-1" d="M39.0967,11.4294a1.3156,1.3156,0,0,1-.353.289,1.7309,1.7309,0,0,0-.4521.151,1.4282,1.4282,0,0,1,1.158-1.318,1.5534,1.5534,0,0,1-.3529.878"/><path class="cls-1" d="M39.2579,8.2714a1.4387,1.4387,0,0,1-.041.355,1.33,1.33,0,0,1-.182.407,1.83,1.83,0,0,0-.3511.358,1.71,1.71,0,0,1-.11-.554,1.5335,1.5335,0,0,1,.0449-.362,1.6579,1.6579,0,0,1,.518-.804,1.7847,1.7847,0,0,1,.1211.6"/><path class="cls-1" d="M38.1679,7.2684a1.63,1.63,0,0,1,.313-.893,1.6254,1.6254,0,0,1,.301.9V7.28a1.3193,1.3193,0,0,1-.081.435,1.9454,1.9454,0,0,0-.252.418,1.6029,1.6029,0,0,1-.281-.849Z"/><path class="cls-1" d="M37.538,5.2542a1.6043,1.6043,0,0,1,.51.806,1.5732,1.5732,0,0,1,.038.336c0,.031-.003.064-.005.1a1.8064,1.8064,0,0,0-.16.478,1.5511,1.5511,0,0,1-.474-.769,1.4638,1.4638,0,0,1-.037-.335,1.7364,1.7364,0,0,1,.128-.616"/><path class="cls-1" d="M37.3381,6.6792a.1617.1617,0,0,1-.0421.015,1.9547,1.9547,0,0,0-1.011-.059,1.6517,1.6517,0,0,1-.536-.422,1.6179,1.6179,0,0,1,.916-.065,1.38,1.38,0,0,1,.583.325c.029.075.058.141.09.206"/><path class="cls-1" d="M36.3708,4.3989a1.5672,1.5672,0,0,1,.68.665,1.4783,1.4783,0,0,1,.133.407,1.9428,1.9428,0,0,0-.042.509,1.6166,1.6166,0,0,1-.645-.641,1.58,1.58,0,0,1-.1581-.694,1.7263,1.7263,0,0,1,.0321-.246"/><path class="cls-1" d="M36.024,5.0116c.035.024.068.059.1.086a1.6628,1.6628,0,0,0,.125.36l.002.003a2.0014,2.0014,0,0,0,.222.33,1.556,1.556,0,0,1-.8041-.274,1.6152,1.6152,0,0,1-.5559-.787,1.6312,1.6312,0,0,1,.911.282"/><path class="cls-1" d="M30.4957,14.0021c-.003.015-.007.029-.011.044a1.89,1.89,0,0,0-.196-.068,1.3943,1.3943,0,0,1-.45-1.032,1.55,1.55,0,0,1,.091-.435,1.705,1.705,0,0,1,.445.5,1.8736,1.8736,0,0,0,.121.991"/><path class="cls-1" d="M29.6346,7.4252a1.8633,1.8633,0,0,0-.97.286c-.0121-.002-.024-.002-.034-.003a1.8073,1.8073,0,0,0,.04-.221,1.3385,1.3385,0,0,1,.495-.451,1.6042,1.6042,0,0,1,.9021-.153,1.7137,1.7137,0,0,1-.433.542"/><path class="cls-1" d="M29.5961,13.2448l-.022.038a1.6139,1.6139,0,0,0-.184-.12,1.4569,1.4569,0,0,1-.231-.638c-.001-.038-.003-.077-.003-.117a1.598,1.598,0,0,1,.221-.761,1.6843,1.6843,0,0,1,.327.596,1.8462,1.8462,0,0,0-.108,1.002"/><path class="cls-1" d="M28.6354,11.492a1.5779,1.5779,0,0,1,.4229-.813,1.6364,1.6364,0,0,1,.178.644,1.9586,1.9586,0,0,0-.347.958c-.01.012-.021.023-.0319.037a1.6059,1.6059,0,0,0-.149-.159,1.3948,1.3948,0,0,1-.086-.465,1.5163,1.5163,0,0,1,.013-.202"/><path class="cls-1" d="M28.4283,11.1861a.2589.2589,0,0,1-.036.025,1.7844,1.7844,0,0,0-.119-.2.5287.5287,0,0,1-.01-.089,1.4042,1.4042,0,0,1,.6991-1.243,1.5594,1.5594,0,0,1,.061.348,1.4828,1.4828,0,0,1-.034.308,1.9356,1.9356,0,0,0-.561.851"/><path class="cls-1" d="M28.6429,8.0659a1.4815,1.4815,0,0,1,.8349-.336,1.7239,1.7239,0,0,1-.2849.601,1.91,1.91,0,0,0-.8631.498c-.018.002-.036.006-.0529.009a1.9631,1.9631,0,0,0-.013-.206,1.3928,1.3928,0,0,1,.379-.566"/><path class="cls-1" d="M28.3694,9.2014a1.5516,1.5516,0,0,1,.754-.537,1.6472,1.6472,0,0,1-.151.671,1.87,1.87,0,0,0-.735.681l-.0431.021a1.7437,1.7437,0,0,0-.073-.231,1.5246,1.5246,0,0,1,.2481-.605"/><path class="cls-1" d="M28.2922,11.869a1.8452,1.8452,0,0,0-.453-.151,1.3159,1.3159,0,0,1-.356-.29,1.5675,1.5675,0,0,1-.3511-.877,1.5723,1.5723,0,0,1,.8171.477,1.5915,1.5915,0,0,1,.343.841"/><path class="cls-1" d="M28.3812,12.2407h.001a1.5518,1.5518,0,0,1,.534.735,1.9113,1.9113,0,0,0-.495-.039,1.5169,1.5169,0,0,1-.402-.202,1.5643,1.5643,0,0,1-.547-.783,1.5569,1.5569,0,0,1,.909.289"/><path class="cls-1" d="M29.0911,13.3145h0a1.57,1.57,0,0,1,.684.594,1.7573,1.7573,0,0,0-.476.07,1.4224,1.4224,0,0,1-.445-.101,1.564,1.564,0,0,1-.706-.619,1.5893,1.5893,0,0,1,.943.056"/><path class="cls-1" d="M30.0245,14.194h.001a1.6069,1.6069,0,0,1,.8419.442,1.6439,1.6439,0,0,1-.937.169,1.6065,1.6065,0,0,1-.837-.448,1.6,1.6,0,0,1,.9311-.163"/><path class="cls-1" d="M30.85,14.0976a1.5008,1.5008,0,0,1-.2241-.802c0-.029.004-.057.0061-.082a1.4883,1.4883,0,0,1,.7169.574v.003a1.5044,1.5044,0,0,1,.2311.813.5844.5844,0,0,1-.006.075,1.494,1.494,0,0,1-.724-.581"/><path class="cls-1" d="M30.333,5.4578a1.7468,1.7468,0,0,0,.126-.36,1.029,1.029,0,0,1,.1-.086,1.6185,1.6185,0,0,1,.91-.283,1.604,1.604,0,0,1-.5581.788,1.5811,1.5811,0,0,1-.802.274,2.1357,2.1357,0,0,0,.2221-.33Z"/><path class="cls-1" d="M29.5282,5.0636a1.5649,1.5649,0,0,1,.684-.665,2.0642,2.0642,0,0,1,.03.246,1.6068,1.6068,0,0,1-.155.694,1.6529,1.6529,0,0,1-.646.641,2.0337,2.0337,0,0,0-.042-.508,1.5507,1.5507,0,0,1,.129-.408"/><path class="cls-1" d="M29.3314,6.4733a1.3971,1.3971,0,0,1,.586-.325,1.6179,1.6179,0,0,1,.916.065,1.6376,1.6376,0,0,1-.538.42,1.9426,1.9426,0,0,0-1.008.061.17.17,0,0,1-.045-.015,1.4206,1.4206,0,0,0,.089-.206"/><path class="cls-1" d="M28.5331,6.0594a1.6172,1.6172,0,0,1,.511-.805,1.7789,1.7789,0,0,1,.1269.615,1.5181,1.5181,0,0,1-.037.336,1.57,1.57,0,0,1-.472.769,1.843,1.843,0,0,0-.16-.478c-.0031-.036-.007-.072-.007-.1a1.4573,1.4573,0,0,1,.038-.337"/><path class="cls-1" d="M27.7993,7.2753a1.6345,1.6345,0,0,1,.302-.9,1.6,1.6,0,0,1,.312.893v.016a1.5785,1.5785,0,0,1-.28.848,2.04,2.04,0,0,0-.25-.417,1.2825,1.2825,0,0,1-.084-.435Z"/><path class="cls-1" d="M27.4444,7.6716a1.6444,1.6444,0,0,1,.519.804,1.5311,1.5311,0,0,1,.0429.362,1.6862,1.6862,0,0,1-.109.552,1.9571,1.9571,0,0,0-.3479-.357,1.3212,1.3212,0,0,1-.187-.407,1.5794,1.5794,0,0,1-.043-.354,1.7413,1.7413,0,0,1,.125-.6"/><path class="cls-1" d="M27.1127,9.0967a1.5873,1.5873,0,0,1,.692.656,1.5238,1.5238,0,0,1,.173.719,1.3509,1.3509,0,0,1-.02.177,1.9239,1.9239,0,0,0-.426-.261,1.3185,1.3185,0,0,1-.271-.355,1.5212,1.5212,0,0,1-.177-.719,1.45,1.45,0,0,1,.029-.217"/><path class="cls-1" d="M35.19,14.8346l-.038.021a4.2964,4.2964,0,0,1-1.469.471,3.043,3.043,0,0,0,.28-1.382,3.4709,3.4709,0,0,0-.18-1.166h.784c.448,0,.638-.262.638-.507a.37.37,0,0,0-.359-.372.3608.3608,0,0,0-.361.361.3023.3023,0,0,0,.039.141c.033.063.055.135-.082.135h-.473V6.4246a6.2005,6.2005,0,0,0-.544-2.8l-.136-.279-.138.279a6.1868,6.1868,0,0,0-.539,2.8v6.112h-.48c-.131,0-.112-.072-.081-.135a.2809.2809,0,0,0,.037-.141.3547.3547,0,0,0-.356-.361.3751.3751,0,0,0-.361.372c0,.241.193.507.639.507h.787a3.4425,3.4425,0,0,0-.182,1.166,3.0216,3.0216,0,0,0,.282,1.384,4.281,4.281,0,0,1-1.497-.473l-.038-.021-.113.262.03.016a4.4825,4.4825,0,0,0,1.179.401c.009.003.345.065.581.11a.3412.3412,0,0,0-.097.239.33.33,0,0,0,.66,0,.3361.3361,0,0,0-.096-.239c.238-.045.565-.105.565-.105a4.5316,4.5316,0,0,0,1.196-.406l.032-.016Zm-1.525-2.664h-.377v-8.06a6.3088,6.3088,0,0,1,.377,2.314Z"/></g></g></svg>